<?xml version="1.0" encoding="utf-8"?>
<!-- Generator: Adobe Illustrator 19.0.0, SVG Export Plug-In . SVG Version: 6.00 Build 0)  -->
<svg version="1.1" id="Layer_1" xmlns="http://www.w3.org/2000/svg" xmlns:xlink="http://www.w3.org/1999/xlink" x="0px" y="0px"
	 viewBox="0 0 267 79.3" enable-background="new 0 0 267 79.3" xml:space="preserve">
<g id="XMLID_406_">
	<path id="XMLID_407_" fill="#FFFFFF" d="M40.1,33.6c-4.5,0-12.9,5.9-12.9,5.9s-3.1-3.5-0.7-5.9s23.2-16,24.1-23.5
		c0.6-4.2-2.5-5.7-8.1-5.7c-15,0-38.3,25.7-38.9,30.7c-0.6,4.6,9.2-4.4,15-10.9c1.7-2.1,1.1-4.2,1.9-4.2c3.1,0,5.8,3.3,5.8,6.3
		c0,4.5-14.2,21.3-14.2,26.5c0,2.9-4.6,1.5-5.5-3.8c-0.6-3.7,3.2-9.7,6.8-15.1c-3.1,2.7-7,5.4-9.6,5.4S-0.3,37,0,34.8
		C0.7,28.3,21.8,0,42.1,0c8.8,0,14.3,5.8,13.4,13.1c-0.8,6.3-10.6,14.5-13.3,16.6c2,0.7,9.6,4.1,8.4,13.6c-0.1,0.8-0.3,1.6-0.5,2.4
		c1.5-1.2,2.9-2.7,4.2-4.5c0.9-1.2,1.8-2.3,2.5-3.5c0.8-1.2,2.5-0.7,1.4,1.2c-0.3,0.5-1.2,1.8-2.5,3.5c-1.7,2.3-4.1,4.5-6.6,6.4
		c-4.4,10.6-16.5,24-26,24.5h0.1c-0.1,0-0.2,0-0.3,0c-0.1,0-0.2,0-0.2,0c-3.8-0.2-5.1-2.4-4.6-5.3c0.8-5.7,17-13.5,24.3-18
		C42.2,49.9,51,33.6,40.1,33.6z M18.6,24.2c0.4-0.5,0.7-0.9,1.1-1.3C19.7,22.9,18.6,24.2,18.6,24.2z M38.9,54.3
		C32.6,58.2,21,64.9,20.5,68.4c-0.1,0.7,0.1,1.4,0.8,1.4C24.9,69.9,34.2,61.8,38.9,54.3z"/>
	<path id="XMLID_411_" fill="#FFFFFF" d="M84.2,38.9c-1.1,1.7-12.8,16.3-18.6,18.3l-0.2,0.2l-0.7,1.1c-3.6,5.4-7.9,10.5-12.2,14.4
		c-4.1,3.8-7.5,6.4-12,6.4c-2.2,0-5-1.9-5.3-5.6C34.8,70,55.4,60.8,55.4,60.8c0.7-0.7,1.6-2.1,2.5-3.6c-0.6,0.3-1.1,0.6-1.6,0.6
		c-2.3,0-5.4-1.8-5.8-6c-0.3-4,8.9-16.5,8.4-21.8c-0.1-1.4,4.5,0.8,4.9,5.4c0.4,4.5-11,20-7.5,20c3.9,0,15.3-19.4,14.7-25.9
		c-0.1-1.1,3.8,1.6,4.2,5.9c0.2,3.1-2.7,10-7.6,18c3.6-2.5,10.9-9.8,15-15.8C83.6,36.4,85.3,37,84.2,38.9z M53.4,63.4
		c0,0-17,8.6-16.8,10.6c0.1,1,1,1.6,2,1.6C44.2,75.6,53.4,63.4,53.4,63.4z"/>
	<path id="XMLID_414_" fill="#FFFFFF" d="M127.4,27c0-1.6-3.6-5-9.8-5c-1.2,0-2.4,0-3.5,0.1c-7,12.6-20.4,32.8-16.2,32.8
		c1.7,0,11-9.3,16.1-16.9c0.8-1.2,2.5-0.7,1.3,1.2c-1.2,1.8-13.9,18.6-19.1,18.6c-4.2,0-4.9-3.8-4.9-6.6c0-3.9,8.1-17.3,14.4-28.7
		c-2,0.1-4.1,0.1-6.3,0.1c-6.3,0-8.6-2.5-9.4-4.8c-0.7-2,0.2-2.4,1.2-1.5c1.6,1.4,4.5,2.7,8.4,2.7c3.4,0,6.4-0.2,8.4-0.5
		c2.8-5.3,4.8-9.7,4.8-11.5c0-1.6,5.5,0.3,5.5,6.1c0,1-0.7,2.8-2,5.3c0.6,0,1.1,0,1.6,0c7.1,0,10.3,3.8,11.1,6.8
		C129.3,27.2,127.4,27,127.4,27z"/>
	<path id="XMLID_416_" fill="#FFFFFF" d="M121.3,49.8c0-3.3,8.1-15.1,8.1-15.1s-18.7,16.9-18.7,22.2c0,2.2-4.8-0.1-4.8-3.8
		c0-5.7,21.8-34.6,21.8-41c0-1.1,4.4,1.2,4.4,5.9c0,4.8-14.4,24.7-14.4,24.7s13.4-12.9,15.7-12.9s3.1,3.2,3.1,5.9
		c0,2.8-13.6,19.2-8.3,19.2c1.7,0,10.6-9.3,15.6-16.9c0.8-1.2,2.5-0.7,1.3,1.2c-1.2,1.8-13.5,18.6-18.6,18.6
		C122.9,57.8,121.3,53.1,121.3,49.8z"/>
	<path id="XMLID_418_" fill="#FFFFFF" d="M165.6,39.3c-1.2,1.9-14.8,18.6-22,18.6c0,0-5.4-0.1-5.4-7c0-10.2,13.5-21.2,17.3-21.2
		c1.5,0,4,1,4,6.4s-12,14.7-14.9,14.7c0,0-2.1,3.8,0.8,3.8c3.8,0,14-8.8,18.9-16.3C165.1,36.8,166.8,37.4,165.6,39.3z M145.4,48.5
		c7.7-4.5,11.3-11.9,9.4-11.9C152.9,36.6,145.4,48.5,145.4,48.5z"/>
	<path id="XMLID_421_" fill="#FFFFFF" d="M180.5,29.4c0-1.4,5.8,0.4,5.8,5.7s-12.6,20.4-8.5,20.4c1.1,0,5.7-4.4,8.5-7.9
		c0.3-1.6,1.9-9.4,5.9-9.4c1.4,0,2.1,0.9,1.9,2.5c-0.6,4.1-5.4,7.4-5.4,7.4s-1,7.5,2.3,7.5c6.8,0,13.1-24.2,13.1-31.1
		c0-7-5.4-8.1-5.4-8.1s-0.5,0.5-2.3,0.5s-1-2,1.6-2s12,3.9,12,13.2c0,11.1-12.2,29.7-18.1,29.7c-4.5,0-5.8-3.6-5.9-7.1
		c-2.6,3.2-6.6,7.1-9.1,7.1c-2.3,0-4.8-1.8-4.8-6.1C172.3,47.6,180.5,35.9,180.5,29.4z M189.1,45.4c0.8,0,5.1-5.5,3.2-5.5
		C190.3,39.9,189.1,45.4,189.1,45.4z"/>
	<path id="XMLID_424_" fill="#FFFFFF" d="M228.2,35.6c-6.6,0-21.7,19.2-17.6,19.2c1.4,0,13.1-13,12.5-14s4-0.2,4,4
		s-5.3,10.1-3.5,10.1s10.2-9.3,15.2-16.9c0.8-1.2,2.5-0.7,1.4,1.2C239,41,227.1,57.8,222,57.8c-2.3,0-4.6-3.5-4.6-4.9s1-3.5,1-3.5
		s-7.1,8.4-9.2,8.4c-2,0-5.3-2.6-5.3-6.6c0-6.6,13.7-21.6,20.1-21.6C227.2,29.6,229.5,35.6,228.2,35.6z"/>
	<path id="XMLID_426_" fill="#FFFFFF" d="M266.6,38.9c-1.1,1.7-12.8,16.3-18.6,18.3l-0.2,0.2l-0.7,1.1c-3.6,5.4-7.9,10.5-12.2,14.4
		c-4.1,3.8-7.5,6.4-12,6.4c-2.2,0-5-1.9-5.3-5.6s20.2-12.8,20.2-12.8c0.7-0.7,1.6-2.1,2.5-3.6c-0.6,0.3-1.1,0.6-1.6,0.6
		c-2.3,0-5.4-1.8-5.8-6c-0.3-4,8.9-16.5,8.4-21.8c-0.1-1.4,4.5,0.8,4.9,5.4c0.4,4.5-11,20-7.5,20c3.9,0,15.3-19.4,14.7-25.9
		c-0.1-1.1,3.8,1.6,4.2,5.9c0.2,3.1-2.7,10-7.6,18c3.6-2.5,10.9-9.8,15-15.8C266,36.4,267.7,37,266.6,38.9z M235.8,63.4
		c0,0-17,8.6-16.8,10.6c0.1,1,1,1.6,2,1.6C226.6,75.6,235.8,63.4,235.8,63.4z"/>
</g>
</svg>
