<?xml version="1.0" encoding="utf-8"?>
<!-- Generator: Adobe Illustrator 19.0.0, SVG Export Plug-In . SVG Version: 6.00 Build 0)  -->
<svg version="1.1" id="Layer_1" xmlns="http://www.w3.org/2000/svg" xmlns:xlink="http://www.w3.org/1999/xlink" x="0px" y="0px"
	 viewBox="0 0 47 47" enable-background="new 0 0 47 47" xml:space="preserve">
<g id="XMLID_14_">
	<path id="XMLID_15_" fill="#FFFFFF" d="M-11,17.1c0,4.8-6.1,13.5-11.3,13.5c-2.1,0-4.7-1.2-4.7-5.6c0-4.4,4.1-9.2,5.8-9.2
		c1.3,0,1.5,0.6,1.5,0.6s2.3-3,5.5-3C-12.4,13.3-11,14.5-11,17.1z M-14.5,22.7c0,0-0.9,0.3-1.8,0.3c-3.5,0-3.9-4.4-3.9-4.4
		s-4.4,3.4-4.4,7.1c0,2.4,0.8,3.9,2.3,3.9C-17.7,29.6-14.5,22.7-14.5,22.7z M-14.2,15.9c-2.7,0-4.1,2.2-4.1,3.3
		c0,1.6,0.9,2.9,2.2,2.9c1.3,0,2.3-0.6,2.3-0.6S-11.2,15.9-14.2,15.9z"/>
	<path id="XMLID_19_" fill="#FFFFFF" d="M-9.8,27.6c0-1,2.4-4.5,2.4-4.5s-5.6,5.1-5.6,6.7c0,0.7-1.4,0-1.4-1.2
		c0-1.7,6.5-10.4,6.5-12.3c0-0.3,1.3,0.4,1.3,1.8c0,1.4-4.3,7.4-4.3,7.4s4-3.9,4.7-3.9s0.9,1,0.9,1.8c0,0.8-4.1,5.8-2.5,5.8
		c0.5,0,3.2-2.8,4.7-5.1c0.3-0.4,0.8-0.2,0.4,0.4C-3,25-6.7,30-8.3,30C-9.4,30-9.8,28.6-9.8,27.6z"/>
	<path id="XMLID_21_" fill="#FFFFFF" d="M-4.4,30c0-0.7,1.6,0.2,1.6,0.7c0,0.7-2.1,2.7-2.5,2.7C-6.1,33.5-4.4,31-4.4,30z"/>
	<path id="XMLID_23_" fill="#FFFFFF" d="M19,21.9c-0.6,0.7-2.4,1.5-3.9,1.5c-1.3,2-2.8,5.1-2.8,6.3c0,0.9-1.6-0.2-1.6-1.8
		c0-1,1-2.9,1.7-4.4c-1.2,0-2.7,0.1-4.1,0.3c-1.5,2.4-3.2,5.8-3.2,6.8c0,0.7-1.7,0.2-1.7-1.8c0-0.7,1.2-2.9,2-4.5
		c-1.8,0.2-3.1,0.2-3.1,0.8c0,0.7-1.2,0-1.2-0.8c0-1.9,2.5-1.8,5.5-2.1c2.3-3.9,6-10,6-11.2c0,0,0-1.6-2.1-1.6c-3,0-8.1,4.9-7.6,9.2
		c0.1,0.8,0.5,2.2,2,2.2c1.4,0,2-1.4,2-0.8c0,0.8-1.4,1.4-2.5,1.4c-0.9,0-3.2-0.5-3.6-3.5c-0.8-6,6.4-9.3,9.6-9.3
		c2.1,0,4.1,1.1,4.1,3.3l0-0.1c0.2,1.4-3.1,6.7-5.3,10.3c1.5,0,2.7,0.1,3.8,0c1.9-3.5,3.2-4.6,3-5.6c-0.1-0.4,1.5,0.2,1.5,1.8
		c0,1.1,0,1.1-1.8,3.9c2.3-0.1,2.6-0.9,2.9-0.9C19.1,21.4,19.2,21.7,19,21.9z"/>
	<path id="XMLID_25_" fill="#FFFFFF" d="M23.4,24.4c-0.4,0.5-4.1,5.6-5.6,5.6c-1.3,0-1.6-1.4-1.5-2.3c0.1-1.2,1.8-3.3,2.6-5.3
		c0.1-0.3,0-0.7,0.4-0.7c0.4,0,1.2,0.7,1.1,2c-0.1,1.3-3.9,5.5-2.1,5.5c0.5,0,3.2-2.8,4.7-5.1C23.3,23.6,23.8,23.8,23.4,24.4z
		 M20.4,19.1c0.1-1.2,0.9-1.6,1.3-1.6c0.4,0,1.6,0.5,1.5,1.1s-0.6,0.7-1.1,1.6c-0.5,0.9-0.5,0.9-0.7,0.9
		C20.9,21.1,20.2,20.4,20.4,19.1z"/>
	<path id="XMLID_28_" fill="#FFFFFF" d="M36.4,20.7c0-0.5-1.1-1.5-3-1.5c-0.4,0-0.7,0-1.1,0c-2.1,3.8-6.1,9.9-4.9,9.9
		c0.5,0,3.3-2.8,4.8-5.1c0.2-0.4,0.8-0.2,0.4,0.4C32.3,25,28.5,30,27,30c-1.3,0-1.5-1.2-1.5-2c0-1.2,2.4-5.2,4.3-8.6
		c-0.6,0-1.2,0-1.9,0c-1.9,0-2.6-0.7-2.8-1.4c-0.2-0.6,0.1-0.7,0.4-0.5c0.5,0.4,1.3,0.8,2.5,0.8c1,0,1.9-0.1,2.5-0.1
		c0.9-1.6,1.4-2.9,1.4-3.5c0-0.5,1.6,0.1,1.6,1.8c0,0.3-0.2,0.9-0.6,1.6c0.2,0,0.3,0,0.5,0c2.1,0,3.1,1.1,3.3,2.1
		C37,20.8,36.4,20.7,36.4,20.7z"/>
	<path id="XMLID_30_" fill="#FFFFFF" d="M34.5,27.6c0-1,2.4-4.5,2.4-4.5s-5.6,5.1-5.6,6.7c0,0.7-1.4,0-1.4-1.2
		c0-1.7,6.5-10.4,6.5-12.3c0-0.3,1.3,0.4,1.3,1.8c0,1.4-4.3,7.4-4.3,7.4s4-3.9,4.7-3.9s0.9,1,0.9,1.8c0,0.8-4.1,5.8-2.5,5.8
		c0.5,0,3.2-2.8,4.7-5.1c0.3-0.4,0.8-0.2,0.4,0.4c-0.4,0.5-4,5.6-5.6,5.6C35,30,34.5,28.6,34.5,27.6z"/>
	<path id="XMLID_32_" fill="#FFFFFF" d="M47.8,24.4C47.5,25,43.4,30,41.2,30c0,0-1.6,0-1.6-2.1c0-3.1,4.1-6.4,5.2-6.4
		c0.4,0,1.2,0.3,1.2,1.9c0,1.6-3.6,4.4-4.5,4.4c0,0-0.6,1.1,0.3,1.1c1.1,0,4.2-2.7,5.7-4.9C47.7,23.7,48.2,23.9,47.8,24.4z
		 M41.8,27.2c2.3-1.4,3.4-3.6,2.8-3.6C44,23.6,41.8,27.2,41.8,27.2z"/>
	<path id="XMLID_35_" fill="#FFFFFF" d="M54.2,33.6c0,0-0.5,1.2-2.2,1.2s-4.2-1.6-4.2-4.9c0-2.4,1.5-5,2.3-6.2
		c-0.5,0.2-1.4,0.5-2.3,0.5c-0.5,0-1.3-0.3-1.3-2.1c0-2.7,2-4.6,3.2-4.6c0.6,0,1.2,0.4,1.2,1.1c0,1.4-2.4,4.6-2.4,4.6
		s2.3-1.2,2.6-1.4c0.2-0.1,0.4-0.4,0.7-0.2c0.3,0.2,1.6,1.2,0.8,2.1c-0.8,0.9-3.1,4-3.1,7s1.6,3.7,2.6,3.7s1.5-0.4,1.6-0.7
		C54,33.2,54.2,33.6,54.2,33.6z M48,22.8c1-1.8,2-3.4,1.5-3.4c-0.6,0-1.8,1.7-1.8,2.5C47.7,22.5,48,22.8,48,22.8z"/>
	<path id="XMLID_38_" fill="#FFFFFF" d="M60.2,24.4C59.9,25,55.8,30,53.6,30c0,0-1.6,0-1.6-2.1c0-3.1,4.1-6.4,5.2-6.4
		c0.4,0,1.2,0.3,1.2,1.9c0,1.6-3.6,4.4-4.5,4.4c0,0-0.6,1.1,0.3,1.1c1.1,0,4.2-2.7,5.7-4.9C60.1,23.7,60.6,23.9,60.2,24.4z
		 M54.2,27.2c2.3-1.4,3.4-3.6,2.8-3.6C56.4,23.6,54.2,27.2,54.2,27.2z"/>
	<path id="XMLID_41_" fill="#FFFFFF" d="M59.8,29.2c0,1-1.1,1-1.1,1c-0.6,0-1.2-0.4-1.2-1c0-0.7,0.5-1,1.1-1
		C59.2,28.2,59.8,28.5,59.8,29.2z M65.8,17.5c0,1-5.1,7.4-5.1,9.3c0,0.4-1.6-0.1-1.6-1.1c0-0.6,5.4-8.7,5.4-9.6
		C64.5,15.6,65.8,16.3,65.8,17.5z"/>
</g>
</svg>
