<?xml version="1.0" encoding="utf-8"?>
<!-- Generator: Adobe Illustrator 19.0.0, SVG Export Plug-In . SVG Version: 6.00 Build 0)  -->
<svg version="1.1" id="Layer_1" xmlns="http://www.w3.org/2000/svg" xmlns:xlink="http://www.w3.org/1999/xlink" x="0px" y="0px"
	 viewBox="-78 64.9 92.1 21.9" style="enable-background:new -78 64.9 92.1 21.9;" xml:space="preserve">
<style type="text/css">
	.st0{fill:#FFFFFF;}
</style>
<g>
	<path class="st0" d="M-64.9,64.9c-3.3,0-5.6,3.1-5.6,3.1s-0.2-0.6-1.5-0.6c-1.7,0-5.9,4.9-5.9,9.4c0,4.5,2.7,5.8,4.8,5.8
		c5.3,0,11.6-8.9,11.6-13.8C-61.7,66.1-63,64.9-64.9,64.9z M-73.1,81.5c-1.5,0-2.4-1.6-2.4-4c0-3.8,4.5-7.3,4.5-7.3s0.4,4.5,4,4.5
		c0.9,0,1.8-0.3,1.8-0.3S-68.4,81.5-73.1,81.5z M-64.4,73.2c0,0-1,0.7-2.4,0.7c-1.4,0-2.2-1.3-2.2-2.9c0-1.1,1.4-3.4,4.2-3.4
		C-61.8,67.6-64.4,73.2-64.4,73.2z"/>
	<path class="st0" d="M-53.5,75.9c-1.5,2.3-4.3,5.2-4.8,5.2c-1.6,0,2.5-5.1,2.5-5.9c0-0.8-0.2-1.8-1-1.8s-4.8,4-4.8,4
		s4.4-6.1,4.4-7.6c0-1.4-1.4-2.2-1.4-1.8c0,1.9-6.7,10.8-6.7,12.6c0,1.1,1.5,1.9,1.5,1.2c0-1.6,5.8-6.8,5.8-6.8s-2.5,3.6-2.5,4.6
		S-60,82-58.8,82c1.6,0,5.4-5.2,5.7-5.7C-52.7,75.7-53.2,75.5-53.5,75.9z"/>
	<path class="st0" d="M-54.8,82c0,1-1.8,3.5-0.9,3.5c0.5,0,2.6-2.1,2.6-2.8C-53.2,82.2-54.8,81.3-54.8,82z"/>
	<path class="st0" d="M-29.7,75.8c-1.5,2.3-4.3,5.2-4.8,5.2c-1.8,0,2-4.3,2.2-5.7c0.1-1.4-0.7-2-1.1-2c-0.4,0-0.3,0.4-0.5,0.8
		c-0.2,0.5-0.5,1.1-0.8,1.6c-0.1,0-0.2,0.1-0.2,0.2c-1.5,2.3-4.3,5.2-4.8,5.2c-1.6,0,2.5-5.1,2.5-5.9c0-0.8-0.2-1.8-1-1.8
		c-0.7,0-4.8,4-4.8,4s4.4-6.1,4.4-7.6c0-1.4-1.4-2.2-1.4-1.8c0,1.9-6.7,10.8-6.7,12.6c0,1.1,1.5,1.9,1.5,1.2c0-1.6,5.8-6.8,5.8-6.8
		s-2.5,3.6-2.5,4.6s0.5,2.5,1.6,2.5c0.9,0,2.6-1.8,4-3.4c-0.2,0.4-0.3,0.7-0.3,1c-0.1,0.9,0.2,2.4,1.5,2.4c1.6,0,5.4-5.2,5.8-5.7
		C-28.9,75.6-29.5,75.4-29.7,75.8z"/>
	<path class="st0" d="M-31.5,72.8c0.3,0,0.2,0,0.8-0.9c0.5-0.9,1.1-1,1.1-1.6s-1.2-1.1-1.6-1.1c-0.4,0-1.2,0.4-1.3,1.7
		C-32.6,72.1-31.9,72.8-31.5,72.8z"/>
	<path class="st0" d="M1.8,85.6c-0.2,0.3-0.7,0.7-1.7,0.7s-2.7-0.7-2.7-3.8c0-3,2.3-6.2,3.1-7.1c0.8-0.9-0.6-1.9-0.9-2.1
		c-0.3-0.2-0.5,0-0.7,0.2c-0.4,0.2-2.7,1.4-2.7,1.4s2.4-3.3,2.4-4.7c0-0.7-0.5-1.1-1.2-1.1c-1.2,0-3.3,1.9-3.3,4.7
		c0,1.5,0.6,2,1,2.1c-1.5,2.3-4.7,5-5.8,5c-0.9,0-0.3-1.2-0.3-1.2c0.9,0,4.6-2.9,4.6-4.5s-0.8-2-1.2-2c-0.6,0-2.2,1-3.4,2.5
		c0,0-0.1,0.1-0.1,0.1c0,0,0,0,0,0.1c-0.3,0.3-0.6,0.7-0.8,1.1c-1.5,2-3.5,4-4,4c-1.6,0,2.5-5.1,2.5-5.9c0-0.8-0.2-1.8-1-1.8
		s-4.8,4-4.8,4s1.9-2.6,3.2-4.8c0.1,0,0.3-0.1,0.2-0.4c0.6-1,1-1.9,1-2.4c0-1.4-1.4-2.2-1.4-1.8c0,0.5-0.4,1.4-1,2.4
		c-0.5-0.3-1.2-0.5-2.1-0.5c-0.2,0-0.3,0-0.5,0c0.4-0.7,0.6-1.3,0.6-1.6c0-1.8-1.7-2.4-1.7-1.9c0,0.6-0.6,1.9-1.5,3.5
		c-0.6,0.1-1.5,0.1-2.6,0.1c-1.2,0-2.1-0.4-2.6-0.8c-0.3-0.3-0.6-0.1-0.4,0.5c0.3,0.7,1,1.5,2.9,1.5c0.7,0,1.3,0,1.9,0
		c-1.9,3.5-4.4,7.6-4.4,8.8c0,0.8,0.2,2,1.5,2c0.8,0,2.2-1.3,3.4-2.7c-0.3,0.5-0.4,1-0.4,1.2c0,1.1,1.5,1.9,1.5,1.2
		c0-1.6,5.8-6.8,5.8-6.8s-2.5,3.6-2.5,4.6s0.5,2.5,1.6,2.5c0.9,0,2.4-1.6,3.7-3.1c-0.1,0.3-0.1,0.6-0.1,0.9c0,2.1,1.7,2.2,1.7,2.2
		c2.2,0,6.4-5.1,6.8-5.7c0.1-0.1,0.1-0.2,0.1-0.3c0.9,0,1.7-0.3,2.1-0.5c-0.8,1.3-2.4,3.9-2.4,6.4c0,3.4,2.5,5,4.3,5
		c1.8,0,2.3-1.2,2.3-1.2S2,85.3,1.8,85.6z M-25.2,81.1c-1.3,0,2.9-6.2,5-10.1c0.3,0,0.7,0,1.1,0c0.6,0,1.2,0.1,1.6,0.3
		c-1,1.7-2.3,3.7-3.4,5.5C-22.4,78.8-24.7,81.1-25.2,81.1z M-7.6,75.4c0.6,0-0.5,2.3-2.9,3.7C-10.5,79.1-8.2,75.4-7.6,75.4z
		 M-4.5,73.7c0-0.9,1.2-2.6,1.8-2.6c0.6,0-0.5,1.7-1.5,3.5C-4.1,74.6-4.5,74.3-4.5,73.7z"/>
	<path class="st0" d="M6.7,80.1c-0.6,0-1.1,0.3-1.1,1c0,0.7,0.6,1,1.2,1c0.1,0,1.1,0,1.1-1C7.9,80.4,7.3,80.1,6.7,80.1z"/>
	<path class="st0" d="M12.7,67.7c0,0.7-3,5.4-4.6,8c-0.1,0-0.1,0.1-0.2,0.2c-1.5,2.3-4.7,5-5.8,5c-0.9,0-0.3-1.2-0.3-1.2
		c0.9,0,4.6-2.9,4.6-4.5s-0.8-2-1.2-2c-1.1,0-5.3,3.4-5.3,6.5c0,2.1,1.7,2.2,1.7,2.2c1.6,0,4.1-2.6,5.6-4.3c0.2,1,1.7,1.4,1.7,1
		c0-1.9,5.2-8.5,5.2-9.5C14.1,68,12.7,67.2,12.7,67.7z M5.1,75.4c0.6,0-0.5,2.3-2.9,3.7C2.2,79.1,4.5,75.4,5.1,75.4z"/>
</g>
</svg>
