<?xml version="1.0" encoding="utf-8"?>
<!-- Generator: Adobe Illustrator 19.0.0, SVG Export Plug-In . SVG Version: 6.00 Build 0)  -->
<svg version="1.1" id="Layer_1" xmlns="http://www.w3.org/2000/svg" xmlns:xlink="http://www.w3.org/1999/xlink" x="0px" y="0px"
	 viewBox="110 37.8 369.5 76.2" style="enable-background:new 110 37.8 369.5 76.2;" xml:space="preserve">
<style type="text/css">
	.st0{fill:#FFFFFF;}
</style>
<g id="XMLID_376_">
	<path id="XMLID_378_" class="st0" d="M143.3,65.1c-5.8,0-10.5,1.7-11.8,1.7c-1.2,0-1.3-6.3-1.3-9.5c0-3,8-9.5,30.4-9.7
		c0.7-2,1.5-4.6,1.2-6.8c-0.2-1.9-2-2.7,0.1-2.9c2.1-0.3,7,2.4,7.4,6.4c0.5,3.9-2.6,8-4.2,11.7c-1.6,3.7,2.9,5.3-0.6,5.8
		c-1.5,0.2-3.5-2.2-4.4-3.4c-18.4,0.1-20.1,1.8-20.1,1.8s25,1.4,25,20.8c0,15.1-16.3,32.6-32.6,32.6c-12.3,0-17.5-13.1-17.5-20.5
		s9.2-19.3,21.9-19.3s14.6,10.5,14.6,12.5s-1.9,3.4-1.9,2.5c0-0.8-2-7.1-14.7-7.1c-12.6,0-17.4,8-17.4,11.3s4.1,11.8,15.9,11.8
		c15.6,0,29-15.1,29-24.4C162.4,70.4,149.1,65.1,143.3,65.1z"/>
	<path id="XMLID_380_" class="st0" d="M187.6,77.2c-6.6,0-21.7,19.3-17.6,19.3c1.4,0,13.1-13,12.5-14s4-0.2,4,4c0,4.2-5.3,10-3.5,10
		s10.2-9.3,15.2-16.9c0.8-1.2,2.5-0.7,1.4,1.2c-1.2,1.8-13.1,18.6-18.2,18.6c-2.3,0-4.6-3.5-4.6-4.9s1-3.5,1-3.5s-7.1,8.4-9.2,8.4
		c-2,0-5.3-2.6-5.3-6.6c0-6.6,13.7-21.6,20.1-21.6C186.6,71.2,188.8,77.2,187.6,77.2z"/>
	<path id="XMLID_382_" class="st0" d="M207.1,76.7c0,5.3-11.9,18.4-8.9,18.4s20.4-19.2,20.4-27.5c0-6.1-5.4-7.6-5.4-7.6
		s-0.2,0.3-1.2,0.3c-1.8,0-2.1-1.7,0.5-1.7c2.5,0,11.9,3.7,11.9,12.5S202,96.2,200.5,97.7c-0.7,0.7-1.5,1.8-3.1,1.8
		c-3.4,0-4.8-4.6-4.8-7.5c0-4.1,8.2-13.9,8.2-20.3C200.8,70.3,207.1,71.5,207.1,76.7z"/>
	<path id="XMLID_384_" class="st0" d="M246.4,80.9c-1.2,1.9-14.8,18.6-22,18.6c0,0-5.4-0.1-5.4-7c0-10.2,13.5-21.2,17.3-21.2
		c1.5,0,4,1,4,6.4c0,5.4-12,14.7-14.9,14.7c0,0-2.1,3.8,0.8,3.8c3.8,0,14-8.8,18.9-16.3C245.9,78.5,247.6,79.1,246.4,80.9z
		 M226.2,90.1c7.7-4.5,11.3-11.9,9.4-11.9C233.7,78.3,226.2,90.1,226.2,90.1z"/>
	<path id="XMLID_387_" class="st0" d="M289.4,68.6c0-1.6-3.6-5-9.8-5c-1.2,0-2.4,0-3.5,0.1c-7,12.6-20.4,32.8-16.2,32.8
		c1.7,0,11-9.3,16.1-16.9c0.8-1.2,2.5-0.7,1.3,1.2c-1.2,1.8-13.9,18.6-19.1,18.6c-4.2,0-4.9-3.8-4.9-6.6c0-3.9,8.1-17.3,14.4-28.7
		c-2,0.1-4.1,0.1-6.3,0.1c-6.3,0-8.6-2.5-9.4-4.8c-0.7-2,0.2-2.4,1.2-1.5c1.6,1.4,4.5,2.7,8.4,2.7c3.4,0,6.4-0.2,8.4-0.5
		c2.8-5.3,4.8-9.7,4.8-11.5c0-1.6,5.5,0.3,5.5,6.1c0,1-0.7,2.8-2,5.3c0.6,0,1.1,0,1.6,0c7.1,0,10.3,3.8,11.1,6.8
		C291.4,68.9,289.4,68.6,289.4,68.6z"/>
	<path id="XMLID_389_" class="st0" d="M283.3,91.4c0-3.3,8.1-15.1,8.1-15.1s-18.7,16.9-18.7,22.2c0,2.2-4.8-0.1-4.8-3.8
		c0-5.7,21.8-34.6,21.8-41c0-1.1,4.4,1.2,4.4,5.9c0,4.8-14.4,24.7-14.4,24.7s13.4-12.9,15.7-12.9c2.3,0,3.1,3.2,3.1,5.9
		c0,2.8-13.6,19.2-8.3,19.2c1.7,0,10.6-9.3,15.6-16.9c0.8-1.2,2.5-0.7,1.3,1.2c-1.2,1.8-13.5,18.6-18.6,18.6
		C284.9,99.5,283.3,94.7,283.3,91.4z"/>
	<path id="XMLID_391_" class="st0" d="M327.6,80.9c-1.2,1.9-14.8,18.6-22,18.6c0,0-5.4-0.1-5.4-7c0-10.2,13.5-21.2,17.3-21.2
		c1.5,0,4,1,4,6.4c0,5.4-12,14.7-14.9,14.7c0,0-2.1,3.8,0.8,3.8c3.8,0,14-8.8,18.9-16.3C327.1,78.5,328.8,79.1,327.6,80.9z
		 M307.4,90.1c7.7-4.5,11.3-11.9,9.4-11.9C315,78.3,307.4,90.1,307.4,90.1z"/>
	<path id="XMLID_394_" class="st0" d="M327.1,101.5c0.7-10.3,16.1-22.3,31.9-24.2c4.1-6.5,4.9-8,5-10.1c0.3-3.7,4.7,1.9,4.4,5.4
		c-0.1,1.3-0.2,1.5-2.4,5c5.5,1.3,7,6.7,6.8,9.2c-0.3,2.9-1.4,1.7-1.3,0.7c0.2-1.9-3.8-4.1-8.8-4.4c-3.8,6-6.7,10.2-7,14
		c-0.3,4.1-4.9-1.3-4.6-4.6c0.3-3.6,2.6-5.8,4.1-8.9c-11,2.8-21.5,11-22.1,19.5c-0.4,4.9,2.1,9.3,9.1,9.3
		c25.6,0,46.6-42.9,47.3-53.1c0.8-10.1-32.9,5.8-33.2,10c-0.1,0.6,0.2,0.8,0.2,1.3c-0.1,1.6-5.1-2.5-5-5.3
		c0.2-2.7,14.8-13.4,29.9-13.4c11.4,0,14.7,7.8,14.4,11.2c-1.4,18.8-27,50.8-53.1,50.8C332.1,114,326.5,107.8,327.1,101.5z"/>
	<path id="XMLID_396_" class="st0" d="M411.9,77.2c-6.6,0-21.7,19.2-17.6,19.2c1.4,0,13.1-13,12.5-14s4-0.2,4,4
		c0,4.2-5.3,10.1-3.5,10.1s10.2-9.3,15.2-16.9c0.8-1.2,2.5-0.7,1.4,1.2c-1.2,1.8-13.1,18.6-18.2,18.6c-2.3,0-4.6-3.5-4.6-4.9
		s1-3.5,1-3.5s-7.1,8.4-9.2,8.4c-2,0-5.3-2.6-5.3-6.6c0-6.6,13.7-21.6,20.1-21.6C410.9,71.2,413.1,77.2,411.9,77.2z"/>
	<path id="XMLID_398_" class="st0" d="M453,68.6c0-1.6-3.6-5-9.8-5c-1.2,0-2.4,0-3.5,0.1c-7,12.6-20.4,32.8-16.2,32.8
		c1.7,0,11-9.3,16.1-16.9c0.8-1.2,2.5-0.7,1.3,1.2c-1.2,1.8-13.9,18.6-19.1,18.6c-4.2,0-4.9-3.8-4.9-6.6c0-3.9,8.1-17.3,14.4-28.7
		c-2,0.1-4.1,0.1-6.3,0.1c-6.3,0-8.6-2.5-9.4-4.8c-0.7-2,0.2-2.4,1.2-1.5c1.6,1.4,4.5,2.7,8.4,2.7c3.4,0,6.4-0.2,8.4-0.5
		c2.8-5.3,4.8-9.7,4.8-11.5c0-1.6,5.5,0.3,5.5,6.1c0,1-0.7,2.8-2,5.3c0.6,0,1.1,0,1.6,0c7.1,0,10.3,3.8,11.1,6.8
		C455,68.9,453,68.6,453,68.6z"/>
	<path id="XMLID_400_" class="st0" d="M461,80.9c-1.2,1.9-14.8,18.6-22,18.6c0,0-5.4-0.1-5.4-7c0-10.2,13.5-21.2,17.3-21.2
		c1.5,0,4,1,4,6.4c0,5.4-12,14.7-14.9,14.7c0,0-2.1,3.8,0.8,3.8c3.8,0,14-8.8,18.9-16.3C460.5,78.5,462.2,79.1,461,80.9z
		 M440.9,90.1c7.7-4.5,11.3-11.9,9.4-11.9C448.4,78.3,440.9,90.1,440.9,90.1z"/>
	<path id="XMLID_403_" class="st0" d="M459.6,96.8c0,3.4-3.5,3.4-3.7,3.4c-1.9,0-3.9-1.2-3.9-3.4c0-2.3,1.8-3.3,3.7-3.3
		C457.4,93.4,459.6,94.4,459.6,96.8z M479.5,57.9c0,3.2-16.9,24.8-16.9,30.9c0,1.4-5.5-0.2-5.5-3.8c0-1.9,18.1-28.8,18.1-31.8
		C475.3,51.6,479.5,54,479.5,57.9z"/>
</g>
</svg>
