<?xml version="1.0" encoding="utf-8"?>
<!-- Generator: Adobe Illustrator 19.0.0, SVG Export Plug-In . SVG Version: 6.00 Build 0)  -->
<svg version="1.1" id="Layer_3" xmlns="http://www.w3.org/2000/svg" xmlns:xlink="http://www.w3.org/1999/xlink" x="0px" y="0px"
	 viewBox="0 0 405.4 384.6" enable-background="new 0 0 405.4 384.6" xml:space="preserve">
<g id="XMLID_82_">
	<path id="XMLID_85_" fill="#FFFFFF" d="M33.1,94.9H33c2.8-1,4.2-3.3,5.4-5.7c0.3-0.7,0.4-1.5,0.8-2.2c4.7-8.2,1.9-16.6-7.3-22.6
		c-4.2-2.6-8.2-5.7-11.9-8.7c-1.7-1.4-3.2-3.6-3.7-5.5c-2.5-8.2-2.6-16.1-1.4-24c0.8-5.5,2.8-10.5,4.7-15.7c1.4-3.3,4.4-4.9,8.3-4
		c2.2,0.6,4.3,1.2,6.2,1.9c3.2,1.2,3.7,1.9,3.1,4.7c-1.7,7.1-3.6,14-5.5,20.9c-0.6,2.5-1.5,5-1.9,7.6c-0.3,1.4-0.4,3.3,2.2,4
		c3.2-6.4,8.5-11.4,10.7-18.4c1.5-4.6,3.5-8.9,3.6-14c0.3-4-1.2-5.8-5.5-7.1L36.1,5c-6-1.7-11.8-3.3-17.7-4.7
		c-1.5-0.4-3.6-0.4-4.7,0.4c-1.5,1.2-2.8,3.2-3.6,5.1c-2.2,4.9-4,10-6.1,15c-2.8,6.7-3.6,13.7-1.8,21.5c0.8,3,1.9,6.2,3.6,9.2
		c2.1,3.7,5.1,6.9,8.6,9.6c2.5,1.8,4.7,3.9,6.8,6c2.4,2.2,3.6,4.7,2.8,7.6c-0.4,1.5-0.3,3.3-0.8,4.7c-1.1,2.6-2.1,5.4-3.9,7.5
		c-1.1,1.2-3.6,1.8-5.7,1.8c-1.8-0.1-1.8-2.5-2.2-3.9L6.4,69.2c-3.3,0.1-6.5,3.6-6.4,7.9s0.6,8.7,1,13.2c0.1,1.5,0.6,3.1,0.8,4.6
		c3.3,0.7,6.1,1.1,8.9,1.8c2.8,0.7,5.5,0.8,8.3,1.4C24.7,99.1,28.4,96,33.1,94.9z M4.9,41L5,40.9l0.1,0.3L4.9,41z"/>
	<path id="XMLID_88_" fill="#FFFFFF" d="M48,80.2c2.2,5.5,7.9,10.4,14.1,12.1c4.3,1.1,7.2,1.4,10.4-0.8c5.2-3.7,9.4-6.6,12.3-11.1
		c2.3,5.5,7.9,10.3,14.1,11.9c4.3,1.1,7.2,1.4,10.4-0.8c5.4-3.9,9.7-6.8,12.6-11.6c1.8-3.2,2.6-8.5,2.6-8.5
		c-2.9,3-9.6,7.3-15.5,12.6c-1.5,1.2-4.6,3.3-6,4.4c-3.3-1.9-6.1-6.2-6.1-9.4c0-2.1,0.1-4.3,1.2-6.1c1.7-2.6,4.2-5,6.5-7.2
		c6.7-6,12.1-12.3,16.1-19.4c0.6-0.8,0.8-1.7,1.1-2.6c0.4-1.5-0.6-2.9-2.5-3.5c-2.5-0.7-4.6-1.7-6.5-2.9c-0.7-0.4-1.7-0.7-2.6-0.8
		c-1.7-0.3-3.3-0.3-4.9-0.6c-3-0.6-5.5,0-7.3,1.9c-0.8,1-1.9,1.9-2.6,3c-1.2,1.9-2.5,4-3.5,6.1c-2.4,5.5-5.3,11.1-6.8,16.8
		c-1.6,5.3-1.6,8.3-1.4,11.1c-3.3,2.6-7.5,5.6-11.5,9.1c-1.5,1.2-4.6,3.3-6,4.4c-3.3-1.9-6.1-6.2-6.1-9.4c0-2.1,0.1-4.3,1.2-6.1
		c1.7-2.6,4.2-5,6.5-7.2c6.7-6,12.1-12.3,16.1-19.4c0.6-0.8,0.8-1.7,1.1-2.6c0.4-1.5-0.6-2.9-2.5-3.5c-2.5-0.7-4.6-1.7-6.5-2.9
		c-0.7-0.4-1.7-0.7-2.6-0.8c-1.7-0.3-3.3-0.3-4.9-0.6c-3-0.6-5.5,0-7.3,1.9c-0.8,1-1.9,1.9-2.6,3c-1.2,1.9-2.5,4-3.5,6.1
		c-2.4,5.5-5.3,11.1-6.8,16.8c-2.1,6.9-1.5,9.8-1.1,13.7C47.6,78.7,47.7,79.5,48,80.2z M107.6,43.1c1.8-1.9,2.1-1.9,5.7-0.8
		c-1.7,4-6.1,9.8-12.5,16.2c-0.3-0.4-0.7-0.8-0.7-1.1C101.2,52.2,103.6,47.4,107.6,43.1z M70.8,43.1c1.8-1.9,2.1-1.9,5.7-0.8
		c-1.7,4-6.1,9.8-12.5,16.2c-0.3-0.4-0.7-0.8-0.7-1.1C64.5,52.2,66.8,47.4,70.8,43.1z"/>
	<path id="XMLID_90_" fill="#FFFFFF" d="M104.1,311.4c6.8-0.5,13.6-1.6,20.3-2.4c1.4-0.2,2.6-1.2,4.9-2.4
		c-7.5-5.1-14.8,0.2-22.5-1.9l2.3-8c0.5-1.7,1-3.3,1.7-4.9c1.6-4.7,3-9.6,5.1-14.2c3.3-7,6.8-13.6,10.3-20.4c2.1-4,4-7.9,6.3-11.5
		c2.1-3.1,2.3-5.9-0.7-8.2c-2.8-2.4-5.9-4.4-8.9-6.3c-3.3-2.3-7.2-2.1-10.7-0.9c-7.2,2.6-13.1,7.2-17.8,13.3c4.5,4,6.1,3.8,8.6-0.7
		c2.3-4.5,5.6-7.5,10.1-9.4c1.7-0.7,3.5-1.4,4.9,0.3c1.2,1.6-0.2,2.8-0.9,4.2c-4,7-8.4,13.8-11.9,21c-3.7,7.5-6.6,15.4-9.8,23.1
		c-0.5,1.2-0.7,2.6-1,4c-1.2,4.9-2.1,9.8-3.5,14.7c-0.9,2.8-0.2,4.7,1.9,6.5C96.1,309.8,99.9,311.7,104.1,311.4z"/>
	<path id="XMLID_91_" fill="#FFFFFF" d="M150.6,258.1c3.7,3.1,7.3,3.5,11.5,0.3c2.6-1.7,4.7-4.5,6.6-7.2c0.7-1,0.7-3.3,0-4.2
		c-1.6-2.3-1-4.2-0.2-6.1c-11.5-7.9-14.3-5.8-20.6,4.9C145.4,250.4,146.8,254.6,150.6,258.1z"/>
	<path id="XMLID_92_" fill="#FFFFFF" d="M145.2,288.5c3.1,2.4,7.2,2.6,10.7,0.7l4.7-2.6c0.7-3,1.2-5.8,1.7-8.7
		c-5.9-1.4-11.5-3.7-18.2-1.9c-0.5,1.4-1.2,2.8-1.6,4.4C141.3,284,142.2,286.2,145.2,288.5z"/>
	<path id="XMLID_95_" fill="#FFFFFF" d="M209.6,276.8c-3.1-3.1-6.6-5.6-11-6.8c-1.7-0.5-3.5-1.2-5.9-2.3l4.5-5.8
		c3-3.8,5.9-7.7,8.7-11.7c1.7-2.4,3.1-5.4,5.1-7.9c2.6-3.3,2.6-4.4,0.2-7.7c-3.7-5.1-8.9-5.8-14.5-5.4c-4.4,0.2-8.7,0.5-13.1,1.2
		c-1.7,0.2-4.2-0.2-5.6,2.4c3.3,1.9,6.3,3.5,10.3,1.9c2.8-1,6.1-1,9.3-1.6c-1.2,6.1-1.7,7-5.2,10.3l-16.2,16.2
		c-1,0.9-1.6,2.3-2.8,3.8c2.3,1.9,4.2,4,6.5,5.6c2.4,1.4,5.2,2.6,8,3.5c2.6,1,5.2,1.6,8,2.4c-1.4,5.9-4.2,10.5-8.4,14.2
		c-4.9,4.5-8.4,10.8-15,13.5c-0.2,0-0.3,0.2-0.5,0.3c-2.4,2.4-2.4,4.7,0.7,6.1c2.6,1.4,5.4,2.4,8.4,3.1c3.1,0.9,6.1,0.9,7.9-3
		c0.3-0.9,1.2-1.6,2.1-2.3c5.6-4.5,9.6-10.3,13.1-16.8c1.6-2.6,3.3-5.2,5.4-7.5C211.7,280.3,212.1,279.1,209.6,276.8z M198.1,247.1
		c0,0.2,0.2,0.2,0.3,0.2c-0.2,0.2-0.2,0.3-0.2,0.3c-0.2,0-0.3,0-0.3-0.2C197.9,247.4,197.9,247.3,198.1,247.1z"/>
	<path id="XMLID_98_" fill="#FFFFFF" d="M253.3,289.7c1-4.7,1.6-9.4,0-14c-0.2-0.9-0.2-1.7-0.2-2.6c0.7-5.2,1.7-10.3,2.1-15.5
		c0.3-4.4,0.5-8.9,0.2-13.5c-0.2-1.6-2.4-2.8-3-4.5c-0.5-1.6,0.5-4-0.2-5.2c-0.9-1.7-2.8-3.1-4.7-3.8c-5.6-2.1-11.4-1-17.1-0.9
		c-0.9,0-1.9,0.9-2.4,1.6c-2.4,3.7-4.7,7.3-7,11c-4.4,7.9-4.4,16.9-7.2,25.2c-0.9,2.8-1,5.8-1.4,8.7c0,7.2,1.9,13.6,5.1,19.7
		c4.9,9.1,12.4,14.2,22.9,14c5.4-0.2,9.4-3.5,10.7-8.9C251.9,297.1,252.6,293.4,253.3,289.7z M247.9,260.5
		c-2.3,12.8-5.4,25.2-8.2,37.7c-0.3,1-1.2,2.1-1.7,3.3c-3.1-0.3-4.4-2.6-5.4-4.7c-4.2-8.9-5.9-17.8-1.9-27.4
		c1.4-3.5,1.9-7.5,2.8-11.2c1.2-5.9,3-9.8,6.1-13.6c2.6,2.1,5.6,3.5,6.8,5.9C247.7,253.6,248.6,257.4,247.9,260.5z"/>
	<path id="XMLID_101_" fill="#FFFFFF" d="M300,242c-0.2-1-0.9-1.5-1.9-1.9c-2.6-0.9-4.9-0.4-6.7,0.9c-3,2.1-5.5,4.8-6.4,8.6
		c-0.4,1.8-1.1,3.5-1.6,5.2l-0.5-0.2c-0.2-1.2-0.4-2.4-0.7-3.6c-0.5-1.9-0.6-3.9-1.8-5.9c-0.4-0.6-0.8-1.3-1-1.9
		c-1.3-3.2-2.4-5.3-5.6-5c-1.3,0.2-1.5,0.3-1.2,1.8c0.5,1.6,1.2,3.3,1.6,5c1.7,6.8,0.7,13.5,0.6,20.2l-0.2,7.4
		c-0.2,4.6-0.2,9.3-0.9,13.8c-0.5,2.7,0,3.4,2.9,4.8c3.6,1.8,6.2,1.9,5.8-3.7c-0.2-2.9,0.3-7.2,1.2-9.6c0.2-0.4,0-0.9,0.1-1.4
		c0.2-1.1,0-2.4,0.9-3.2c0.4,0.2,0.8,0.4,1.2,0.7c3.2,2.3,5.7,1.5,7.3-0.7c2.9-3.9,5.5-7.9,6.6-13c0.9-4.7,1.7-9.3,1.2-14.4
		C300.8,244.7,300.4,243.3,300,242z M294.5,246.8c-0.7,3.9-0.8,8.1-1.8,12c-1.1,4.2-3.2,7.6-5.9,10.7c-0.5,0.6-1.2,1.2-2.2,1.5
		c0-1.1-0.1-2.2,0.1-3.3c0.9-4.9,2-9.7,2.8-14.7c0.5-3.1,2.2-5.6,3.6-8.1c0.6-1.2,1-1.3,3.3-1.5
		C294.4,244.6,294.6,245.7,294.5,246.8z"/>
	<path id="XMLID_102_" fill="#FFFFFF" d="M337.3,242.5c-0.3,0-0.6,0.1-1,0c-1.5-0.3-2.4,0.3-3,2c-0.7,2.3-1.7,4.5-2.4,6.8
		c-1.2,4-2.3,8-3.4,12.1l-0.8,2.7l-1.2-2.2c-0.5-1.3-0.9-2.6-1.5-3.9c-2.9-5.2-4.5-11.2-8-16c-0.5-2.5-2.5-3.4-3.7-5.2
		c-0.2-0.2-0.5-0.4-0.8-0.5c-2.2-1.5-4.3,0-4.3,3.1c0.1,1.7,0,3.5,0,5.2c0,4.2-0.2,8.6,0.1,12.8c0.4,3.9,0.2,7.8,0.2,11.7
		c0,2.8,0.2,5.5,0.2,8.3l-0.5,9.5c0,0.4,0.2,1.1,0.5,1.3c1.3,1,2.6,2,4,2.6c1.3,0.6,2.1-0.1,2.7-1.5c0.8-1.7,0.9-3.5,0.6-5.2
		c-0.8-6-0.3-12-0.2-17.9c0-1.1,0.3-2.2,0.3-3.3c-0.1-2.5-0.3-5.2-0.3-7.7c0-1.9,0.2-3.6,0.4-5.8c0.4,0.4,0.6,0.6,0.7,0.8
		c1.6,3.3,3.2,6.6,4.7,10c1.1,2.2,2,4.4,3.2,6.4c0.6,1,1.7,2,2.7,2.4c1.1,0.4,2.2,0.2,3.4,0.1c0.2,0,0.5-0.5,0.7-0.8l0.7-2.2
		c0.9-3.5,1.9-6.9,2.9-10.4c1-3.1,2.2-6,3.4-9c0.2-0.5,0.4-0.7,0.6-1.1c0.4,1.2,0.4,2.2,0.2,3.2c-0.9,7.7-2,15.5-2.2,23.4
		c-0.1,4.3-0.2,8.7-0.7,13c-0.2,2.2,0.4,3.5,1.7,4.6c1.8,1.6,3.4,0.8,3.6-1.9c0.1-1.3-0.2-2.7-0.2-4.1c0.1-2.5,0.2-5,0.4-7.5
		c0.5-5.6,0.8-11,1.4-16.5c0.3-3.8,0.8-7.5,1.2-11.3c0.2-3.6-0.2-7.1-2-10.3C339,239.8,338.3,240.2,337.3,242.5z"/>
	<path id="XMLID_103_" fill="#FFFFFF" d="M230,100c-4-2.7-7.8,0-7.8,5.6c0.1,3.1,0,6.3,0,9.3c0,7.7-0.4,15.5,0.1,23.2
		c0.7,7.1,0.4,14.1,0.3,21.1c0,5,0.3,9.9,0.3,14.9l-0.8,17.2c0,0.7,0.4,2,1,2.4c2.4,1.8,4.7,3.6,7.3,4.7c2.4,1.1,3.8-0.1,4.9-2.8
		c1.4-3.1,1.7-6.3,1.1-9.5c-1.4-10.9-0.6-21.6-0.4-32.4c0-2,0.6-3.9,0.6-6c-0.1-4.6-0.6-9.3-0.6-14c0-3.3,0.4-6.6,0.7-10.5
		c0.7,0.7,1.1,1.1,1.3,1.5c2.9,6,5.7,12,8.5,18c2,3.9,3.6,8,5.9,11.6c1.1,1.8,3.1,3.6,4.9,4.3c2,0.7,4,0.3,6.1,0.1
		c0.4,0,1-0.8,1.3-1.5l1.3-3.9c1.7-6.3,3.3-12.6,5.3-18.8c1.8-5.6,4-10.9,6.1-16.3c0.3-0.8,0.7-1.3,1.1-2c0.7,2.1,0.7,3.9,0.4,5.7
		c-1.7,14-3.6,28-3.9,42.3c-0.1,7.8-0.3,15.8-1.3,23.4c-0.4,4,0.7,6.3,3.1,8.4c3.2,2.9,6.1,1.5,6.4-3.3c0.1-2.4-0.3-4.9-0.3-7.4
		c0.1-4.6,0.4-9.1,0.7-13.5c0.8-10,1.5-19.9,2.5-29.9c0.6-6.8,1.5-13.5,2.1-20.4c0.4-6.6-0.3-12.8-3.6-18.6
		c-4.6-0.4-5.9,0.3-7.8,4.5c-0.6,0-1.1,0.1-1.8,0c-2.7-0.6-4.3,0.6-5.4,3.6c-1.3,4.2-3.1,8.1-4.3,12.3c-2.2,7.3-4.2,14.5-6.1,21.9
		l-1.5,4.9l-2.1-3.9c-1-2.4-1.7-4.7-2.8-7c-5.2-9.3-8.1-20.2-14.4-28.9c-0.8-4.5-4.6-6.1-6.7-9.5C231.1,100.5,230.5,100.2,230,100z"
		/>
	<path id="XMLID_106_" fill="#FFFFFF" d="M398.6,171.7c-4.9,2.5-9.9,9.8-13,3.9c-2-3.6,1-8,1.1-12c0.4-8.6-10.6-12.8-14.2-5
		c-1.5,3.5-2,7.7-3.6,11.3c-2,4.5-4.3,8.8-6.8,13c-1.4,2.5-3.6,7.4-6.1,8.9c-6.1,3.8-4.9-2-4.3-6.3c0.6-5.4,0.8-10.9,1.5-16.3
		c0.6-6,4.2-10.2-2.9-12.6c-7.4-2.7-8.6-0.6-9.9,5.9c-0.7,4.3-1.6,8.7-1.9,13c-3.8,3.3-7.2,7.1-9.4,10.3c-0.1-0.8-0.3-1.5-0.3-2.1
		c0.3-5.3,1.1-10.6,2.8-15.6c1.8-5.6,1.1-6.7-4.7-7.1c-0.7-0.1-1.4,0-2.1-0.1c-1.7-0.4-2.9,0.3-3.9,1.7c-2.4,3.2-4.9,6.4-7.1,9.9
		c-2.5,4-4.7,8.4-7.3,12.7c-0.4,0.7-1.1,1.3-2.4,2.4v-4c0.3-4.9,1.4-9.3,2.8-14c1.4-4.6,3.1-8.9,5.7-12.8c1.4-2,2.8-2.9,5.2-2.8
		c1.7,0.1,3.3-0.4,5.7-0.7c-0.8-1.4-1.3-2.2-1.8-2.5c-2-0.7-3.9-1.4-6-1.5c-3.1-0.4-6.1,0-9.2-0.4c-2-0.1-3.2,0.6-4.2,2.1
		c-1.1,1.7-2.1,3.6-2.9,5.4c-2.4,5-5,9.6-7.1,18.4c-1.1,6-0.1,15.8,0.3,16.5c2.1,3.5,5.4,4.9,9.1,5.2c4.6,0.4,7.5,0.3,10.2-5.3
		c1.1-2.4,2.5-4.7,4.2-7.5c1.1,2.9,1.7,5.2,2.8,7.3c2.5,5.4,9.5,6.3,13.3,1.7c1.9-3.1,4.1-6,6.6-10.5c1,8.2,5.5,19.1,15.6,16.8
		c8-1.8,12.4-16.5,15.8-22.6c-2.4,14.4-22,75.8,6,73.9c15.6-1,14.6-29.7,15.2-40.5c0.3-7.1-2.1-14-0.8-20.9
		C391.1,184.6,395.8,179.9,398.6,171.7z M386.3,200.1c0,14.4-0.3,32.9-7.1,45.9c-9.8-8.5-4.2-32.1-1.7-42.8
		c0.6-2.5,3.6-21.9,6.1-22.3C387.3,180.3,386.3,197.6,386.3,200.1z"/>
	<path id="XMLID_107_" fill="#FFFFFF" d="M51.4,210.5c-7.5-5.1-14.9,0.2-22.6-1.9l2.3-8.1c0.5-1.8,1.1-3.3,1.8-4.9
		c1.6-4.7,3-9.6,5.1-14.2c3.3-7,6.8-13.7,10.3-20.5c2.1-4,4-7.9,6.3-11.6c2.1-3.2,2.3-6-0.7-8.2c-2.8-2.5-6-4.4-8.9-6.3
		c-3.3-2.3-7.2-2.1-10.7-0.9c-7.2,2.6-13.1,7.2-17.9,13.3c4.6,4,6.1,3.9,8.6-0.7c2.3-4.6,5.6-7.5,10.2-9.5c1.8-0.7,3.5-1.4,4.9,0.4
		c1.2,1.6-0.2,2.8-0.9,4.2c-4,7-8.4,13.8-11.9,21c-3.7,7.5-6.7,15.4-9.8,23.1c-0.5,1.2-0.7,2.6-1.1,4c-1.2,4.9-2.1,9.8-3.5,14.7
		c-0.9,2.8-0.2,4.7,1.9,6.5c3.3,2.8,7.2,4.7,11.4,4.4c6.8-0.5,13.7-1.6,20.3-2.5C47.9,212.8,49.1,211.7,51.4,210.5z"/>
	<path id="XMLID_110_" fill="#FFFFFF" d="M99.9,194.6c1.6-7.4,2.3-15.8-2.6-22.3c-4.9-6.5-12.1-7-19.6-7c1.2-10.7,3.7-18.4,8.9-27.7
		c1.6-2.8,4.9-6.3,2.6-9.3c-2.1-2.8-8.1-4.4-11.2-3.3c-6.7,2.3-10.2,15.1-12.6,21c-3.7,9.1-7,18-9.1,27.7c-3,13.8-4,33.3,11,40.8
		c6.5,3.3,14,2.8,20.7,1.2C95.7,214.2,98.4,201.4,99.9,194.6z M84.5,211.2c-11.4,3.9-11.9-10.2-13.5-17.3c1.2-6.5,1.2-22.1,9.8-24
		c9.6-1.9,12.4,10.3,12.6,17.3C93.4,194.7,93.1,208.4,84.5,211.2z"/>
	<path id="XMLID_113_" fill="#FFFFFF" d="M118.3,153.5c-1.1,2.7-2,5.4-3,8.1c-0.4-0.5-0.5-1-0.5-1.4c0.6-3.1,1.3-6.2,1.8-9.3
		c0.9-5.1,1.6-10.1,1.1-15.4c-0.1-0.3,0-0.6,0.1-0.9c0.7-3,1.4-6,2-9.1c0.7-3.4,1.3-6.9,1.8-10.3c0.1-0.9,0.3-1.8,0.3-2.6
		c0-1.4-0.5-2-1.8-2.2c-1.1-0.2-2.2-0.1-3.3-0.1c-0.3,0.9-0.5,1.7-0.7,2.5c-0.5,2.4-1.1,4.9-1.6,7.3c-0.6,3.1-1.2,6.2-1.7,9.3
		c-1.2,0.2-2.4,0.4-3.6,0.5l0.1-1.1c0.5-4.2,1.1-8.4,1.8-12.6c0.1-0.4,0.1-0.8,0-1.2c-0.1-0.8-0.5-1.5-1.3-1.7
		c-1.6-0.4-3.2-0.7-5.1-0.3c-0.4,1.3-0.9,2.6-1.2,3.9c-0.2,0.6-0.1,1.3-0.3,2c-0.1,0.3-0.1,0.7-0.3,0.9c-0.9,1.3-1.2,2.6-0.9,4.2
		c0.1,0.3,0,0.6-0.1,0.9c-0.2,0.5-0.4,3.2-0.6,6c-0.2,0-0.3,0.1-0.5,0.1c-1.4,0.3-2.8,0.7-4.3,1c-0.9,0.1-3.6-0.1-4.3,0.5
		c-1,0.9,1.1,1.6,1.8,1.7c2.2,0.1,4.6,0,6.9,0h0.3c-0.1,1.2-0.2,2.4-0.4,3.2c-0.6,4.5-0.6,9.2-0.7,12.1c0,2.1,0.1,4.3-0.1,6.4
		c-0.3,2.2,0.2,4.1,1,6c0.3,0.5,1.1,3.4,1.6,3.7c2.5,1.6,5.8-1.8,7.2-4.4c0.3-0.3,0.5-0.7,0.7-1.1c0,1.9,0.1,3.8,0.1,5.8
		c0,1.2,0.5,2.2,1.7,2.5c2.4,0.5,3.7,0.6,4.9-1.9c0.3-0.7,0.7-1.4,0.9-2c0.8-2.8,1.6-5.6,2.4-8.4c0.5-1.8,0.8-3.7,2.2-5.1
		c0.3,2.8,0.5,5.5,0.9,8.1c0.2,1.8,1.2,3,2.8,3.7c2,0.8,4.5,0.6,6.1-1.1c1.2-1.4,2.1-2.9,3.2-6.2c-1.6,0.9-2.8,2.2-4.7,3.7
		c-0.1-0.7-0.3-1.1-0.3-1.4c0.2-2.5-1.2-5-0.3-7.5c0.1-0.3-0.1-0.7,0-1c0-1.5,0.1-3,0.1-4.5c0.1-1.8,0.4-3.4,0.5-5.2
		c0.1-1.5-0.5-2.6-2-2.7c-1.1-0.1-2.2,0.2-3.2,0.3c-1.3,2.8-2.5,5.4-3.7,8.1C120.6,148,119.3,150.8,118.3,153.5z M111.3,144.2
		c-0.9,5.1-0.9,7.4-1.4,10.7c0,1.1,0.1,1.9,0.1,2.5c-1.1,1.1-2.4,2.1-3.6,3.2c-0.3,0.5-0.7,0.8-1.3,1.4c-0.9-1.8-1.3-3.4-1.2-5.1
		c0.1-1.8,0.5-3.7,0.8-5.5c0.1-0.3,0.1-0.7-0.1-1c-0.5-1.5,0.9-7.3,1.8-10.5c0.6-2,1.2-4.1,1.8-6.2c0.1-0.1,0.1-0.1,0.2-0.1
		c1.2-0.2,2.5-0.4,3.8-0.7C111.8,136.6,111.6,140.4,111.3,144.2z"/>
	<path id="XMLID_114_" fill="#FFFFFF" d="M50.8,250.2c-14.2-0.8-24.3,11.8-24.3,20.8s3.4,20.4,14.3,20.4c10.9-0.1,10.8-6.3,9.6-5.6
		c-1.2,0.6-4.6,3-9.6,3.2c-4.9,0.3-12.2-8.6-7.9-20.7c4.3-12.2,8.2-16,18.5-16.3c10.3-0.4,14.8,6.3,14.3,11.4
		c-0.5,5-3.2,12.1-6.9,15.5c0-0.5-0.1-1-0.1-1.3c0.2-3.4,0.7-6.6,1.7-9.7c1.1-3.6,0.7-4.2-3-4.4l-1.3-0.2c-1.1-0.2-1.9,0.3-2.5,1.1
		c-1.5,2-3,4-4.3,6.1c-1.6,2.6-3,5.3-4.5,7.9c-0.3,0.5-0.8,0.8-1.5,1.6c0-1.2-0.1-1.9,0-2.6c0.2-3,0.9-5.7,1.7-8.6
		c0.9-2.9,1.9-5.6,3.6-8.1c0.8-1.1,1.7-1.8,3.2-1.7c1,0.1,2.1-0.3,3.6-0.4c-0.6-0.9-0.8-1.4-1.1-1.6c-1.2-0.4-2.4-0.9-3.7-1
		c-1.9-0.2-3.8,0.1-5.7-0.2c-1.2-0.1-2.1,0.3-2.6,1.3c-0.7,1-1.3,2.3-1.8,3.4c-1.5,3-3.2,6-4.5,11.5c-0.7,3.7-0.1,9.7,0.3,10.2
		c1.3,2.2,3.3,3,5.6,3.2c2.9,0.3,4.6,0.2,6.3-3.3c0.7-1.6,1.6-3,2.6-4.7c0.6,1.8,1,3.2,1.7,4.5c1.6,3.3,6,3.9,8.3,1
		c2.8-4,8-8.1,8.9-17.7C70.5,255.6,65,250.9,50.8,250.2z"/>
	<path id="XMLID_117_" fill="#FFFFFF" d="M156.5,70.4c4.8-1.1,7.5-10,9.5-13.7c-1.4,8.7-13.3,45.8,3.6,44.7c9.4-0.6,8.9-18,9.2-24.5
		c0.2-4.3-1.3-8.4-0.5-12.7c0.3-1.4,1.4-3,2.6-5v1.9c0.1,1.7,0.8,3.3,2.3,4.3c2.2,1.6,4.6,2.4,7.2,2.4c3-0.1,4.3-2.4,5.1-4.6
		c0.5-1.2,0.8-2.4,1.2-3.6c0.1,0.1,0.2,0.1,0.3,0.1c1.9,0.7,2.8,0.1,4.6-1.4c0,0,0,0,0.1-0.1c-0.1,1.1-0.1,2.2-0.2,3.3
		c-0.1,1.8,0.4,3.3,1.8,4.6c4.2,3.8,11.6,1.9,12.9-2.9c0.5-1.7,1.3-3.3,1.9-5c0.3-0.7,0.6-1.3,0.9-1.9c0.6,1.2,0.7,2.4,0.8,3.5
		c0.3,2.4,1.4,3.9,3.7,4.6c2.5,0.8,5,0.8,6.7-1.4c1.3-2.3,2.1-3.5,4-8.9c-1.9,1.6-5.5,5.2-6.7,6.6c-0.2,0.2-0.3,0.3-0.5,0.3l0.2-0.6
		c-0.3-1.8-0.7-3.5-0.8-5.2c0-3.5,0.1-7.1,0.3-10.6c0.1-1.3,0.7-2.5,1.1-3.8l1.1-2.8c-2.4-1.1-4.5-0.2-6.6-0.4
		c-0.5,0.9-1.3,1.9-1.3,2.8c-0.2,2.5-1.3,4.6-2.4,6.8c-2,4.6-3.9,9.2-5.9,13.7c-0.5,1.1-0.9,2.4-2.1,3c-0.7-1.9-0.7-3.5-0.1-5.2
		c0.3-0.8,0.3-1.5,0.4-2.3c0.3-1.9,0.6-4,1-6c1.2-5,2.8-9.9,3.5-14.9c0.1-0.5,0.5-1,0.8-1.5l0.8-1.4c-2.4-1.3-3.2-1.4-6-1.3
		c-3,0.2-3,0.2-4,3.2c-1,3.1-1.9,6.3-2.9,9.4l-2.1,6.8c0,0.8,0,1.4-0.1,2c0,0.8-0.1,1.6-0.2,2.4c-1.5,1-2.5,2-3.6,1.9
		c-0.3,0-0.5-0.2-0.7-0.3l0.9-4c0.8-3.7,2.2-4.7,2.3-7l-1.6-6.8c-2.8-0.4-5.3-0.8-7.9-1.3c-0.3-1.7,0.7-3.1,1.7-4.2
		c1.1-1.1,2.6-1.8,4-2.7c0-0.2-0.1-0.3-0.1-0.5c-2.1-0.4-4.2-0.9-6.2-1.4c-1.9-0.4-3.1,0-3.9,1.6l-0.8,1.3
		c-2.1,4.6-3.7,9.5-4.6,14.7l-0.5,5.4c0,0.5,0.1,1,0.1,1.5v2.6c-2.1,1.6-4.1,3.2-5.4,0.7c-1.2-2.2,0.6-4.8,0.7-7.3
		c0.3-5.2-6.4-7.8-8.6-3c-0.9,2.1-1.2,4.6-2.2,6.8c-1.2,2.7-2.6,5.3-4.1,7.8c-0.8,1.5-2.2,4.5-3.7,5.4c-3.7,2.3-3-1.2-2.6-3.8
		c0.3-3.3,0.5-6.6,0.9-9.9c0.3-3.6,2.5-6.2-1.8-7.6c-4.5-1.6-5.2-0.3-6,3.5c-0.6,3.5-1.3,7.1-1.2,10.5C147.3,64,150,71.9,156.5,70.4
		z M186.8,58.9c0.3-6.6,1.2-13,3.2-19c0.1-0.3,0.4-0.6,0.6-0.9c0.3,0.1,0.4,0.1,0.7,0.1c0,2.2,0.8,3.9,2.1,5.5
		c-0.6,3.9-0.3,7.9,0.3,9.9l0.3,1.1c-0.8,2.7-1.8,5.4-2.9,8c-0.2,0.5-0.5,1-0.9,1.3c-0.4,0.3-1.2,0.8-1.6,0.6
		c-0.5-0.2-1.1-1-1.2-1.6C187,62.2,186.7,60.5,186.8,58.9z M170.7,73.1c0.3-1.5,2.2-13.2,3.7-13.5c2.2-0.3,1.6,10.1,1.6,11.6
		c0,8.7-0.2,19.9-4.3,27.8C165.8,93.9,169.2,79.6,170.7,73.1z"/>
	<path id="XMLID_121_" fill="#FFFFFF" d="M254.1,72.6c0.1,1.9,0.9,3.6,2.5,4.7c2.4,1.8,5.1,2.7,7.9,2.6c3.4-0.1,4.7-2.6,5.7-5.1
		c0.6-1.3,0.9-2.6,1.3-4c0.1,0.1,0.2,0.1,0.3,0.1c2.1,0.7,3.1,0.1,5-1.6c-0.1,0.9-0.1,1.6-0.1,2.2c0.1,3.1,2.9,5.2,6.2,5.1
		c0.6-1,1.2-2,1.7-3c3.2-7.5,7.9-14,12.3-20.7c0.5-0.7,1.2-1.1,2.2-2c0.6,3-0.1,5.1-0.9,7.1l-2.5,5.3c-1.6,2.9-0.9,6-0.3,9.1
		c0.1,0.7,0.7,1.7,1.3,2.1c3.3,2.7,6.4,3.8,9.9,0.7c1.9-2.1,3.5-5.7,3.3-10.7c-2.1,2.8-5.4,6.8-7.8,8.7c-1.9-1.8-1.3-3.4-0.7-4.8
		c1.6-4.4,2-9.1,3-13.6c0.5-2,0.2-3.7-1.1-5.5c-1.2-1.5-2-2.2-3.8-1.9c-1.1,0.3-2.2,0.8-3.1,1.6c-4,3.4-7.5,7.2-10.4,11.4
		c-0.4,0.6-0.9,0.8-1.4,1.3l-0.5-0.4c0.3-1.5,0.7-2.9,0.8-4.4c0.2-1.7-0.3-3.6,0.4-5.1l-0.2-3.6c-0.3-2.1-4.6-2.3-5.1-1.9
		c-0.6,0.6-0.9,3.3-0.8,4.4c-0.1,0.8,0,1.9-0.6,2.3c0,0-0.9,7.2-1.4,12.8c-1.7,1.1-2.7,2.2-3.9,2.1c-0.3,0-0.6-0.2-0.7-0.4l1-4.5
		c0.9-4.1,2.4-5.2,2.5-7.7l-1.8-7.5c-3.1-0.5-5.9-0.9-8.8-1.5c-0.3-1.9,0.7-3.4,1.9-4.7c1.2-1.2,2.9-2,4.4-3c0-0.2-0.1-0.4-0.1-0.6
		c-2.3-0.5-4.7-1-6.9-1.6c-2-0.5-3.4,0-4.3,1.8l-0.8,1.4c-2.3,5.1-4.1,10.5-5,16.2l-0.6,6c0,0.6,0.1,1.1,0.1,1.7V72.6z M260.5,70.1
		c0.3-7.3,1.3-14.3,3.5-20.9c0.1-0.4,0.5-0.7,0.7-1c0.3,0.1,0.5,0.1,0.7,0.1c0,2.4,0.9,4.3,2.3,6.1c-0.7,4.3-0.4,8.7,0.3,10.9
		l0.3,1.2c-0.9,3-2,6-3.2,8.8c-0.2,0.6-0.6,1.1-1,1.5c-0.5,0.4-1.3,0.8-1.8,0.7c-0.6-0.2-1.2-1.1-1.3-1.8
		C260.7,73.7,260.4,71.8,260.5,70.1z"/>
	<path id="XMLID_124_" fill="#FFFFFF" d="M159.2,174.8c2,1.5,4.3,2.3,6.7,2.2c2.8-0.1,4-2.2,4.8-4.3c0.5-1.1,0.8-2.2,1.1-3.4
		c0.1,0.1,0.2,0.1,0.2,0.1c1.8,0.6,2.6,0.1,4.2-1.3c0.1-0.1,0.1-0.1,0.2-0.2c1,0.2,2.3-0.3,3.6-0.6v2.3c0,3.9,0,7.7,0.1,11.7
		c0,2.1,0.1,4.2,0.1,6.3c0,1.6,0.7,2.7,2.3,3.1c1.3,0.2,0.9,0.3,2.5,0.5l0.2-3.3c0.2-2.7,0.2-5.6,0.5-8.3c0.2-2.2,0.9-4.3,1.1-6.5
		c0.2-2.4,0.2-4.9,0.2-7.4c0-1.6,0.7-2.6,2.3-3.2l2.9-1c-1.6-1.5-3.4-0.2-4.8-0.7c0.2-2.2,0.2-8,0.5-10c0-0.4,2.8-3.9,3.5-5
		c2.6-3.7,3.6-6.1,5.1-7.8c2.3-4.5,1.8-5.8,2.7-8.8c0.6-2-1.3-11.3-3.8-11.2c-5.4,0.1-8.8,5.4-9.6,8.8c-1.5,5.6-2.7,11.4-3.6,17.2
		c-0.8,5.5-0.9,11.2-1.3,16.8c-0.2,1.9-0.6,3.3-2.6,3.8c0-0.1,0-0.2,0.1-0.2c-0.4,0.2-0.8,0.4-1.1,0.6c-0.9,0.3-1.9,0.7-2.7,1
		c0.1,0.2,0.1,0.5,0.2,0.7c-0.6,0.4-1.1,0.7-1.7,0.7c-0.2,0-0.5-0.2-0.6-0.3l0.9-3.8c0.8-3.4,2-4.4,2.1-6.5l-1.5-6.3
		c-2.6-0.4-4.9-0.8-7.4-1.3c-0.2-1.6,0.6-2.9,1.6-3.9c1-1,2.4-1.6,3.7-2.5c0-0.2-0.1-0.3-0.1-0.5c-2-0.4-3.9-0.9-5.8-1.3
		c-1.7-0.4-2.9,0-3.6,1.5l-0.7,1.2c-2,4.3-3.4,8.8-4.2,13.6l-0.5,5c0,0.5,0.1,0.9,0.1,1.4v7.4C157.2,172.4,157.9,173.9,159.2,174.8z
		 M187.8,144.1l1.3-9.4c0-0.2,0.1-0.5,0.2-0.6c1.3-4,1.5-8.3,3.1-10.9c0.1-0.8,1.4-2.2,2.9-1.5c1.1,1.5,1.3,2.6,1.3,4.1
		c-0.2,6.6-2.5,13-7,18.5c-0.2,0.6-0.7,1.2-1.1,1.9C187.5,145.5,187.8,144.8,187.8,144.1z M162.5,168.7c0.2-6.1,1.1-12.1,3-17.6
		c0.1-0.3,0.4-0.5,0.5-0.9c0.2,0.1,0.4,0.1,0.6,0.1c0,2,0.8,3.6,2,5.1c-0.5,3.6-0.3,7.4,0.2,9.2l0.2,1c-0.8,2.5-1.6,5-2.7,7.4
		c-0.2,0.5-0.5,0.9-0.9,1.3s-1.1,0.7-1.5,0.5c-0.5-0.2-1-0.9-1.1-1.5C162.6,171.8,162.4,170.2,162.5,168.7z"/>
	<path id="XMLID_128_" fill="#FFFFFF" d="M395.3,93.2c-1,0.8-3,2.2-3.9,2.9c-2.2-1.3-4-4.1-4-6.2c0-1.4,0.1-2.8,0.8-4
		c1.1-1.7,2.7-3.3,4.3-4.7c4.3-3.9,7.9-8.1,10.5-12.7c0.4-0.5,0.5-1.1,0.7-1.7c0.3-1-0.4-1.9-1.6-2.3c-1.6-0.5-3-1.1-4.3-1.9
		c-0.5-0.3-1.1-0.5-1.7-0.5c-1.1-0.2-2.2-0.2-3.2-0.4c-2-0.4-3.6,0-4.8,1.3c-0.5,0.6-1.3,1.3-1.7,2c-0.8,1.3-1.6,2.6-2.3,4
		c-1.5,3.6-3.4,7.2-4.4,11c-1,3.3-1.1,5.3-0.9,7.1c-1.1,0.9-2.2,1.9-3.6,3c-0.2-0.9-0.4-1.5-0.4-1.9c0.3-3.4-1.6-6.7-0.5-10.1
		c0.2-0.5-0.1-0.9,0-1.4c0-2,0.1-4,0.2-6c0.2-2.4,0.5-4.6,0.7-7c0.2-2-0.6-3.4-2.6-3.6c-1.5-0.2-3,0.3-4.3,0.4
		c-1.7,3.7-3.4,7.2-4.9,10.9c-1.6,3.6-3.3,7.3-4.7,11c-1.4,3.6-2.7,7.2-4.1,10.9c-0.5-0.7-0.7-1.4-0.6-1.9c0.8-4.2,1.7-8.3,2.4-12.5
		c1.2-6.8,2.1-13.6,1.4-20.6c-0.1-0.4,0-0.8,0.1-1.3c0.9-4.1,1.9-8.1,2.6-12.1c0.9-4.6,1.7-9.2,2.4-13.9c0.2-1.2,0.4-2.4,0.4-3.5
		c0-1.9-0.6-2.7-2.4-2.9c-1.5-0.3-2.9-0.2-4.4-0.2c-0.4,1.3-0.7,2.3-1,3.4c-0.7,3.3-1.5,6.5-2.1,9.8c-0.8,4.1-1.6,8.3-2.3,12.4
		c-1.6,0.3-3.2,0.6-4.9,0.7l0.2-1.5c0.7-5.6,1.5-11.2,2.4-16.9c0.1-0.5,0.1-1.1,0-1.6c-0.1-1.1-0.6-2-1.7-2.3
		c-2.2-0.5-4.4-0.9-6.8-0.4c-0.5,1.7-1.2,3.4-1.6,5.2c-0.3,0.8-0.2,1.7-0.4,2.6c-0.1,0.5-0.2,0.9-0.4,1.3c-1.2,1.7-1.6,3.5-1.3,5.6
		c0.1,0.4,0,0.8-0.1,1.2c-0.3,0.7-0.5,4.3-0.8,8.1c-0.3,0-0.5,0.1-0.7,0.2c-1.9,0.4-3.8,0.9-5.8,1.4c-1.3,0.2-4.8-0.2-5.8,0.7
		c-1.4,1.3,1.4,2.2,2.4,2.3c3,0.2,6.2,0,9.2,0h0.4c-0.2,1.6-0.3,3.2-0.5,4.4c-0.8,6-0.8,12.3-1,16.2c0,2.8,0.2,5.8-0.1,8.6
		c-0.4,2.9,0.3,5.4,1.4,8c0.4,0.7,1.4,4.5,2.1,5c3.4,2.1,7.8-2.4,9.6-5.9c0.4-0.5,0.7-1,0.9-1.5c0,2.6,0.1,5.2,0.1,7.7
		c0,1.6,0.6,3,2.3,3.4c3.3,0.6,4.9,0.8,6.5-2.5c0.5-0.9,0.9-1.8,1.2-2.7c1.1-3.7,2.1-7.5,3.3-11.2c0.6-2.4,1.1-4.9,3-6.8
		c0.4,3.7,0.6,7.3,1.2,10.9c0.3,2.4,1.5,4.1,3.7,5c2.7,1.1,6.1,0.8,8.2-1.5c0.8-0.9,1.5-1.9,2.2-3.2c0,0.2,0.1,0.3,0.1,0.5
		c1.5,3.6,5.2,6.8,9.2,7.9c2.8,0.7,4.7,0.9,6.8-0.5c3.5-2.5,6.3-4.4,8.2-7.6c1.2-2.1,1.7-5.5,1.7-5.5
		C403.5,86.9,399.2,89.8,395.3,93.2z M394.4,66.5c1.2-1.3,1.4-1.3,3.7-0.5c-1.1,2.6-4,6.4-8.2,10.6c-0.2-0.3-0.5-0.5-0.5-0.7
		C390.2,72.4,391.7,69.3,394.4,66.5z M349.3,69.8c-1.3,6.9-1.3,10-1.8,14.3c0,1.5,0.1,2.5,0.1,3.4c-1.4,1.4-3.2,2.8-4.9,4.3
		c-0.4,0.6-1,1.1-1.7,1.8c-1.2-2.4-1.7-4.6-1.6-6.9c0.2-2.4,0.7-5,1.1-7.4c0.1-0.5,0.1-0.9-0.1-1.4c-0.6-2,1.3-9.8,2.4-14.1
		c0.8-2.7,1.6-5.5,2.4-8.2c0.1-0.1,0.2-0.1,0.3-0.1c1.6-0.3,3.4-0.6,5.1-0.9C349.9,59.7,349.8,64.7,349.3,69.8z"/>
	<path id="XMLID_130_" fill="#FFFFFF" d="M269.7,341.2c-0.3,0-0.4,0-0.5,0c0,0-0.1,0-0.1,0H269.7z"/>
	<path id="XMLID_131_" fill="#FFFFFF" d="M278.8,340.3c0.1,0.1,0.3,0.1,0.4,0.1c0.1,0,0.1-0.1,0.2-0.1H278.8z"/>
	<polygon id="XMLID_132_" fill="#FFFFFF" points="128.9,368.3 129.4,367.9 128.9,367.9 	"/>
	<path id="XMLID_133_" fill="#FFFFFF" d="M278.1,339.8c0.1-0.1,0.2-0.1,0.3-0.2C278.2,339.7,278.1,339.8,278.1,339.8z"/>
	<path id="XMLID_134_" fill="#FFFFFF" d="M103.5,376.6c0-1-2.3,0-2.9-0.4c-0.5-0.3,0.6-0.3,0.6-0.6c-1.1-0.6-2.3,0.6-2.9,0.6
		c0,0.7-1.1,1.1-1.1,1.7c2.3-0.6,4.7-1.3,7.4-1c0-0.7,1.2-0.7,1.7-0.7C104.6,375.6,104.6,376.9,103.5,376.6z"/>
	<path id="XMLID_135_" fill="#FFFFFF" d="M280.1,364l-1.2,0.4c0.9,0,1.9,0,2.7,0.2l-0.4-0.2C280.5,364,280.1,364.4,280.1,364z"/>
	<path id="XMLID_136_" fill="#FFFFFF" d="M118.5,367.9h1.1l-0.6-0.3l1.2-0.4C118.5,367,119,367.9,118.5,367.9z"/>
	<path id="XMLID_137_" fill="#FFFFFF" d="M118.5,367.9h-0.6C118.5,368.3,118.5,368.3,118.5,367.9z"/>
	<polygon id="XMLID_138_" fill="#FFFFFF" points="116.2,367.3 115.6,367.7 116.7,367.3 	"/>
	<path id="XMLID_139_" fill="#FFFFFF" d="M130.6,367c-1.7-0.6-3.6,0.7-5.9,0.7c0,0.6-1.7,0-2.2,0.3c-0.6-0.6-2.3,0-2.3-0.3v0.3
		c0.5,0.7,1.1-0.6,1.7,0c0,0.4-0.6,0.4-0.6,0.7c-1.1-0.4-4,0.6-4.7-0.7c-0.5,0-1.1-0.3-1.1,0l-1.1-0.6c-0.6,0-0.6,1-1.9,0.6
		c-0.5-0.6-2.2,0-3.4-0.6c0,0-1.1,0-1.7-0.4c0-0.3,0.6-0.3,1.1-0.6c-1.1-0.4-2.3-1-4-1l1.2,0.6h-0.6c0.6,0,1.1,0.4,1.1,0.4
		c0,0.4-0.5,0.4-1.1,0.4c-0.5-0.6-1.4-1-1.2-1.4c-0.2,0.1-0.5,0.2-0.5,0.4c1.1,1.1,2.8,2,4.7,3l-0.6,0.6c0.6,0.4,1.7,0,1.7,0.7
		l7-0.4c2.3,0,5.7-0.4,8.1-0.6l-0.6-0.4c1.7-0.7,4,0.6,5.3,0h-0.6c-0.6,0-0.6-0.4-0.6-0.4c-0.6-0.4-1.7,0.4-2.3-0.4
		c1.7,0,3.6-1,4.7-0.6l-0.6-0.4c0.6,0,0.6,0,0.6,0H130.6z"/>
	<path id="XMLID_140_" fill="#FFFFFF" d="M104.1,365c-0.1,0.1-0.1,0.2-0.2,0.3C104,365.2,104.1,365.1,104.1,365z"/>
	<path id="XMLID_141_" fill="#FFFFFF" d="M130,331c0,0-0.6,0-0.6,0.4c0.6,0.3,1.2,0,1.7-0.4H130z"/>
	<path id="XMLID_142_" fill="#FFFFFF" d="M103.5,375.2v0.4h0.6C104.1,375.2,103.5,375,103.5,375.2z"/>
	<path id="XMLID_143_" fill="#FFFFFF" d="M257.6,338.3l0.3-0.1C257.8,338.2,257.7,338.3,257.6,338.3z"/>
	<path id="XMLID_144_" fill="#FFFFFF" d="M259.3,338.9c0,0,0.6,0,0.6-0.3c-0.6,0-0.6,0-0.6,0V338.9z"/>
	<path id="XMLID_145_" fill="#FFFFFF" d="M100.1,362.7c0,0.4,0.5,0.6,1.1,0.6C101.2,363.1,101.2,362.7,100.1,362.7z"/>
	<path id="XMLID_146_" fill="#FFFFFF" d="M134.1,367.3c0.6,0,0.6-0.6,1.1-0.4l-0.5-0.6h-0.6c0.6,2-2.3,0-3.4,1
		c1.1-0.4,2.3,0,3.4,0.4c-1.1,0.3-1.7,0-2.9,0.3l0.6,0.4c0,0,0,0,0-0.4l0.6,0.4c0-0.4,1.1,0.4,1.7,0c-0.6,0-0.6,0-0.6-0.4
		c1.2,0.4,1.7-0.3,2.9-0.6C135.1,367.7,134.7,367.3,134.1,367.3z"/>
	<path id="XMLID_147_" fill="#FFFFFF" d="M116.2,371.3l0.5-0.4h-0.5C116.2,371,116.2,371,116.2,371.3z"/>
	<path id="XMLID_148_" fill="#FFFFFF" d="M107.5,371.3c-1.2,0-1.7-0.4-2.3,0c-1.1,0-2.9,0.3-3.4-0.7c-1.2,0.7-2.3,0.7-2.9,1.3
		c0,0.7,1.7,1,1.7,1.7c1.2-0.4,2.3-0.7,2.9-1.7c4-0.4,7,0,10.4-0.4c0.6-0.3,1.7,0.4,1.7-0.3l-1.7-0.4
		C112.2,370.6,109.8,371.3,107.5,371.3z"/>
	<polygon id="XMLID_149_" fill="#FFFFFF" points="104.1,375.2 104.1,375.6 104.6,375.6 	"/>
	<path id="XMLID_150_" fill="#FFFFFF" d="M281.6,364.6l0.8,0.4c0,0,0,0,0,0C282.2,364.8,281.9,364.7,281.6,364.6z"/>
	<path id="XMLID_151_" fill="#FFFFFF" d="M173.3,366c-1.2,0-2.3,0.4-3.4,0.4c0,0.4,0.5,0,0.5,0.4l-0.5,0.3h4
		C173.9,367,172.7,366.4,173.3,366z"/>
	<polygon id="XMLID_152_" fill="#FFFFFF" points="172.1,365.4 172.7,365.6 172.7,365.4 	"/>
	<path id="XMLID_153_" fill="#FFFFFF" d="M130,334.3c0-0.4,0-0.4,0-0.6c-0.6,0.3-0.6,0.3-1.1,0.3C129.4,334.7,129.4,334.3,130,334.3
		z"/>
	<path id="XMLID_154_" fill="#FFFFFF" d="M167.6,366.7l1.1-0.4C168,366,168,366.4,167.6,366.7z"/>
	<polygon id="XMLID_155_" fill="#FFFFFF" points="165.7,366.7 167,367 166.3,366.7 	"/>
	<path id="XMLID_156_" fill="#FFFFFF" d="M164,366.4h0.6C164.6,366.4,164,366,164,366.4z"/>
	<polygon id="XMLID_157_" fill="#FFFFFF" points="182,367 184.2,367 182.5,366.7 	"/>
	<path id="XMLID_158_" fill="#FFFFFF" d="M183.1,366.4c0.6,0,1.1,0,1.1-0.4l-0.5-0.4C183.1,365.4,184.2,366,183.1,366.4z"/>
	<path id="XMLID_159_" fill="#FFFFFF" d="M178.4,367l0.6-0.6h-0.6C178,366.4,178.4,366.7,178.4,367z"/>
	<rect id="XMLID_160_" x="186.5" y="367.7" fill="#FFFFFF" width="0.6" height="0.3"/>
	<path id="XMLID_161_" fill="#FFFFFF" d="M186,366l-1.2,0.4C185.4,366.4,186,366.4,186,366z"/>
	<path id="XMLID_162_" fill="#FFFFFF" d="M186.5,366.7c0,0.3,0,0.6,0.6,0.6V367C186.5,367,186.5,366.7,186.5,366.7z"/>
	<polygon id="XMLID_163_" fill="#FFFFFF" points="162.9,367 164,367.3 162.9,366.7 	"/>
	<path id="XMLID_164_" fill="#FFFFFF" d="M149.6,367.3c0.6,0,0.6,0,0.6,0.4c0,0,0.6-0.4,0.6,0l0.6-0.4h-1.2
		C150.2,367.3,150.2,367.3,149.6,367.3z"/>
	<polygon id="XMLID_165_" fill="#FFFFFF" points="143.2,367.3 143.2,367 142.1,367.3 	"/>
	<path id="XMLID_166_" fill="#FFFFFF" d="M145.5,367h-0.5c0,0.4,0,0.4-0.6,0.4c0,0,0-0.4-0.6-0.4c0,0.4,0,0.4,0,0.7
		c0.6,0.3,2.3,0.3,3.4,0c-0.5,0-1.1,0-1.7-0.4V367z"/>
	<path id="XMLID_167_" fill="#FFFFFF" d="M147.9,367l0.6,0.4c0-0.4,0.6-0.4,1.1-0.4C149.1,366.7,148.5,367,147.9,367z"/>
	<path id="XMLID_168_" fill="#FFFFFF" d="M147.2,367h-1.1C146.8,367,147.2,367.3,147.2,367z"/>
	<path id="XMLID_169_" fill="#FFFFFF" d="M139.8,367c1.7,0,2.9-0.3,4-0.3c-1.7-0.4-4,0-5.7,0.3c0.6,0,1.1,0,1.1,0.4
		c-0.5,0-1.1,0.4-1.7,0c0,0.4-0.5,0.6-0.5,1c0.5,0,0.5-0.4,1.1-0.4c0.6,0,0-0.3,0.6-0.3c0.3,0.2,0.9,0,1.4-0.2
		C139.9,367.5,139.8,367.4,139.8,367z"/>
	<path id="XMLID_170_" fill="#FFFFFF" d="M141,367.3c-0.2,0-0.6,0.1-0.9,0.2C140.4,367.5,140.7,367.3,141,367.3z"/>
	<path id="XMLID_171_" fill="#FFFFFF" d="M155.9,366c-0.5,0-1.7-0.4-2.3,0.4C154.2,365.6,155.9,366.4,155.9,366z"/>
	<path id="XMLID_172_" fill="#FFFFFF" d="M157.6,366c-1.7,1,1.9,1,1.2,0.7C158.3,366.7,157.6,366.4,157.6,366z"/>
	<path id="XMLID_173_" fill="#FFFFFF" d="M161.2,367.3h1.1c0-0.4,0-0.4,0-0.6c0,0,0.6,0,0.6-0.4
		C161.7,366.7,161.2,366.4,161.2,367.3z"/>
	<path id="XMLID_174_" fill="#FFFFFF" d="M139.8,369h1.2C140.4,369,139.8,368.7,139.8,369z"/>
	<path id="XMLID_175_" fill="#FFFFFF" d="M151.4,367c0,0.7,1.1,0.4,1.7,0.7l-0.6-0.7c0.6,0,0.6,0,1.1,0l0.6,0.4v-0.2V367
		C153.1,366.7,152.5,366.4,151.4,367z"/>
	<path id="XMLID_176_" fill="#FFFFFF" d="M154.2,367l0.6-0.3c0.6,0.3,0.6,0.6,0.6,0.6c0.5,0,0.5-0.4,1.1-0.6
		C155.9,366.7,154.8,366.4,154.2,367z"/>
	<path id="XMLID_177_" fill="#FFFFFF" d="M179.7,365.6c0.5,0.4,0.5,1.1,1.1,1.1c0.6-0.4,0.6-0.4,0.6-0.4c-0.6,0-0.6,0-0.6-0.4
		l0.6-0.4C180.8,366,180.1,365,179.7,365.6z"/>
	<path id="XMLID_178_" fill="#FFFFFF" d="M232.7,336.3c-0.6,0-1.2-0.3-1.2,0C231.5,336.6,232.1,336.3,232.7,336.3z"/>
	<path id="XMLID_179_" fill="#FFFFFF" d="M224.1,337l-1.1-0.7c-0.6,0.4,0.5,0.4,0,0.7H224.1z"/>
	<polygon id="XMLID_180_" fill="#FFFFFF" points="221.7,337 222.4,337 221.7,336.6 	"/>
	<path id="XMLID_181_" fill="#FFFFFF" d="M224.1,335.3c-0.6,0.4-1.1,0.4-1.7,0.7c0.6,0,1.1,0,1.7,0.6c0.6-0.6-0.6-0.6-0.6-0.6
		C223.4,335,225.1,336,224.1,335.3z"/>
	<path id="XMLID_184_" fill="#FFFFFF" d="M227,338.7c0.5,0,0.5-0.7,1.1-0.7c0.6,0.7,2.3-0.4,2.3,0.7h1.1c0.6-1.1-1.1-0.4-1.7-1.1
		l0.6-0.3c-0.6-0.4-2.3-0.4-3.4-0.4c0.5,0.6-0.6,0.4-0.6,0.6c-2.3-0.6-5.3,0-7.4-0.6c0.5,0,1.1,0,1.1,0c-0.6-0.7-1.7,0.6-2.3-0.4
		c-1.1,0.4-2.3,1-4,0.4c-1.7,0-2.8-0.4-4-0.4c0.6,0.4,1.7,0.7,1.7,1.3c0.6,0,1.7,0.4,2.3,0.4V338c0,0,0-0.4,0.6-0.4v1.1
		c0.6-0.4,0.6,0.3,0.6,0.3c0.5-0.6,1.7-1,2.8-0.6c0.6,0.4,2.3,0.4,1.7-0.4c1.2,0,2.9-0.4,4.7,0c0.6,1,1.7-0.4,2.3,0.4V338
		c0.6,0,0.6,0,1.1,0.4H227V338.7z M229.2,337.3h0.6c0,0.3-0.6,0.3-0.6,0.3V337.3c-0.5,0-1.1,0.6-1.7,0
		C228.1,337.3,228.7,337.3,229.2,337.3z"/>
	<path id="XMLID_185_" fill="#FFFFFF" d="M227,362.7c-0.6,0-1.2,0-1.9,0C225.8,362.7,226.4,363.1,227,362.7z"/>
	<path id="XMLID_186_" fill="#FFFFFF" d="M220,339.3l1.1-0.4l-0.5-0.3C220.6,338.9,220,338.9,220,339.3z"/>
	<path id="XMLID_187_" fill="#FFFFFF" d="M195.8,335c0,0,0,0.3,0.6,0.3c0,0,0,0,0-0.3H195.8z"/>
	<path id="XMLID_188_" fill="#FFFFFF" d="M209,337l-0.4,0.1C208.7,337.1,208.9,337.1,209,337z"/>
	<path id="XMLID_189_" fill="#FFFFFF" d="M193.1,337.8l0.4,0.1C193.5,338,193.3,337.8,193.1,337.8z"/>
	<path id="XMLID_190_" fill="#FFFFFF" d="M187.1,335h-0.6c0,0-0.5,0-0.5,0.3h0.5L187.1,335z"/>
	<path id="XMLID_191_" fill="#FFFFFF" d="M263.3,346.8v0.4h0.6C263.9,346.8,263.9,346.8,263.3,346.8z"/>
	<path id="XMLID_192_" fill="#FFFFFF" d="M254,337.6c-0.5,0.4-2.2-0.3-2.8,0c1.1,0.4,2.3,0.4,3.4,0.4C254,338,254,337.6,254,337.6z"
		/>
	<path id="XMLID_193_" fill="#FFFFFF" d="M199.9,337.3c0-0.4-0.6-0.4-0.6-0.4l0.6,0.6V337.3z"/>
	<path id="XMLID_194_" fill="#FFFFFF" d="M270.8,365.6v-0.3c-0.7,0-1.3,0.2-2,0.4c0.7,0,1.5,0,2.6,0.2c0,0.4,0,1,1.1,0.7
		c0-0.4,0-0.4,0.6-0.7C272,365.6,270.8,366,270.8,365.6z"/>
	<path id="XMLID_195_" fill="#FFFFFF" d="M257,338.3c0,0,0.6,0.6,0.6,0.4L257,338c-0.6,0.4-0.6,1-1.7,0.7c-0.6-0.7-2.3,0.3-3.4-0.4
		c0,0-0.6,0.4-0.6,0c-0.6,0.4-2.9-0.4-2.3,1h0.6v-0.4c0-0.3,0.5,0,0.5,0c0-0.6,1.9-0.3,2.9,0c-1.1,0.4-2.3,0-2.9,0.7
		c1.2-1,4,0,5.3,0l0.6,0.3C255.3,339.3,256.3,338.7,257,338.3z"/>
	<path id="XMLID_196_" fill="#FFFFFF" d="M245.5,338.9c0.5,0,2.2,0,2.2,0.7h0.6c-0.6-0.4-0.6-0.7-0.6-1c-0.5,0.3-1.1,0.3-1.7,0v-0.4
		c-0.5,0-0.5,0.4-0.5,0v0.4c-0.6,0.6-1.9,0-2.3-0.4v0.4C243.6,338.9,244.2,339.3,245.5,338.9z"/>
	<path id="XMLID_197_" fill="#FFFFFF" d="M245.5,338l-1.9,0.4h1.9C245.5,338.3,244.9,338.3,245.5,338z"/>
	<path id="XMLID_198_" fill="#FFFFFF" d="M269.7,339.6c0.5,0,0.5,0.6,0.5,0.6v-0.4C270.1,339.6,269.7,339.3,269.7,339.6z"/>
	<path id="XMLID_199_" fill="#FFFFFF" d="M232.7,354.5l-0.6,0.4C232.7,355.1,232.7,354.5,232.7,354.5z"/>
	<path id="XMLID_200_" fill="#FFFFFF" d="M242.5,338.3h-0.6l0.6,0.6c0,0,0-1,0.6-0.6l0.5-0.7C241.9,337.3,243.1,338,242.5,338.3z"/>
	<path id="XMLID_201_" fill="#FFFFFF" d="M243.1,337l-0.6,0.4C242.5,337.3,243.1,337.3,243.1,337z"/>
	<path id="XMLID_202_" fill="#FFFFFF" d="M108.1,343.3c0.5,0.3,1.1,0,1.7-0.4C109.2,342.9,108.6,342.6,108.1,343.3z"/>
	<path id="XMLID_205_" fill="#FFFFFF" d="M274.8,365.4c0,0.6,0.6-0.4,1.2,0v0.3c0.5-0.3,1.7-0.3,1.7-1c0.6,0.4,0.6,0,1.1,0.4h0.6
		c-0.6-0.4-1.1-0.4-1.7-0.6c0-0.7,0.6,0.3,0.6-0.4c-0.6,0-1.2,0-1.2,0l-0.6,0.4c-1.1,0-2.2,0-2.8-0.4c0.6-0.4,0.6-0.4,1.1-0.4
		c-0.5,0-1.1,0-1.1-0.4l-1.2,0.4c-1.1-0.4-2.8-0.4-3.4-1.3c0.6-0.3,1.1-0.3,2.3,0l-1.2-0.6l-0.5,0.4c-0.2-0.1-0.5-0.2-0.8-0.3
		c0.1,0,0.2,0.1,0.2,0.3l-0.6,0.3l0.6,0.4h-0.6c0-0.6-0.5-0.6-1.1-0.6c0.5,0,1.1-0.4,1.5-0.3c-0.5-0.1-1.1-0.3-1.5-0.8
		c1.1-0.3,2.8,0.7,3.4,0.4c0-0.6-1.1,0.4-1.7-0.4v-0.3h-0.6c-0.5,0.3-1.1-0.4-2.3-0.4c-1.1-0.7-2.2,0-3.4-0.7c0,0.4,0,0.7,0,0.7
		c-0.6-1-1.7,0-1.7-0.7c-0.6,0-1.7,0.7-1.7,0.4v0.4c-0.6,0.4-1.7,0-2.3,0c0.6-0.4,0-0.4-0.6-0.7h1.2c-0.6,0-1.7-0.6-2.9-0.3
		c0.6,0.3,1.7-0.4,1.7,0.6c-0.5,0-1.7,1-1.7,0c-1.1,0.7-1.1-0.6-1.7,0c0-0.4-0.6-0.4-0.6-0.6c0.6-0.4,1.2,0,1.2,0v-0.7
		c1.7-0.3,4,0,5.1-0.3c-2.8,0-5.7,0-7.4,1c-0.6,0.3-1.2,0.3-1.7,0.3c0.5-0.3,1.1-0.6,1.7-0.3c-1.2-0.7-2.3-0.4-3.6-0.7v-0.3h-1.7
		c-0.5,0-0.5-0.7-0.5-1.1h1.7c0.5-0.3,2.3,0.4,3.4,0.4c0.6,0,1.2-0.6,1.7-0.4c0.6-0.3,2.9,0.4,4,0c0-1.2,1.7,0.4,3.6,0
		c-0.6-0.3-0.6-0.3-0.6-0.6c0.6-0.4,0.6-0.4,1.1,0c0-0.4,0-0.4,0-0.4c-0.5,0-1.7,0-1.7-0.3c-1.1,0.3-2.8,0.3-3.4-0.4v-0.4
		c0.6,0.4,0-0.4,0.6-0.4c0,0,0.5-0.3,0.5,0c0,0.4,0,0.4,0,0.4c0.6,0.4,1.7-0.4,1.7,0.4v-0.4h2.3c1.2,0,1.2,1,1.2,1.3h0.5l-0.5-0.6
		h1.7c0,0-1.2-0.4-0.6-0.7c1.2-0.6,1.7,0,2.3,0c0,0,0,0.2,0,0.4h0.6c1.1-0.4,2.3-0.4,3.4,0l0.6-0.4c0.5,0.4,0.5,0.7,0.5,0.7l1.9,0.3
		c0-1-1.2-0.3-1.9-0.6c0-0.7,1.9-0.7,2.3-0.4c-0.5,0.4,0.6,0.7,1.2,0.7l-0.6-0.4c0.6-0.7,1.7-1,1.7-1.7l-2.8-0.3c0,0,0-0.4,0.5-0.4
		c0,0.4,1.9,0,2.3,0.6c0.6,0.7,1.2-0.6,1.7,0c1.2,0,2.3,0,2.9,0.4c0,0.4,0,0.4,0,0.6c0-0.6,1.1,0,1.1-0.3v-0.4
		c0.6-0.4,1.2,0.6,1.2-0.4c0.6,0.4,0.6,0,1.1,0.4l-0.5,0.4c0.5,0,1.1,0.6,1.1,0.3l-0.6-0.3c1.2-0.7,1.2,0.3,2.3,0.3
		c0-0.6-2.3-0.6-1.1-1.2c0.5,0,1.1,0.3,1.7,0l-2.3-0.4c0,0.4,0.6,0.6,0,0.6l-0.6-0.3c-1.7,0.3-1.7-0.4-3.4-0.4v-0.4
		c1.1,0,2.9,0,4-0.4c-1.1-0.6-2.3,0.7-3.4,0c2.8-2.3,4.5,1.7,7.4-0.3c-0.6,0-0.6-0.4-1.1-0.4h1.1c0-1-1.7,0-1.7-0.6
		c-0.6-0.4-1.2,0-1.2-0.4c-1.7,0.4-1.1-0.7-1.7-1c0-0.4,0.4-0.3,0.9-0.4c-0.3,0-0.3-0.1-0.3-0.4c0-0.3-0.6,0-0.6-0.3l-0.5,0.3
		c0,0,0.5,0,0.5,0.4l-0.5,0.4c-0.6-0.4-1.9-0.4-2.3-1c0,0.3,0,0.3,0,0.6c-0.6-0.4-0.6-0.6-0.6-1h2.3l-2.3-0.4c0,0.4,0,0.4-0.6,0.7
		c0-1.1-1.1,0.3-1.1-0.7h-0.6c0,0,0,0.4-0.6,0.4l-0.5,0.6c0-0.6-1.2,0-1.7-0.3c0.5,0,0.5,0,0.5,0c0-0.4,0-0.4,0-0.4h1.7
		c0-1.3-2.2-0.4-2.8-1c0,0.3,0,0.3-0.6,0.3c-0.6-0.3-1.1,0.4-1.1,0.7c0,0-0.6,0-1.2,0c0,0,0-0.1,0-0.1l-1.1,0.5v-0.4h-0.6
		c0.6-1.3-1.1-0.4-2.3-1c0-0.2-0.2-0.4-0.5-0.5c0.4,0.3,0.3,1-0.2,1.5c-1.1,0-0.5-1-1.7-1l0.6,0.3c-0.6,0-2.3,0.4-2.9-0.3l-0.5-0.7
		l1.1-0.4c-0.6,0-1.7,0-1.7-0.6l-0.6,0.6c-0.5,0-0.5-0.3-1.1-0.6c-0.6,0,0,0.6-0.6,0.6c-0.6-0.3-0.6-0.3-0.6-0.3l-0.5,0.3l-0.6-0.3
		h-0.6c-0.3,0.2-1.1,0.2-1.7,0l-0.6,0.3c0,0,0,0-0.5,0c0-0.3-0.6,0-1.2,0c-0.5-0.3,0-0.3,0-0.6h-1.1c1.1,0.4-0.6,1,0,1.3
		c-0.6,0,0-0.7-0.6-0.7c-1.1,0.4-1.1,0-1.7,0.4c-0.6-0.4-1.7,0-1.2-0.6c-1.1,0-1.7,0-1.7-0.4h1.7c-1.1-0.4-2.2-0.6-3.4-0.4
		c-0.6,0.4-1.1,0.4-1.1,0.4c-0.6-1.3-2.9-0.6-2.9-0.6l-0.6,0.3c-0.5-0.6-1.1-0.3-1.7,0c0.6,0,0.6,0,0.6,0.4c0,0.4-0.6,0-1.1,0
		c-0.6,0-1.2-0.4-1.9-0.4c0-0.3,0.6-0.3,0.6-0.3l-2.3-0.4c-0.5-0.4-0.5,0-0.5,0.4c-0.6-0.4-1.2,0-1.2-0.4c0,0,0,0,0-0.4
		c0,0-0.6,0-0.6,0.4c-1.1,0-1.7,0-2.3-0.4l0.6-0.4c-1.7-0.3-2.3,1.3-3.4,1.1c-0.6,0.3-1.2,0.6-1.2,1.2c-0.5-0.3-0.5,0-1.1-0.3
		c0.6-0.4,0-0.4,0.6-0.7c-1.2-0.3-2.3-1.6-3.6-1l1.2,0.4c-0.6,0.4-2.3,0.4-2.9,1h0.6c0,0.4,0,0.4,0,0.4c-1.7,0-3.4,0.3-4-0.7
		c0.6,0.4,1.7,0.4,1.7,0c0-0.3-1.1-0.3-0.6-0.6c-1.1,0-2.2,0-3.4,0v-0.4h-2.3l2.3-0.4c-1.7,0.4-2.8-0.6-4,0.4c-0.6,0-1.1,0-1.7,0
		h-1.7c-1.7,0.7-4-1-4,0.7c-0.6,0-0.6-0.4-1.2-0.4c0-0.4,0-1,1.2-1c-1.7,0-4,0-5.7-0.4l-0.6,0.4c-0.6-0.7-2.3,0-2.9-1h0.6
		c-0.6-0.4-0.6-0.7-1.1-0.7c0,0.7-1.2,0.4-0.6,0.7c0,0.6-0.6,0-1.2,0c0-0.4,0-0.7,0.6-0.7c-0.6-0.4-1.1,0.4-1.7-0.4
		c-0.6,0.4,1.1,1.3,0.6,1.7c-1.2,0-2.3,1-3.6,0.4c-1.7,0.3-4-0.7-5.7-0.7l-1.1,0.4c-0.6,0.4-1.2-0.4-1.7-0.4c0-0.3,1.1-0.3,1.7-0.3
		c0-0.4,0-0.7,0.5-0.7c-0.5,0-1.7-0.4-2.2,0c-0.6-0.4-2.9-0.4-2.9-0.6v0.3c0.6,0,0.6,0,0.6,0.4v0.2v0.2c0,0.4-0.6,0.4-0.6,0.4
		c-1.1-0.4-2.3,0.3-2.3-0.4l-0.6,0.4c-1.7-0.4-4,1-4-0.7c-1.1,0.7-1.1-0.4-2.8,0l0.5,0.4c0.6,0.4,0.6,0,1.2,0l0.6,0.4
		c-2.3,0.6-4.7,0.6-7.6,0.3c0-0.3,0-0.3,0.6-0.3c-1.7-0.4-2.9-1.1-4,0c0.6-0.4,0.6,0,0.6,0.3c-0.6,0-1.2,0-2.3-0.3
		c0,0,0,0.3-0.6,0.3c0-0.3,0,0-0.6-0.3c0,1-1.1,0-1.1,0.3c-0.6,0-1.7,0.7-1.7,0c-0.6,0.4-1.2,0-1.2,0.4c-1.7-0.4-2.3,0-4.5,0
		c-0.6,0.4-1.9-0.4-2.3,0.4c0-0.7-1.2,0-1.2,0c-1.1,0-1.7,0.3-2.3-0.4l-0.5,0.4c0,0.3-1.2,1-1.7,0.6l0.5-0.6c0,0-1.7-0.4-1.7,0
		c-0.6,0.6,0.6,0.3,0.6,0.6c-2.3,0.4-5.3,0.7-8.1,0.4l0.6-0.4h-0.6c-0.6,0-1.2,0.4-1.7,0l1.1-0.4c-2.3,0-4.7,0-5.7,1.1
		c-1.2,0-2.3,0.3-2.3-0.7c1.1,0,1.1-1,1.1-1.6c-0.5-0.4-2.2,0-1.7-1.1l-1.7,0.4l0.6,0.4c0.6,0.6,0,0.6-0.6,1l0.6,0.4
		c-1.2,1-1.2-0.7-2.3,0.3c-0.6,0-1.1-0.3-1.1-0.3c0-0.4-0.6-0.7,0-0.7h-0.6c-0.6,0.4,0,0.7-0.6,1c0,0-0.6,0-0.6-0.3
		c0,0,0.6,0,0.6-0.4c-0.6,0-1.1,0.4-1.7,0.6c0.6,0,0.6,0,0.6,0v0.4c-0.6,0.4,0.5,1.3-0.6,2c0.6,0.4-0.6,1.7,0.6,1.7
		c-1.7,1-2.9,0.4-4.7,0.7c-1.2,0-3.4,0.6-3.4-0.7c-1.2,1.3-4,0.7-5.9,1.3c1.2,0,0.6,0.6,0.6,1c0.6,0.4,1.2,0.7,1.7,1
		c0.6,1-1.7,2,0.6,2.3c-1.1,1.3,1.7,2.3,1.1,3.3c1.2,0,0.6,1.1,1.9,0.7c0,1,1.7,0,1.7,1c2.8,0,5.7-1,8.7-0.4l-0.6-0.3h1.7
		c0-0.4,0.6,0,0.6,0c1.1,0.3,1.1,0,1.7-0.4v0.4c0.6,0.3,1.1,0,1.7,0c0,0-0.6,0-0.6-0.4c0.6,0,1.2,0,1.7,0.4h-0.5l0.5,0.6
		c-1.7,0.4-3.4,0.4-5.1,0.4c-4,0.3-8.7-0.4-12.7,0.6c-1.1,1,0,2.3-0.6,3l1.2,0.6l-1.7,0.4l1.7,0.4l0.6-0.4c2.8,1.6,6.4,2,9.2,2.3
		c2.9-0.4,5.3,0.4,7.4-0.4c5.3,1,11.6-0.4,16.3-0.6c1.7,0,3.4-0.4,4.5-0.4c0.6,1,1.7-0.6,2.3,0c2.3-0.6,4.7,0,7-1v0.4
		c1.7,0.3,2.3-0.4,4,0.3c0.6-0.6,1.7-0.3,2.3,0c0.5-0.3,1.1-0.6,1.7-0.3c1.7,0,2.8,0,4.7-0.7c0,0.4,0.5,0.7,1.1,0.7
		c2.3-1.1,5.3,0.6,7.4-0.7c0,0.4,1.2,0,1.9,0.4c1.7-0.4,2.8,0,4.5-0.4c2.3,1.3,4.7-0.6,7,0.4c0.6-0.4,1.7,0.4,2.8-0.4
		c0,0,0,0.4,0.6,0.4c0.6,0,1.2-0.4,1.2-0.7c0,0.7,0.5,0.7,1.1,0.7c1.2,0.4,3.4,0,5.3-0.4l-0.6,0.4c0.6,0.4,0.6-0.4,1.1-0.4
		c1.2,0.7,2.9,0,4,0.7c0.6-1.1,1.2-0.4,2.3,0V364l-1.1-0.4c0.5,0,1.1-0.4,1.7-0.4c0,0.4,0.6,0.7,0,1.1c1.7-0.7,2.8,0,4-0.4v0.4
		c1.1,0,2.3,0,2.9-0.7c1.7,0.7,3.4,0.7,5.7,0.7c0.5-0.4,1.7-0.7,2.3-0.4c1.1,0.6,2.8,0.6,5.1,0.4L223,364c0-0.4,0-0.4,0.5-0.7
		c0.6,0.4,1.2,0.4,1.2,0.7c0,0.4-0.6,0.6,0,0.6c1.1,0,2.3-0.3,3.4-0.3c0-0.4,0-0.4-0.6-0.7c-1.1-0.4-2.3,0.4-2.8-0.6
		c-0.6-0.7-1.2-0.7-1.7-1c2.8-0.4,4.5,0.3,6.8,0.6l-0.6-0.4c0,0,0,0,0-0.3c1.2-0.4,2.3,0.6,3.6,0.6v-0.4c0-0.3,0.6,0,1.1,0
		c0,0.4,1.7,0.4,2.3,0.4c-0.6,1-1.7,0.6-2.3,1.3c-1.1,0-1.7-0.7-2.8,0h0.5c1.2,0,1.9,0.6,1.9,1c1.1,0,0-0.6,1.1-0.4
		c1.1-0.6,1.7,0.4,1.7,0.7c0.6-0.4,0.6,0.3,0.6-0.4h-0.6v-0.6c1.2-0.7,3.4,0,4.7,0.3h-0.6c0,0.4,0,0.4,0,0.4h0.6
		c0.6,0.6,2.3,0.6,2.8,0.4l-1.7-0.7l0.6-0.6l0.6,0.4c0.5-0.4,0.5-0.4,1.1-0.7c0.6,0,1.2,0,1.2,0.7l-1.2,0.3c0.6,0,1.7,0,1.7,0v-1
		c-0.5-0.4-0.5,0-0.5,0c-0.6,0-0.6-0.4-0.6-0.6c1.7-0.4,2.8,0,4,0.3c0.6,0.4-0.6,0.4,0,0.4l0.6-0.4h2.3c-0.6,0-0.6,0.7-1.2,1.1
		c1.1-1,3-0.8,4.3-1c-0.1-0.1-0.3-0.2-0.3-0.3c0.2,0.1,0.4,0.2,0.6,0.3c0,0,0,0,0,0c0,0,0,0,0,0c2,0.8,3.6,0,5.7,0.7l0.6,0.4
		c1.1,0.6,1.1-0.4,1.7-0.4c-0.6,0-0.6,0-0.6-0.4h0.6c0,0.4,0.6,0.4,0.6,0.7h1.7c0.5,0,1.1-0.4,0.5-0.7c1.2,0,1.9,0.4,2.9,0.4
		c0,0-0.6,0-0.6,0.4h2.3l-0.6,0.3c0,0.7,0.6,0,0.6,0.7C272.5,365,274.3,365.6,274.8,365.4z M258.7,356.8c0,0.4-0.6,0-1.1-0.4
		C258,356.8,258.7,356.4,258.7,356.8z M274.3,354.5c-0.6,0.4-1.2,0.6-1.2,0.4L274.3,354.5z M285.2,351.8v0.4l-0.6-0.4H285.2z
		 M282.9,350.5v0.4l-1.4-0.2c0.1,0,0.2-0.1,0.3-0.1c0-0.1,0-0.2,0-0.2C282,350.5,282.3,350.9,282.9,350.5z M281.7,350.2h-0.6
		C281.4,349.9,281.6,350,281.7,350.2z M280.9,350.5l-0.4-0.1C280.7,350.5,280.8,350.5,280.9,350.5z M276.5,352.8h0.6l-1.1,0.4
		L276.5,352.8z M272.5,352.5v0.3l-1.1-0.3H272.5z M269.1,354.8v0.3h1.1c-0.5,0.4-0.5,0.4-1.1,0h-0.6L269.1,354.8z M262.1,354.5
		c1.9-0.4,4,0,5.9,0v0.4c-0.6,0-1.9,0.3-2.9-0.4c-0.6,0.6-2.3,0-3.4,0.4L262.1,354.5z M261,354.5h-0.6l-0.5-0.6
		c0.5,0.3,1.1,0,1.1,0.3h-0.6L261,354.5z M257,346.8c0.6-0.3,1.1,0.7,2.9,0.4l-0.6,0.4c0,0,0.6,0,1.1,0c0,0,0,0,0-0.4l0.6,0.4
		c-0.6,0.6-2.3-0.4-2.3,0.4h-1.1c1.1-0.7-0.6,0-0.6-0.4c0.6,0,1.1,0,1.1-0.4L257,346.8z M259.3,354.5c-0.6,0-1.2-0.4-1.7-0.6v0.3
		c0,0,0-0.6-0.6-0.6C258,353.1,258,354.1,259.3,354.5z M255.3,354.8c0,0,0,0,0,0.3c-0.6,0-1.2-0.3-1.2-0.3H255.3z M252.9,356.1h1.1
		v0.3h-1.1V356.1z M252.3,353.5c0,0.4-0.5,0.6-1.1,0.4C251.8,353.5,251.8,353.5,252.3,353.5z M251.2,354.8c0,0,0,0,0,0.3l-0.6-0.3
		H251.2z M104.1,350.5c-0.6-0.3-1.2-0.3-1.9-0.3l-1.7,0.6c-0.5-1,1.7-1,2.9-1.3l4.7,0.4C106.9,350.5,105.2,349.8,104.1,350.5z
		 M122.6,358.5c0,0.3,0,0.3,0,0.6h-1.2c0.6-0.6,1.2-1,1.2-1c0.5-0.4,0.5,0.4,1.7,0l0.5,0.6C123.7,358.5,123,358.5,122.6,358.5z
		 M132.3,358.5c0-0.7,0.6-0.4,1.1-0.4L132.3,358.5z M137.5,358.1l-0.5-0.4c-0.6,0.4-1.9,0.7-2.3,0c1.1,0,2.3-0.4,3.4,0
		C138.1,358.1,137.5,358.1,137.5,358.1z M149.1,357.1c1.7,0,2.8-0.4,4.5,0C151.9,357.1,150.8,357.4,149.1,357.1z M160.6,362.1
		c0-0.4,0.6-0.4,0.6-0.4s0,0.4,0.5,0.4H160.6z M168,362.4c-1.1-0.3-1.7-0.6-2.8,0c0.5-0.6,1.7-0.6,2.3-1l0.5,0.4
		C167.6,361.7,168.7,362.1,168,362.4z M168.7,356.8h1.7C169.9,357.1,169.3,356.8,168.7,356.8z M176.1,363.3l-1.1-0.3h0.6h0.5V363.3z
		 M178.4,362.1l-2.8-0.4c1.1-0.4,2.8,0,4,0.4C179.1,362.1,178.4,361.7,178.4,362.1z M179.7,345.6c-1.2,0-1.7,0-1.7-0.7v-0.4l0.5,0.7
		c0.6-0.4,0.6-0.7,1.7-0.7C180.1,344.9,180.1,345.6,179.7,345.6z M180.1,345.9v-0.3l1.2,0.3H180.1z M180.1,344.3v-0.4l1.2,0.4H180.1
		z M187.7,345.9h-0.6v-0.3h1.1L187.7,345.9z M189.5,362.4h-0.6l1.2-0.3L189.5,362.4z M192.9,362.1l-3.4-0.4h-1.2
		c0.6,0,0.6,0,0.6-0.4c0,0,0,0.4,0.6,0.4h2.3c0.6,0.4,1.1-0.7,2.3,0C192.9,361.4,193.5,362.1,192.9,362.1z M194.1,363.7
		c0,0-0.6-0.4,0-0.6c0,0.3,0,0,0.5,0.3L194.1,363.7z M195.2,362.4v-0.3h1.2C195.8,362.1,195.8,362.1,195.2,362.4z M207.3,351.8h1.2
		l-1.2,0.4V351.8z M206.7,355.8l-1.1,0.4v-0.4H206.7z M206.2,345.9v0.4H205v-0.4H206.2z M203.9,356.1c0.6,0,0.6-0.4,1.1,0
		c-0.5-0.4-0.5,0.3-1.1,0.3V356.1z M200.9,361.7c-0.5,0.6,0,0-0.5,0H200.9z M199.9,361.7v0.4h-1.2
		C199.2,362.1,198.6,361.4,199.9,361.7z M200.9,363.7c0,0.4-0.5,0-0.5-0.4h0.5V363.7z M199.9,362.7c-0.6-0.4,0.6,0,1.1-0.4h0.6
		L199.9,362.7z M202.2,356.1c0.5,0,0.5-0.4,1.1,0h-0.6H202.2z M210.2,363.7c-1.2-0.4-1.7,0-2.3-0.4c0.6-0.3,1.1,0,2.3,0V363.7z
		 M207.9,362.7c0,0-0.6,0-0.6,0.4v0.3c0,0,0,0-0.6,0c0,0-0.5-0.3-1.1,0c0.6-0.3,0-0.3,0-0.6c-0.6,0.6-1.1,0-1.1,0v-0.4
		c-1.2,0-0.6,0.7-1.2,0.4l0.6-0.4l-0.6-0.3c0.6-0.4,1.2,0.3,1.7,0v-0.4c1.2,0,1.2,1,2.3,0.6c0-0.6,0.6-0.3,1.2-0.6h1.7
		C210.2,362.1,207.9,362.1,207.9,362.7z M225.8,364l0.6,0.4h-1.2L225.8,364z M241.4,354.1c0,0.4,0,0.4,0,0.4s-0.6,0-0.6-0.4H241.4z
		 M239.6,354.8h1.9c-0.6,0.3-1.9,0.6,0,0.6h-2.3c0,0,0.5,0,1.1-0.4L239.6,354.8z M239.2,356.2c-0.1,0-0.1,0-0.1,0
		C239.1,355.7,239.1,355.9,239.2,356.2z M227,354.1l-0.6-0.3C227,353.8,227,354.1,227,354.1z M220.6,346.2h1.1v0.4h-1.1V346.2z
		 M212,356.1l1.7,0.3H212V356.1z M213.7,363.7l-2.3-0.4h2.3V363.7z M212,362.1c1.1,0,1.7-0.4,2.3,0C213,362.4,212.6,362.1,212,362.1
		z M215.3,362.8c0,0,0.1-0.1,0.1-0.1l0.6,0.4L215.3,362.8z M214.9,362.1l1.1-0.4C216,361.7,215.4,362.4,214.9,362.1z M216,357.1
		l-0.6-0.7c0.6,0,1.2,0,1.7,0c0.6-0.6,1.9,0.4,2.3-0.3c0-0.4-0.5-0.4-0.5-0.4c1.1,0,0.5-1,1.7,0c0.5-0.4,0.5-0.4,1.1-0.4v0.4
		c-0.6,0.4-1.1,0.4-2.3,0v0.4l0.6,0.3c-0.6,0.7-1.7,0-2.9,0C216,356.4,217.1,357.7,216,357.1z M216.6,363.7c0.5-0.6,1.7,0,2.3,0
		C218.3,363.7,217.1,364,216.6,363.7z M221.1,363.7C221.1,363.7,221.1,363.6,221.1,363.7C221.1,363.6,221.1,363.7,221.1,363.7z
		 M223.4,362.7v0.4h-1.7v0.3c0,0-0.2,0-0.4,0.1c0.3-0.2,0.7-0.5-0.2-0.7c-1.1,0.4-1.7-0.4-2.8-0.6c1.1-0.7,1.1,0.3,1.7-0.4l0.6,0.6
		l0.5-0.3v0.3c0,0.4,0.6,0,1.2-0.3v0.6c0.6,0,0.6,0,0.6-0.4L223.4,362.7z M225.8,355.8c-0.6-0.7-2.3,0.6-3.4,0.4
		c0.6-0.7,0.6-0.7,1.1-1.1c0.6,0.7,1.2,0,2.3,0.4C225.8,355.4,225.8,355.4,225.8,355.8z M226.4,356.1v-0.7h1.1
		C227,355.8,227,355.8,226.4,356.1z M227.5,354.1v-0.3c0.4,0,0.9,0,1.1-0.1l-0.5,0.8L227.5,354.1z M229.8,357.7
		c-0.6-0.4-1.1,0.4-1.1-0.4h1.1V357.7z M230.4,354.5c-0.6,0.4-0.6,0.4-0.6,0.6h-0.6c0.6-0.6-0.5-0.3-0.5-0.6c2.8-1.7,4.7,0.4,7.4,0
		c0.6,0,1.2-0.6,1.7,0c-0.5-0.4-0.5,0-0.5,0c0,0.4,0,0.4,0.5,0.4c-0.5,0,0,0.3,0,0.3c1.2-0.3-0.5-1,1.2-1l-0.6,0.4l0.6,0.4
		c-0.6,0.3-1.2,0.6-2.3,0.3l-1.2-0.3v0.3c-0.5,0-0.5,0-0.5-0.3l-0.6,0.3C232.7,354.8,231.5,355.8,230.4,354.5z M235.5,357.1
		l-0.5,0.3v-0.3H235.5z M235.1,358.7l0.5-0.3l0.6,0.3H235.1z M238.5,357.7c-0.6,0.7-0.6-0.4-1.7,0l1.1-0.4c-0.5,0-0.5-0.3-0.5-0.6
		C237.4,357.4,239.1,356.8,238.5,357.7z M241.6,363.7h0.9C242.3,363.8,241.9,363.8,241.6,363.7z M241.4,363.3v0.3
		c-0.5-0.2-0.9-0.4-1.2-0.6c0.6,0,1.2-0.4,1.7-0.4c0,0.4,0,0.4,0.6,0.4C241.9,363.1,241.9,363.3,241.4,363.3z M240.8,359.1h0.6
		C241.4,359.4,240.8,359.1,240.8,359.1z M243.6,358.1c-0.5,0-1.1,0-1.1,0.4c-0.6,0.3-0.6-0.4-0.6-0.4c-1.1,0.4-2.3-1.3-2.8,0v-0.4
		l0.5-0.6c0.6,0.6,1.9,0.6,2.9,0.3h0.6c0,0,0,0,0.5,0V358.1z M241.9,356.4l1.7,0.4C243.1,356.8,242.5,356.8,241.9,356.4z
		 M246.6,356.8c0.6,0,0.6-0.4,1.1,0C247.2,356.8,246.6,356.8,246.6,356.8z M247.6,354.8c0,0.3,0,0.3,0.6,0.3c-0.6,0.4-1.7-0.3-2.3,0
		l-1.1-0.3C245.5,354.1,247.2,354.8,247.6,354.8z M244.2,355.8v-0.4l1.2,0.4H244.2z M257,361.7h-1.1h-1.2v-0.4
		c0.6,0,0.6,0.4,1.2,0.4c0-0.4,0.5-0.4,1.1-0.4V361.7z M261,360.4c0,0.4,0,0.4,0,0.6l-0.6-0.3L261,360.4z M260.4,363.1v-0.4h0.6v0.4
		H260.4z M262.7,362.7c-0.6-0.6-1.7,0-2.8-0.6c0.5,0,0.5-0.4,0.5-0.4v-0.4h0.6c-0.6,0.4,0.6,0.4,0.6,0.7c0,0.6,1.1,0,1.7,0.3
		L262.7,362.7z M262.1,361c0.6-0.6,2.3,0,3.6,0H265C265.6,361,263.3,360.8,262.1,361z M265,362.1c0.6,0,0.6,0.3,0.6,0.3l0.5,0.4
		C265.6,362.7,264.4,362.7,265,362.1z"/>
	<polygon id="XMLID_288_" fill="#FFFFFF" points="245.9,337 245.5,337 245.9,337.3 	"/>
	<path id="XMLID_289_" fill="#FFFFFF" d="M237.4,338.3c0.5,0,0-0.4,0.5-0.4c0.6,0,2.3,0,2.3-0.4c-1.7-1-2.8,1.1-4.7,0l0.6-0.3
		c-0.6,0-1.1-0.4-1.7-0.7l2.3-0.4h-1.7c-2.9,0,0.5,1.1,0,1.3c-0.6,0-1.2,0.4-0.6,0.7c0.6,0,1.7,0,2.9,0.4
		C237.9,338.7,236.8,338.3,237.4,338.3z"/>
	<path id="XMLID_290_" fill="#FFFFFF" d="M233.8,338c-0.5,0.4-1.1,0-1.7,0.4c1.2-0.4,0.6,0.4,0.6,0.4
		C233.4,338.7,233.4,338.3,233.8,338z"/>
	<polygon id="XMLID_291_" fill="#FFFFFF" points="184.8,343.3 184.8,342.6 184.2,342.6 	"/>
	<path id="XMLID_292_" fill="#FFFFFF" d="M207.3,341.9h1.2C207.9,341.6,207.3,341.9,207.3,341.9z"/>
	<polygon id="XMLID_293_" fill="#FFFFFF" points="164.6,340.6 165.7,340.6 164.6,340.3 	"/>
	<path id="XMLID_294_" fill="#FFFFFF" d="M129.5,336.9c-0.1,0-0.1,0.1-0.1,0.1C129.4,337,129.5,336.9,129.5,336.9z"/>
	<path id="XMLID_295_" fill="#FFFFFF" d="M209.6,343.3l-1.1-0.4l0.5-0.4c-0.5,0-1.1,0-1.7-0.4v0.4c-0.6,0.7-0.6-0.4-1.7-0.4
		C206.7,342.6,207.9,344.3,209.6,343.3z"/>
	<path id="XMLID_296_" fill="#FFFFFF" d="M205.6,341.9h1.1C206.7,341.2,206.2,341.9,205.6,341.9z"/>
	<path id="XMLID_297_" fill="#FFFFFF" d="M150.8,343.3h0.6l1.1-0.4c-0.6,0-0.6,0-1.1-0.4C151.4,342.9,151.4,343.3,150.8,343.3z"/>
	<polygon id="XMLID_298_" fill="#FFFFFF" points="154.8,339.3 154.2,339.3 154.8,339.6 	"/>
	<path id="XMLID_299_" fill="#FFFFFF" d="M120.5,340.4c0.1,0,0.1-0.1,0.2-0.1C120.6,340.3,120.6,340.3,120.5,340.4z"/>
	<path id="XMLID_300_" fill="#FFFFFF" d="M120.5,340.4c-0.4,0.2-1-0.1-1.5,0.2C119.5,340.6,120.1,340.6,120.5,340.4z"/>
	<polygon id="XMLID_301_" fill="#FFFFFF" points="121.9,340.3 121.9,340.6 123,340.3 	"/>
	<path id="XMLID_302_" fill="#FFFFFF" d="M205.6,343.5l-0.6-0.3c-0.5-0.4-1.1-0.7-1.7,0.3l0.6,0.7v0.3L205.6,343.5z"/>
	<path id="XMLID_303_" fill="#FFFFFF" d="M164,342.2c-0.5,0-1.1-0.3-1.7,0H164z"/>
	<path id="XMLID_304_" fill="#FFFFFF" d="M285.1,341.1c-0.2,0-0.3,0.1-0.5,0.1C284.6,341.2,284.9,341.2,285.1,341.1z"/>
	<path id="XMLID_305_" fill="#FFFFFF" d="M285.1,341.1c0.9-0.2,1.4-0.2,1.8-0.2v-0.4h-2.3l0.6,0.4
		C285.2,341,285.1,341.1,285.1,341.1z"/>
	<path id="XMLID_308_" fill="#FFFFFF" d="M290.9,342.6c-0.5-0.4,0-0.4,0-0.6c0,0-0.5,0-0.5,0.3l-0.6-0.6l-0.6,0.4c0,0,0-0.4-0.6-0.4
		c-1.1,0-1.1-0.4-2.8-0.4v0.4l-0.6,0.4l-0.6-0.4v0.4c0,0.3,0,0-0.5,0c0,0-0.6,0,0-0.4c-1.2,0-1.2,0-2.3-0.4l0.6-0.3
		c0.5,0.6,1.1-0.7,1.1,0.3c0.2,0,0.4,0,0.6,0c-0.6,0-0.6-0.6,0-1l-1.2,0.4c-0.4-0.9-2.4,0.1-3.7-0.2c-0.4,0.2-0.5,0.2-0.8,0.2
		c0,0.4,1.1,0.4,0.5,0.6c-1.1,0-1.1-0.3-1.1-1c0,0,0-0.4,0.6-0.4c0,0-0.3,0-0.3-0.1c-1.1,0.7-2.2,0.1-3.3,0.1v0.4h1.7
		c0,0.4,0.6,0.4,0,0.7c-1.7,0.6-2.2-0.7-4-0.7c-0.5-0.4-1.1-1.6-1.7-0.6l1.2,0.6v0.4c-0.6,0-0.6,0-1.2-0.4v0.4l-2.3-0.7
		c0,0,0.6-0.3,0.6-0.6h-0.6l-0.5,0.4c-0.6-0.4-0.6,0-1.2,0c-0.6,0.3-2.8,0.3-4,0c0.6,0,1.2-0.7,2.3-0.4l-1.1-0.4
		c0.5-0.6,2.2,0,2.8-0.3c0,0-0.6,0-0.6-0.4c0-0.4,0.6-0.4,0.6-0.7c-0.6,0-1.1,1.1-2.3,0.7c-0.5,0.4-0.5,0.4-1.1,0.6
		c-0.6,0-0.6,0.4-1.2-0.3c0,0,0,0,0-0.4c-0.5,0-2.2,0.4-2.8-0.4l-1.4,0.3c0.5,0-0.2,0.7,0.7,0.7c0,0,0-0.3,0.6-0.3v-0.4
		c0.6,0,0.6,0,0.6,0.4c0.5,0.3,1.1,1,0,1.2c1.1-0.3,1.7,1.3,2.8,0.4c1.2-0.6,2.3,0.4,4-0.4v0.4c0,0.4-0.6,0.4-0.6,0.4
		c0.6,0,1.2,0,1.9,0c0.5,0.4,0.5,0.4,1.1,0c0.5,0.3-0.1,0.5,0.1,0.6c1.1-0.5,2.9,1,3.3,0c0.6,0,0.6,0,0.6,0.4v-0.4
		c1.2-0.3,2.3,0.4,3.4,1c0.6-1,1.2,0.4,1.9-0.3c1.7,0.6,4,0.3,6.2,1c3.6,0.6,5.9,0.6,8.7,0.6l-2.8-0.6L290.9,342.6z M261.6,338.9
		l-1.2-0.3h1.2V338.9z M279.5,341c0.6,0.3,1.1,0.3,1.7,0.3C280.5,341.6,279.5,341.2,279.5,341z M286.4,342.6c0,0,0,0,0-0.4
		c0.5,0,1.1,0,1.1-0.3l0.6,0.6C287.5,342.6,286.9,342.9,286.4,342.6z M288.1,342.2c0-0.5,0.3-0.2,0.8-0.2c0,0.1,0.3,0.2,0.3,0.2
		H288.1z"/>
	<path id="XMLID_312_" fill="#FFFFFF" d="M292.2,341.9h0.6v-0.4h0.5C292.8,341.2,292.2,341.9,292.2,341.9z"/>
	<path id="XMLID_313_" fill="#FFFFFF" d="M288.6,341h-0.5c0,0,0,0,0,0.3C288.1,341,288.6,341.2,288.6,341z"/>
	<polygon id="XMLID_314_" fill="#FFFFFF" points="280.5,342.9 280.5,343.3 281.8,342.9 	"/>
	<path id="XMLID_315_" fill="#FFFFFF" d="M284.6,367c0,0-0.5-0.3-1.1-0.3c0,0,1.1,0.3,1.1,1c0.6,0,0.6,0.3,0.6,0.6v-0.4
		C285.2,367.7,284.1,367.3,284.6,367z"/>
	<polygon id="XMLID_316_" fill="#FFFFFF" points="282.4,345.2 282.4,345.6 283.5,345.6 	"/>
	<path id="XMLID_317_" fill="#FFFFFF" d="M203.9,344.3l-0.6,0.3C203.9,344.5,203.9,344.5,203.9,344.3z"/>
	<path id="XMLID_320_" fill="#FFFFFF" d="M134.1,336.6c-1.1,0-2.3,0.4-2.9-0.4c0,0.7-0.9,0.4-1.6,0.7c0.2-0.1,0.5-0.1,0.5,0.4
		c-0.6,0.3-1.7,0-2.3,0l0.6-0.4h-4.7c1.1,0.4,2.3,0,3.4,0.4c-1.1,0-2.8,0.3-4,0.3c-0.5,0-1.1,0.4-1.7,0l0.6-0.3
		c-0.6,0-1.2-0.4-1.7,0c0.5,0,0.5,0.3,0.5,0.3l-0.5,0.4c-0.6,0-0.6-0.6-1.2-0.6c-0.5,0.6,0.6,0,0.6,0.6c-5.1-0.4-11.5,0-16.1,0
		c-1.2,1-3.4,0.4-4,1c0.6,0,1.1-0.3,1.7,0c-1.1,0.4-0.6,1-1.7,1.3c0.6,0,1.1-0.4,1.7,0.4c1.1-0.7,1.7,0.4,2.9,0l-1.2,0.6
		c0.6,0,1.7-0.3,2.3-0.3v0.3c0.6,1,1.1,1.3,2.3,0.7c0.6,0,0.6,0.3,0.6,0.6c1.7,0.7,2.3-1.3,4-0.4c1.1,0.7,2.8-0.3,4.5,0
		c-1.7-0.6-3.4,0-4.5-1.2h0.5c4,1,6.4-1.3,9.9-1.7c2.2,0.4,4.5-0.4,6.8,0c-0.5,0.4,0,1-1.1,0.6c0-1.2-0.6,0.7-1.7,0.4
		c-0.6-0.4-2.3-0.6-2.3,0c0-0.4-1.2,0-1.2,0.4c0.6,0.4,1.7-0.4,2.3-0.4c2.3,0.7,4.7-0.6,6.4,0c1.7-0.6,3.4,0,5.3-0.6
		c0.5,0,1.1,0.6,1.1,0c1.1,0.3,2.9,0,3.4,0l0.6,0.3c1.7,0,3.4-0.6,5.1-0.3l0.6,0.3v-0.3c1.2,0,2.3-0.4,1.7,0.6
		c0.6-0.4,1.2-0.6,1.2-1c0,0.4,0.6,0,1.1,0c1.2-0.4,4-0.4,5.3,0.4v-0.4c0.5,0,1.1-0.6,1.1,0c1.2-0.6-0.6-0.4-0.6-1
		c0,0,0-0.4,0.6-0.4c1.7,0.4,4-0.4,5.7,0.4c-1.7,0.6-4,0.4-5.1,0.6l1.1,0.4c1.2-0.4,3.6-0.6,4.7-0.6c0.6,0.3,1.7,0.3,2.3,0.3
		c0.6,0.7,1.7,0,2.3,0c0.6,0,0.6-1,0-0.6l-0.6,0.4c-0.6-1.1-1.7,0.3-2.9,0c-0.5-0.4,0-0.4-0.5-0.7l3.4-0.4c1.2,0,1.7,0,2.3,0
		c0.6,0,0.6,0,0.6,0.4c0,0,0,0.4-0.6,0.7c1.1,0.6,1.7-0.4,2.3,0l0.6-0.4c0.5-0.7,3.4,0,2.2-0.4v-0.6c2.3,0,3.6,0.3,5.3,0
		c1.7,0.3,3.4-0.4,5.1,0.6c0,0-0.5,0-0.5,0.4h-2.3c-0.6-0.7-1.7,0-2.3,0c0.6,0.6,1.7-0.4,2.3,0.4c0.5-0.7,1.7,0,2.3,0.3l0.5-0.6
		c0.6,1,2.3,0.6,2.3,0.6c-0.6-0.6-1.7,0.4-1.7-0.6l1.7-0.4c-0.6-0.6-1.1,0.4-1.1-0.4c1.1,0,1.7-0.3,2.8,0v0.4l1.9,0.4h1.1
		c-0.6,0-0.6,0-1.1-0.4c0.2-0.2,0.4-0.2,0.7-0.1l-0.7-0.2l0.5-0.3h1.2c0-0.4,0-0.4,0-0.7c0.5,0.4,0.5,1,0.5,0.7c0.6,0,1.9,0,1.9,0.3
		v0.4h0.5c0.6-1,1.7,0,2.3-1c0.6-0.7,1.7,0,2.3,0c0,0.6-0.6,0-1.1,0.6h1.1c1.1-1,1.1,1.1,1.7,0.4v-0.4c1.7-0.3,3.4-0.3,4,0l-0.6,0.4
		c0.6,0,1.2,0,1.9,0l-0.6-0.6l0.7-0.2c-0.4,0-0.8-0.2-1.3-0.5c0,0,0,0,0.6,0h0.6l-0.6-0.4c0.6-0.3,1.1-0.3,1.7,0L209,336
		c-1.7-0.7-2.8,0.6-4,0.3c-1.1,0-1.7-0.3-2.3-0.6l0.6-0.4h-2.3l-1.1-0.3l0.6,0.3c-1.9,1-2.9-0.3-4,0c-2.3,0.7-4,0-5.9,0.4
		c0-0.4,0-0.6-1.1-0.6l0.6,0.3c-0.6,0-1.2,0.7-1.9,0.4l0.6-0.4V335c-0.6,0.3-1.7,1.2-2.3,0.3v0.4h-1.1v-0.4h0.6
		c-1.2,0-2.9,0-2.3-0.6c-1.2,0.6-1.2,0.4-1.7,0.4l1.1,0.6c-1.1,0.6-1.1-0.6-2.3-0.4l0.6-0.3c-1.7,0.3-3.4,0.3-4.7,0.6
		c-0.6-0.6-1.7,0.6-2.3-0.4c-1.7,1.3-2.8-0.3-5.1,0V335c-0.6,0.6-1.7,0-1.7-0.4c-0.6,0.4,0,0.4,0,0.6c-0.6,0-1.9,0-1.2-0.3
		c-1.1,0.3-1.1,0.3-2.8,0c0,0.3,0,0.6,0,0.6c0-1-1.2-0.6-2.3-0.4l0.5,0.4h-0.5c-0.6-1-3.6-0.4-4.7-0.4c0,0.4,0.6,0.4,0,0.7
		c-1.7,0-2.3,0-4-0.4c-0.6-0.4-1.7,0-2.9-0.4c0,0.4,0,0.7-0.5,0.7c-0.6-0.4,0-0.4,0-0.7l-1.2,0.7h-0.6l-0.5-0.4
		c-0.6,0.4-1.2,0-1.7,0v0.4c-1.2,0-3.6,0-4.7,0c-1.7,0.6-2.9-0.4-4,0.3l-0.6,0.4c-0.6,0-1.1,0.4-2.3,0.4L134.1,336.6z M129.4,339.9
		c0-0.3,0.6-0.6,0.6-0.6c0.6,0,0.6,0.4,0.6,0.4C130,339.3,130,339.9,129.4,339.9z M202.2,336.6h0.5v0.4h-0.5V336.6z M199.9,336
		l1.1,0.3h-1.1V336z M198.6,336.6v0.4h-1.1C197.5,336.6,198.1,337,198.6,336.6z M187.1,336c-0.6,0.3-1.7,0.3-2.3,0
		C185.4,336,186.5,335.6,187.1,336z M179.7,336.3c-0.6,0-0.6,0-0.6,0.4c0.6,0,0.6,0.4,0,0c0-0.3-0.5-0.6-0.6-0.4
		C178.6,336.1,179.1,336.3,179.7,336.3z M155.9,338.3c0,0.4-0.5,0-0.5,0.4v0.3l-1.2-0.3C155.5,338.3,155.5,338.3,155.9,338.3z
		 M137.5,336.3v0.4l-1.1,0.4C136.4,336.3,137,336.6,137.5,336.3z"/>
	<path id="XMLID_328_" fill="#FFFFFF" d="M284.1,365.6v0.4c-0.6,0.4-1.2-0.4-1.7,0l1.1,0.4l-0.6,0.4h0.6l1.1-0.7L284.1,365.6z"/>
	<path id="XMLID_329_" fill="#FFFFFF" d="M285.2,349.8v-0.4c0,0,0,0.4-0.6,0.4C285.2,349.8,285.2,349.8,285.2,349.8z"/>
	<polygon id="XMLID_330_" fill="#FFFFFF" points="175.6,366.4 177.3,366 176.1,366 	"/>
	<path id="XMLID_331_" fill="#FFFFFF" d="M265.6,356.1l-0.6-0.4c0,0.1,0,0.2,0,0.4C265,355.8,265,356.1,265.6,356.1z"/>
	<path id="XMLID_332_" fill="#FFFFFF" d="M268.8,356.4l-0.3-0.3c0-0.2,0.4-0.2,0.6-0.1v-0.2c-0.6,0-0.6,0.4-1.1,0.6
		C268,356.4,268.3,356.4,268.8,356.4z"/>
	<path id="XMLID_333_" fill="#FFFFFF" d="M261.6,358.1H261c-0.6-0.4,0.6-0.7,0.6-0.7c-0.6,0-1.7-0.6-1.7,0
		C261,357.4,260.4,358.5,261.6,358.1z"/>
	<path id="XMLID_334_" fill="#FFFFFF" d="M269.1,356v0.1C269.3,356.1,269.2,356.1,269.1,356z"/>
	<path id="XMLID_335_" fill="#FFFFFF" d="M188.6,341.8c-0.1,0-0.2,0.1-0.3,0.1C188.2,341.9,188.4,341.9,188.6,341.8z"/>
	<path id="XMLID_336_" fill="#FFFFFF" d="M268,357.1h1.7l-0.7-0.6C268.4,357.1,268.4,356.8,268,357.1z"/>
	<path id="XMLID_337_" fill="#FFFFFF" d="M269.1,356.4c-0.1,0-0.2,0-0.3,0l0.2,0.1C269,356.5,269,356.5,269.1,356.4z"/>
	<path id="XMLID_338_" fill="#FFFFFF" d="M284.1,349.8c-0.1,0-0.2,0-0.3,0C283.9,349.8,284,349.8,284.1,349.8
		C284.1,349.8,284.1,349.8,284.1,349.8z"/>
	<path id="XMLID_339_" fill="#FFFFFF" d="M284.6,373.3c-0.5,0-0.5,0.4-1.1,0.4v-0.4c-0.6,0-1.7,0.4-1.7-0.4c-2.3,0-4.7-1-6.4-0.6
		c1.1,0.6,2.9,0.4,4,1c0.6-0.4,1.1,0,1.1,0c1.2,0.6,3.6,0,4,1c-0.5,0.4-1.1-0.4-1.7,0c0,0,1.7,0,1.2,0.7c0,0.3,0.5-0.4,1.1,0
		c0.6,0.6,0.6-0.7,1.7-0.4l-1.1-0.4l1.1-0.4c0.2,0,0.4,0,0.6,0C286.4,372.9,285.2,374.6,284.6,373.3z"/>
	<path id="XMLID_340_" fill="#FFFFFF" d="M274.2,372.1l-0.5,0.6c0.6,0,1.1-0.7,1.7-0.4l-0.6-0.4
		C274.6,372.2,274.4,372.2,274.2,372.1z"/>
	<path id="XMLID_341_" fill="#FFFFFF" d="M278.8,365.6c1.2,0.4,1.2-0.6,1.7-0.6c-0.5,0-1.1,1-1.7,0l-0.3,0.2L278.8,365.6z"/>
	<path id="XMLID_342_" fill="#FFFFFF" d="M273.8,371.8c0.1,0.1,0.3,0.2,0.4,0.3l0.1-0.1L273.8,371.8z"/>
	<path id="XMLID_343_" fill="#FFFFFF" d="M287.5,373.9c0.3,0,0.4-0.1,0-0.3V373.9z"/>
	<path id="XMLID_344_" fill="#FFFFFF" d="M278.4,365.4l0.2-0.1l-0.2-0.2C278.4,365.4,278.4,365.4,278.4,365.4z"/>
	<path id="XMLID_345_" fill="#FFFFFF" d="M243.8,345.7c-0.1,0-0.1-0.1-0.2-0.1L243.8,345.7z"/>
	<path id="XMLID_346_" fill="#FFFFFF" d="M273.1,371.6l0.7,0.2C273.6,371.6,273.3,371.5,273.1,371.6z"/>
	<path id="XMLID_347_" fill="#FFFFFF" d="M243.7,345.6C243.6,345.6,243.6,345.6,243.7,345.6L243.7,345.6z"/>
	<path id="XMLID_348_" fill="#FFFFFF" d="M284.6,349.2c-0.4,0-0.5,0.2-0.5,0.6c0.2,0,0.3-0.1,0.5-0.3
		C284.6,349.4,284.6,349.3,284.6,349.2z"/>
	<path id="XMLID_349_" fill="#FFFFFF" d="M243.9,345.7L243.9,345.7C243.9,345.7,243.9,345.7,243.9,345.7z"/>
	<path id="XMLID_350_" fill="#FFFFFF" d="M188.8,341.2c0.4,0.2,0,0.5-0.3,0.6c0.5-0.1,0.9,0.2,0.9,0.4l0.6-0.6
		C189.5,341.6,189.5,341.2,188.8,341.2z"/>
	<path id="XMLID_351_" fill="#FFFFFF" d="M244.2,345.9c-0.1-0.1-0.2-0.1-0.3-0.1L244.2,345.9z"/>
	<path id="XMLID_352_" fill="#FFFFFF" d="M207.3,344.5c0.6,0,0.6,0,0.6,0.4l1.7-0.4C209,344.3,207.9,344.5,207.3,344.5z"/>
	<path id="XMLID_353_" fill="#FFFFFF" d="M254,346.6c0.3,0,0.5,0,0.6,0c-0.2-0.1-0.4-0.2-0.6-0.4V346.6z"/>
	<path id="XMLID_354_" fill="#FFFFFF" d="M266.2,347.3C266.2,347.3,266.2,347.3,266.2,347.3C266.3,347.3,266.2,347.3,266.2,347.3z"
		/>
	<path id="XMLID_355_" fill="#FFFFFF" d="M265.9,347.2c-0.1,0-0.2,0-0.2,0C265.7,347.2,265.8,347.2,265.9,347.2z"/>
	<path id="XMLID_356_" fill="#FFFFFF" d="M270.8,348.8l0.6-0.2C271.4,348.5,270.9,348.5,270.8,348.8z"/>
	<path id="XMLID_357_" fill="#FFFFFF" d="M254.6,346.6C254.6,346.6,254.6,346.6,254.6,346.6L254.6,346.6
		C254.6,346.6,254.6,346.6,254.6,346.6z"/>
	<path id="XMLID_358_" fill="#FFFFFF" d="M266.2,347.3C266.2,347.3,266.2,347.3,266.2,347.3C266.2,347.3,266.2,347.3,266.2,347.3z"
		/>
	<path id="XMLID_359_" fill="#FFFFFF" d="M266.2,347.3c-0.1,0-0.2-0.1-0.3-0.1C266,347.2,266.1,347.3,266.2,347.3z"/>
	<path id="XMLID_360_" fill="#FFFFFF" d="M268.8,361.8C268.9,361.8,268.9,361.8,268.8,361.8C268.9,361.8,268.9,361.8,268.8,361.8z"
		/>
	<path id="XMLID_361_" fill="#FFFFFF" d="M273.7,361.7c0.6-0.4,0.6,0,1.1,0v-0.4c0,0-0.5,0-1.1,0V361.7z"/>
	<path id="XMLID_362_" fill="#FFFFFF" d="M276.5,356.1c-0.5-0.7-1.7,0.3-1.7-0.4h-1.1l1.7,0.4c0,0,0,0.3-0.6,0.3c0.6,0,0.6,0,1.2,0
		C276,356.4,276,356.1,276.5,356.1z"/>
	<path id="XMLID_363_" fill="#FFFFFF" d="M278.8,362.1h0.6C279.5,362.1,278.8,361.7,278.8,362.1z"/>
	<path id="XMLID_364_" fill="#FFFFFF" d="M285.2,366.4v0.4c0.6-0.4,1.7,0,2.3-0.7C286.4,366,285.8,366.7,285.2,366.4z"/>
	<path id="XMLID_365_" fill="#FFFFFF" d="M276,363.3c1.7-0.4,3.3,0.1,5.2,0.3c0.4-0.2,0.8-0.4,1.2-0.4c-1-0.2-2.1-0.2-3.5-0.5
		c0-0.4-0.5-0.4-1.1,0c-0.6,0,0-0.4,0-0.4c-1.2,0-1.7-0.3-1.7-0.6h-0.6c0.6,0,0.6,0.4,0.6,0.4c-0.6,0.3-1.2,0-1.7,0.3
		c-0.4-0.4-0.8-0.4-1.2-0.3c0,0.3,0,0.3,0,0.6h0.6c0,0,0,0,0-0.4c1.1,0.7,1.7,0,2.8,0.4C276,362.7,276,363.1,276,363.3z"/>
	<path id="XMLID_366_" fill="#FFFFFF" d="M254.9,363.4c0.2,0.1,0.3,0.1,0.3-0.1c0,0,0,0,0,0C255.1,363.4,255,363.4,254.9,363.4z"/>
	<path id="XMLID_367_" fill="#FFFFFF" d="M285.2,366h1.2v-0.4C285.8,365.6,285.2,365.4,285.2,366z"/>
	<path id="XMLID_368_" fill="#FFFFFF" d="M281.4,363.7c-0.1,0-0.1,0-0.2,0c0,0,0,0,0,0H281.4z"/>
	<path id="XMLID_369_" fill="#FFFFFF" d="M272,362.1l-0.6-0.4c0,0.4,0.6,0.4,0.6,0.6c0.4,0.3,0.5,0,1-0.2c-0.2,0.1-0.4,0.1-0.5,0.2
		C272,362.1,272,362.1,272,362.1z"/>
	<path id="XMLID_370_" fill="#FFFFFF" d="M273,362.1C273,362.1,273.1,362.1,273,362.1C273.1,362.1,273.1,362.1,273,362.1
		C273.1,362.1,273,362.1,273,362.1z"/>
	<path id="XMLID_371_" fill="#FFFFFF" d="M281.8,365.4l1.7,0.3l-1.1-0.6C282.4,365.4,281.8,365.4,281.8,365.4z"/>
	<path id="XMLID_372_" fill="#FFFFFF" d="M283.5,363.7h-2.1C282,363.8,282.7,363.8,283.5,363.7z"/>
	<path id="XMLID_373_" fill="#FFFFFF" d="M282.4,363.2c0.2,0,0.3,0.1,0.5,0.1C282.7,363.2,282.6,363.2,282.4,363.2z"/>
	<path id="XMLID_374_" fill="#FFFFFF" d="M270.1,358.1c-0.4-0.1-0.7-0.2-1.1-0.2C269.1,358.4,269.7,358.1,270.1,358.1z"/>
	<polygon id="XMLID_375_" fill="#FFFFFF" points="286.4,355.8 285.8,355.8 286.4,356.1 	"/>
	<path id="XMLID_376_" fill="#FFFFFF" d="M276,373.6v-0.7C275.4,372.9,276,373.3,276,373.6z"/>
	<polygon id="XMLID_377_" fill="#FFFFFF" points="273.1,375.9 274.3,375.9 273.1,375.6 	"/>
	<polygon id="XMLID_378_" fill="#FFFFFF" points="279.5,367.7 279.5,367.3 277.8,367.3 	"/>
	<path id="XMLID_379_" fill="#FFFFFF" d="M287.5,373.9L287.5,373.9C287.5,373.9,287.5,373.9,287.5,373.9
		C287.5,373.9,287.5,373.9,287.5,373.9z"/>
	<path id="XMLID_380_" fill="#FFFFFF" d="M280.1,374.2v-0.4c0.5,0,0.5,0.4,0.5,0.4c0.6,0,0.6,0,0.6-0.4c0,0,0-0.3-0.6-0.3v0.3
		c0-0.3-0.5-0.3-1.1-0.6l-0.6,0.4C280.1,373.3,278.8,373.9,280.1,374.2z"/>
	<path id="XMLID_381_" fill="#FFFFFF" d="M282.4,376.9v0.4h0.5C282.9,376.9,282.9,376.9,282.4,376.9z"/>
	<path id="XMLID_382_" fill="#FFFFFF" d="M259.9,358.1c0,0,0.5,0.4,0.5,0H259.9z"/>
	<path id="XMLID_383_" fill="#FFFFFF" d="M269.1,357.9C269.1,357.9,269.1,357.9,269.1,357.9c0,0,0-0.1,0-0.1V357.9z"/>
	<path id="XMLID_384_" fill="#FFFFFF" d="M266.1,358.7c0-0.3-0.5-0.3-0.5-0.3C265.6,358.7,266.1,358.7,266.1,358.7z"/>
	<path id="XMLID_385_" fill="#FFFFFF" d="M260.4,359.4c0-0.4-0.5-0.7-0.5-1v0.3v0.4C259.9,359.1,259.9,359.4,260.4,359.4z"/>
	<path id="XMLID_689_" fill="#FFFFFF" d="M267.4,358.1h1.7v-0.2c-0.7-0.1-1.3-0.1-1.7-0.1V358.1z"/>
	<path id="XMLID_690_" fill="#FFFFFF" d="M267.4,358.7c-0.6-0.3-1.2-0.3-1.2,0C266.7,358.7,267.4,359.1,267.4,358.7z"/>
	<path id="XMLID_691_" fill="#FFFFFF" d="M265.6,358.5H265C265.6,358.7,265.6,358.5,265.6,358.5z"/>
	<path id="XMLID_692_" fill="#FFFFFF" d="M262.1,357.4c0,0.7,0.6,0.4,1.2,0.7c0.6,0,1.1-0.4,1.7-0.7
		C263.9,357.4,262.7,357.1,262.1,357.4z"/>
	<path id="XMLID_693_" fill="#FFFFFF" d="M213.7,367.9c0.6,1.1,1.7-0.3,2.3,0.4c0-0.4,0.6-0.4,0-0.4
		C215.4,368.3,214.3,367.7,213.7,367.9z"/>
	<path id="XMLID_694_" fill="#FFFFFF" d="M220.6,365.6c0.5-0.3,0.5,0.4,1.1,0.4v-0.4C221.1,365.6,220.6,365.4,220.6,365.6z"/>
	<path id="XMLID_695_" fill="#FFFFFF" d="M218.9,367.7l2.8,0.3C221.1,366.7,220,367.7,218.9,367.7z"/>
	<path id="XMLID_696_" fill="#FFFFFF" d="M219.4,365.6l2.3,0.7c0-0.4-0.6-0.4-1.1-0.7c0,0,0,0,0-0.3
		C220,365.4,219.4,365.4,219.4,365.6z"/>
	<path id="XMLID_697_" fill="#FFFFFF" d="M218.9,366.7c0-0.2,0-0.3,0-0.4l-0.6,0.4H218.9z"/>
	<path id="XMLID_698_" fill="#FFFFFF" d="M189.5,366.4c0,0,0.6-0.4,1.1,0l-1.1-0.7C189.5,366,189.5,366.4,189.5,366.4z"/>
	<path id="XMLID_699_" fill="#FFFFFF" d="M218.3,365.4c0-0.4-0.6,0.3-1.2,0.3C217.7,366.4,218.3,365.4,218.3,365.4z"/>
	<path id="XMLID_700_" fill="#FFFFFF" d="M218.3,366.4h0.6c0-0.1,0-0.2,0-0.4L218.3,366.4z"/>
	<path id="XMLID_701_" fill="#FFFFFF" d="M216.6,367c-0.6,0.4-0.6,0-1.2-0.3h0.6l-0.6-0.4c0,0,0,0,0-0.4h-1.1c1.7,0,0.6,1.3,1.7,2
		c0.6-0.3,0.6-0.6,1.1-0.3C216.6,367.3,216.6,367.3,216.6,367z"/>
	<path id="XMLID_702_" fill="#FFFFFF" d="M228.7,366.4l0.5-0.4C229.2,366,228.7,366,228.7,366.4z"/>
	<path id="XMLID_703_" fill="#FFFFFF" d="M229.2,368.7c0.6,0.4,1.2-0.4,1.9,0C230.4,367.9,229.2,368.7,229.2,368.7z"/>
	<path id="XMLID_704_" fill="#FFFFFF" d="M228.1,365.6c-0.6,0-0.6,0.7-0.6,1.1C228.7,366.4,227.5,366,228.1,365.6z"/>
	<path id="XMLID_705_" fill="#FFFFFF" d="M223.4,367c0.6,0,1.2-0.3,1.2,0.4c0.5,0,1.1,0,1.1-0.4C225.1,366.7,224.7,366.7,223.4,367z
		"/>
	<path id="XMLID_706_" fill="#FFFFFF" d="M224.7,367.9c0,0.4,0.5,0,1.1,0C225.1,367.9,224.7,367.7,224.7,367.9z"/>
	<path id="XMLID_707_" fill="#FFFFFF" d="M231,366h0.5c-0.5-0.4-0.5-0.4-0.5-0.4C230.4,366,231,366,231,366z"/>
	<path id="XMLID_708_" fill="#FFFFFF" d="M223.4,368.7c1.7-0.4,3.6,0.4,5.3,0C227,368.3,225.1,368.3,223.4,368.7z"/>
	<path id="XMLID_709_" fill="#FFFFFF" d="M195.8,367.3l1.7-0.4h-0.6C196.4,367,195.8,366.7,195.8,367.3z"/>
	<path id="XMLID_710_" fill="#FFFFFF" d="M198.1,366.4c0.5,0.4,1.7,0,1.7,0H198.1z"/>
	<polygon id="XMLID_711_" fill="#FFFFFF" points="194.6,365 194.6,365.4 195.2,365.4 	"/>
	<path id="XMLID_712_" fill="#FFFFFF" d="M196.4,366.4c1.1-0.4-0.6-0.4-0.6-0.7C195.8,365.6,195.8,366.4,196.4,366.4z"/>
	<polygon id="XMLID_713_" fill="#FFFFFF" points="195.2,367.9 196.9,367.7 195.8,367.7 	"/>
	<path id="XMLID_714_" fill="#FFFFFF" d="M191.2,367.9c0,0.4,1.2,0,1.2,0S191.8,367.3,191.2,367.9z"/>
	<path id="XMLID_715_" fill="#FFFFFF" d="M191.2,365.6l1.2-0.3c-0.6,0-0.6,0-0.6,0S191.2,365.4,191.2,365.6z"/>
	<polygon id="XMLID_716_" fill="#FFFFFF" points="206.2,365.6 206.2,366 206.7,365.6 	"/>
	<path id="XMLID_717_" fill="#FFFFFF" d="M207.9,366.4c0,0.4-1.2,0.4-1.2,0.4c0.6,0.3,1.2-0.4,1.2,0.3h0.6v-0.3
		C208.5,366.7,208.5,366.4,207.9,366.4z"/>
	<polygon id="XMLID_718_" fill="#FFFFFF" points="212,368.3 213,367.9 212.6,367.9 	"/>
	<polygon id="XMLID_719_" fill="#FFFFFF" points="199.9,367 201.6,367 200.9,366.7 	"/>
	<polygon id="XMLID_720_" fill="#FFFFFF" points="210.9,367.3 211.3,367 210.9,367 	"/>
	<path id="XMLID_721_" fill="#FFFFFF" d="M202.6,367h-1.1l0.6,0.4C202.6,367.7,203.9,366.7,202.6,367z"/>
	<path id="XMLID_722_" fill="#FFFFFF" d="M204.5,366.7l-0.6,0.3c0.6,0,0.6,0.4,0.6,0.7c0.5,0,1.7-1,2.2-1
		C206.2,365.6,205,366.7,204.5,366.7z"/>
	<path id="XMLID_723_" fill="#FFFFFF" d="M265,371c0,0.2,0,0.3,0,0.4l0.6,0.6c0,0,0.5,0,0.5-0.4C266.1,371.3,265.6,371,265,371z"/>
	<path id="XMLID_724_" fill="#FFFFFF" d="M261.6,370.6l1.1-0.4h-0.6C261.6,370.3,261.6,370.3,261.6,370.6z"/>
	<path id="XMLID_725_" fill="#FFFFFF" d="M172.1,342.6l0.6,0.4C172.7,342.9,172.7,342.6,172.1,342.6z"/>
	<path id="XMLID_726_" fill="#FFFFFF" d="M270.1,372.7c1.2-0.4,1.2,0,2.3-0.4h-2.3C270.1,372.3,270.8,372.3,270.1,372.7z"/>
	<path id="XMLID_727_" fill="#FFFFFF" d="M261,371l1.7,0.4C262.7,370.6,261.6,371,261,371z"/>
	<path id="XMLID_728_" fill="#FFFFFF" d="M258.7,371l0.6-0.4h-0.6C258.7,370.6,258.7,370.6,258.7,371z"/>
	<path id="XMLID_729_" fill="#FFFFFF" d="M258,365.4c0,0.3,0,0.3,0,0.6l0.6-0.4C258,365.6,258,365.4,258,365.4z"/>
	<polygon id="XMLID_730_" fill="#FFFFFF" points="269.1,372.3 270.1,372.3 269.1,371.9 	"/>
	<path id="XMLID_731_" fill="#FFFFFF" d="M265.6,366.7h0.5v-0.4c0.2-0.1,0.4-0.1,0.6-0.2c-0.3,0-0.7-0.1-1-0.2
		C265,366.4,266.7,366.4,265.6,366.7z"/>
	<path id="XMLID_732_" fill="#FFFFFF" d="M228.7,364c0,0.4-0.6,0.4-0.6,0.4c0.6,0,0.6,0,0.6,0C228.7,364,228.7,364,228.7,364z"/>
	<path id="XMLID_733_" fill="#FFFFFF" d="M228.7,363.7c0.5,0.4,1.1,0,1.7-0.4c-1.2,0-1.7-0.3-2.9,0.4
		C228.1,364,229.2,362.7,228.7,363.7z"/>
	<path id="XMLID_734_" fill="#FFFFFF" d="M171.6,341.9c0,0.6-1.2,0-1.7,0.3c0,0.1,0,0.3,0,0.4c1.1,0,1.7-0.4,2.2,0l1.9-0.4
		C173.9,342.2,171.6,342.6,171.6,341.9z"/>
	<path id="XMLID_735_" fill="#FFFFFF" d="M268.8,365.8c-0.6,0-1.3,0.2-2.1,0.4C267.4,366.2,268.1,366,268.8,365.8z"/>
	<path id="XMLID_736_" fill="#FFFFFF" d="M270.1,367.9h0.6l0.6-0.6C270.8,367.7,270.1,367.7,270.1,367.9z"/>
	<path id="XMLID_737_" fill="#FFFFFF" d="M256.3,370.3l1.2,0.4v-0.4l0.5-0.3h-0.5C257,370,256.3,370,256.3,370.3z"/>
	<path id="XMLID_738_" fill="#FFFFFF" d="M255.3,370c0.6,0.3,0.6-0.4,1.1-0.4C255.9,369.6,255.9,369.6,255.3,370z"/>
	<path id="XMLID_739_" fill="#FFFFFF" d="M233.7,368.8c0,0,0.1,0,0.1,0c0,0,0-0.1,0-0.1C233.8,368.7,233.7,368.8,233.7,368.8z"/>
	<path id="XMLID_740_" fill="#FFFFFF" d="M234.5,367.9h-0.6l0.6,0.7C234.7,368.4,234.9,368.2,234.5,367.9z"/>
	<path id="XMLID_741_" fill="#FFFFFF" d="M236.8,369.3c0.6-0.3,1.7-0.3,1.7,0c1.1-0.6,1.7,0.4,2.9,0V369c-0.6,0-2.3,0-2.3,0
		C237.9,369,237.4,368.7,236.8,369.3z"/>
	<path id="XMLID_742_" fill="#FFFFFF" d="M233.7,368.8c-0.2,0.1-0.3,0.2-0.3,0.2S233.4,369.2,233.7,368.8z"/>
	<path id="XMLID_743_" fill="#FFFFFF" d="M234.5,368.7L234.5,368.7C234.4,368.6,234.4,368.7,234.5,368.7
		C234.4,368.7,234.4,368.7,234.5,368.7z"/>
	<path id="XMLID_744_" fill="#FFFFFF" d="M233.8,369c0.2-0.1,0.4-0.2,0.6-0.3c-0.2,0-0.4,0.1-0.6,0.1C233.8,369,233.8,369,233.8,369
		z"/>
	<path id="XMLID_745_" fill="#FFFFFF" d="M247.6,364.7v0.4h0.6v-0.4C247.6,365,247.6,364.7,247.6,364.7z"/>
	<polygon id="XMLID_746_" fill="#FFFFFF" points="231.5,364.7 232.1,364.4 231.5,364.4 	"/>
	<path id="XMLID_747_" fill="#FFFFFF" d="M244.9,367c0,0.4-0.6,0.4-1.2,0.4c0.6,0,1.2,0.6,0.6,0.6c0.6,0,1.2,0.4,1.2,1.1
		c-0.6,0-1.2,0.3-1.9,0.6h0.6v0.4l0.6-0.7l0.6,0.4c1.1,0,2.2,0.6,2.8,0l-0.6-0.6C246.6,368.7,245.5,367.9,244.9,367z"/>
	<path id="XMLID_748_" fill="#FFFFFF" d="M254,370.3c0.6,0,0.6,0.4,1.2,0C255.3,370,254.6,370.3,254,370.3z"/>
	<path id="XMLID_749_" fill="#FFFFFF" d="M237.4,368.3v-0.4c0-0.3-0.6-0.6-0.6-0.3C235.5,367.9,237.4,367.7,237.4,368.3z"/>
	<path id="XMLID_750_" fill="#FFFFFF" d="M238.5,365.4l1.1-0.4C239.1,365,238.5,365,238.5,365.4z"/>
	<polygon id="XMLID_751_" fill="#FFFFFF" points="243.1,367 244.9,367 244.2,366.7 	"/>
</g>
</svg>
