<?xml version="1.0" encoding="utf-8"?>
<!-- Generator: Adobe Illustrator 19.0.0, SVG Export Plug-In . SVG Version: 6.00 Build 0)  -->
<svg version="1.1" id="Layer_1" xmlns="http://www.w3.org/2000/svg" xmlns:xlink="http://www.w3.org/1999/xlink" x="0px" y="0px"
	 viewBox="20 40 190.9 72" style="enable-background:new 20 40 190.9 72;" xml:space="preserve">
<style type="text/css">
	.st0{fill:#FFFFFF;}
</style>
<g id="XMLID_6_">
	<path id="XMLID_7_" class="st0" d="M138.7,111.9c-2.2,1,1.4-12.2-70.8-1c-4.1,0.6-3.1-3.6,10.6-6.1
		C146.9,93.2,154.5,103.5,138.7,111.9z"/>
</g>
<g id="XMLID_25_">
	<path id="XMLID_26_" class="st0" d="M20,73.6c0-11.8,16.6-15.9,22.4-15.9c0,0-2.8-2.7-2.8-7.3C39.6,45,46.8,40,54.3,40
		c7.6,0,9.3,4.5,9.3,5.7s-1.2,1-1.2,0.6c0,0-1.7-3.2-8.2-3.2c-6,0-8.9,5.8-8.9,7.9c0,7.2,5.4,6.7,5.4,7.5s0.3,1.9-5,1.9
		c-11.3,0-17.8,6.6-17.8,14.1c0,6.1,3.1,11.5,8.5,11.5c4.2,0,4.4-1.1,4.4-1.1s-0.2-0.2-0.2-2.5c0-2.2,2.1-3.3,2.1-3.3
		c-0.5,1.4,0.5,4.4,0.5,4.4s2.6-1.1,2.6-3.7s-2.2-2.1-2.2-2.1s0.6-1.5,2.3-1.5s3.2,1.2,3.2,4c0,2.5-2.5,4.7-4.6,6.1
		c3.4,5.3,8.9,8.4,13,7.6c2.1-0.4,2.4-1.6,2.4-1.6c-0.8-0.9,0.4-3.1,0.8-0.8c0.4,2.3-1,5-5.6,6c-5,1-10-3.9-13.1-9.7
		c0,0-2.2,1-5.5,1C29.9,88.8,20,85.4,20,73.6z"/>
	<path id="XMLID_28_" class="st0" d="M60.8,77.9c0-3.7,6.6-12.7,6.6-12.7c-1.5,0-14.2,14.9-14.2,17c0,3.3-3,0-3-3.5
		c0-3.7,8.8-12.9,8.8-17.4c0-1.6,3.3,0.1,3.3,4.6c0,2.2-1.5,3.7-1.5,3.7s8.1-8.3,9.6-8.3c1.6,0,2.5,2.3,2.5,4.5
		c0,2.2-10.4,15.5-8.4,15.5c2.7,0,9.2-7.7,13.2-13.6c0.6-1,2-0.5,1,0.9c-1,1.4-10.4,14.9-14.8,14.9C62.1,83.5,60.8,81.2,60.8,77.9z"
		/>
	<path id="XMLID_30_" class="st0" d="M101.6,59.2c0-1.3-2.8-3.9-7.8-3.9c-0.9,0-1.9,0-2.8,0c-5.4,10-16,25.9-12.7,25.9
		c1.3,0,8.7-7.4,12.7-13.3c0.6-1,2-0.5,1,0.9c-1,1.5-11,14.7-15.1,14.7c-3.3,0-3.9-3-3.9-5.2c0-3.1,6.4-13.7,11.3-22.6
		c-1.6,0.1-3.2,0.1-5,0.1c-5,0-6.8-2-7.5-3.7c-0.5-1.6,0.2-1.9,0.9-1.2C74,52,76.2,53,79.3,53c2.7,0,5-0.2,6.6-0.4
		c2.2-4.2,3.8-7.6,3.8-9.1c0-1.3,4.3,0.3,4.3,4.8c0,0.8-0.6,2.2-1.6,4.1c0.4,0,0.8,0,1.3,0c5.6,0,8.1,3,8.8,5.4
		C103.2,59.4,101.6,59.2,101.6,59.2z"/>
	<path id="XMLID_32_" class="st0" d="M100.9,77.6c-0.1,0.2-0.3,0.4-0.5,0.6c0,0-0.2,0.3-0.6,0.7c-2.1,2.2-4.8,4.2-7.2,4.6h-0.1
		c-0.1,0-0.2,0-0.2,0c-0.2,0-0.3,0-0.4,0c-1.8,0-4.8-0.9-4.8-5.6c0-8,8.6-16.6,13.4-16.6c2.5,0,4.3,1.7,5.4,3.5
		c0.2,0.3-0.2,0.9-2.2,0.9c-7.4,0-15,15.9-11.1,15.9c2.6,0,7.5-5.3,7.5-5.3s-0.4-1.1-0.4-2.7c0-3.6,4.4-5.2,4.4-1.5
		c0,0.8-0.8,2.2-2.2,4.1c0.1,0.1,0.6,0.3,0.8,0.3c2.1,0,4.2-3.3,7.8-8.8c0.6-1,2-0.5,1,0.9c-0.8,1.3-5.2,9.4-9,9.4
		C101.8,78.2,101.3,77.9,100.9,77.6z"/>
	<path id="XMLID_34_" class="st0" d="M116.4,76.1c0,0-5.3,7.5-8,7.5c-1.9,0-3.9-1.4-3.7-4.8c0.2-3.1,8.1-13,8.4-17.2
		c0.1-1,4.1,0.5,3.9,4.1c-0.2,3.6-10.8,16.1-7.8,16.1c1.1,0,14.7-15.1,15.1-20.2c0.1-1,3.9,1,3.7,4.6c-0.3,3.6-10.4,15.7-7.7,15.7
		c1.3,0,8.7-7.9,12.7-13.8c0.6-0.9,2-0.5,1,0.9c-0.9,1.5-10.7,14.7-14.8,14.7C115.9,83.5,114.6,78.4,116.4,76.1z"/>
	<path id="XMLID_36_" class="st0" d="M150.8,93c0,0-1.2,3.2-5.9,3.2c-4.7,0-11-4.3-11-12.9c0-6.3,3.9-13.1,6.1-16.4
		c-1.3,0.6-3.6,1.3-6.1,1.3c-1.2,0-3.4-0.7-3.4-5.6c0-7,5.3-12,8.4-12c1.7,0,3,1.1,3,2.9c0,3.6-6.2,12-6.2,12s5.9-3.1,6.9-3.6
		c0.6-0.4,1.2-1,1.9-0.4c0.7,0.6,4.2,3.2,2.2,5.5c-2.1,2.3-8,10.5-8,18.2s4.2,9.6,6.9,9.6c2.6,0,3.9-1.1,4.3-1.9
		C150.3,92.1,150.8,93,150.8,93z M134.6,64.8c2.6-4.7,5.4-9,3.8-9c-1.6,0-4.6,4.4-4.6,6.6C133.8,63.9,134.6,64.8,134.6,64.8z"/>
	<path id="XMLID_39_" class="st0" d="M162.7,66c-5.2,0-17.1,15.2-13.9,15.2c1.1,0,10.3-10.2,9.9-11c-0.5-0.8,3.2-0.1,3.2,3.1
		c0,3.2-4.2,7.9-2.8,7.9s8.1-7.4,12-13.3c0.7-1,2-0.5,1.1,0.9c-1,1.4-10.3,14.7-14.4,14.7c-1.8,0-3.6-2.8-3.6-3.9s0.8-2.7,0.8-2.7
		s-5.6,6.6-7.3,6.6c-1.6,0-4.2-2.1-4.2-5.2c0-5.2,10.8-17,15.8-17C162,61.3,163.7,66,162.7,66z"/>
	<path id="XMLID_41_" class="st0" d="M194.6,68.9c-0.9,1.3-10.3,13-14.8,14.5l-0.1,0.1l-1,1.7c-4.9,7.9-11.6,15.5-18.6,15.5
		c-1.7,0-3.9-1.5-4.1-4.4c-0.3-2.9,16-10.2,16-10.2c1.9-2.1,6-10.1,6-10.1s-5.8,7.4-7.5,7.4c-1.6,0-4.4-2.1-4.6-5.2
		c-0.4-5.1,9.4-17,14.4-17c2.6,0,4.7,4.7,3.7,4.7c-5.2,0-15.8,15.2-12.6,15.2c1.1,0,9.5-10.2,8.9-11.1c-0.5-0.8,3.2-0.1,3.4,3.2
		c0.1,1.4-0.8,4.2-2.6,7.5c2.6-1.7,9-7.8,12.4-12.8C194.2,66.9,195.5,67.4,194.6,68.9z M170.4,88.2c0,0-13.3,6.8-13.2,8.4
		c0.1,0.8,0.8,1.2,1.6,1.2C163.1,97.9,170.4,88.2,170.4,88.2z"/>
	<path id="XMLID_44_" class="st0" d="M210.6,68.9c-0.9,1.5-11.7,14.6-17.4,14.6c0,0-4.3,0-4.3-5.5c0-8.1,10.7-16.7,13.6-16.7
		c1.2,0,3.1,0.8,3.1,5c0,4.2-9.5,11.6-11.8,11.6c0,0-1.7,3,0.7,3c3,0,11-7,14.9-12.9C210.2,67,211.6,67.5,210.6,68.9z M194.7,76.2
		c6.1-3.6,8.9-9.4,7.5-9.4C200.6,66.8,194.7,76.2,194.7,76.2z"/>
</g>
</svg>
