<?xml version="1.0" encoding="utf-8"?>
<!-- Generator: Adobe Illustrator 19.0.0, SVG Export Plug-In . SVG Version: 6.00 Build 0)  -->
<svg version="1.1" id="Layer_1" xmlns="http://www.w3.org/2000/svg" xmlns:xlink="http://www.w3.org/1999/xlink" x="0px" y="0px"
	 viewBox="-10 40.9 128.8 70.1" style="enable-background:new -10 40.9 128.8 70.1;" xml:space="preserve">
<style type="text/css">
	.st0{fill:#FFFFFF;}
</style>
<g id="XMLID_61_">
	<path id="XMLID_62_" class="st0" d="M92.1,111c-2.2,1,1.4-12.2-70.8-1c-4.1,0.6-3.1-3.6,10.6-6.1C100.2,92.3,107.9,102.5,92.1,111z
		"/>
</g>
<g id="XMLID_5_">
	<path id="XMLID_8_" class="st0" d="M33.8,49c-1.1,4.7-8.1,8.6-13.8,10.8c-4.1,1.6-13.8,3.7-13.8,3.7c-2.4,3-5.3,7-6.1,10.2
		l-0.3,0.8c-3.1,11.6,16.7,5.9,20.3-2c0.2-0.5,0.4-0.9,0.5-1.4c0,0,0,0,0.1,0c0.8-2.9,1.4-5.4,1.2-7c-0.3-1.1-1.2-1.4,0.2-1.8
		c1.4-0.4,3.4,0.9,4.2,5c0.9,5.4-13.1,39-27.1,42.8c-2.1,0.6-4.7-0.5-5.4-4.1s19.1-18.5,19.1-18.5c0.9-1.4,2.9-4.9,4.6-8.9
		c-9.2,6.4-25.4,6-21.7-8c0.5-2,1.7-4.3,3.4-6.7h-0.7c-4.2-0.3-7.5-1.6-8.3-4.4c-1.1-4.4,2.8-7.6,4-7.6c1.3,0-1.2,1.1-0.7,3.1
		c0.7,2.4,3.5,4.2,7.5,5.1c0.7-0.9,1.5-2,2.3-2.9c1.7-2.1,3.7-4.3,6-6.4c2.2-2.1,4.4-3.9,6.7-5.4c4.8-3.1,8.4-4.5,11.8-4.5
		C34.3,40.9,34.4,46.8,33.8,49z M11.1,90.6c0,0-16.2,13.3-15.8,15.2c0.2,1,1.1,1.3,2.1,1.1C3,105.4,11.1,90.6,11.1,90.6z M28.5,47.1
		c-2,0-5,1.2-9.1,3.7c-1.1,0.6-2.9,1.8-5.1,3.6c-1.8,1.5-3.3,3.1-4.7,4.5c-0.5,0.6-1,1.2-1.6,1.8c4-0.1,8.3-1.2,12.3-2.9
		c3.3-1.3,9.6-5.5,10.3-8.5C30.9,48,29.7,47.1,28.5,47.1z"/>
	<path id="XMLID_12_" class="st0" d="M37.4,75.1c0,0-5.3,7.5-8,7.5c-1.9,0-3.9-1.4-3.7-4.8c0.2-3.1,8.1-13,8.4-17.2
		c0.1-1,4.1,0.5,3.9,4.1c-0.2,3.6-10.8,16.1-7.8,16.1c1.1,0,14.7-15.1,15.1-20.2c0.1-1,3.9,1,3.7,4.6c-0.3,3.6-10.4,15.7-7.7,15.7
		c1.3,0,8.7-7.9,12.7-13.8c0.6-0.9,2-0.5,1,0.9c-1,1.4-10.8,14.6-14.9,14.6C36.9,82.6,35.6,77.4,37.4,75.1z"/>
	<path id="XMLID_14_" class="st0" d="M71.1,67.9c-0.9,1.5-11.7,14.6-17.4,14.6c0,0-4.3,0-4.3-5.5c0-8.1,10.7-16.7,13.6-16.7
		c1.2,0,3.1,0.8,3.1,5c0,4.2-9.5,11.6-11.8,11.6c0,0-1.7,3,0.7,3c3,0,11-7,14.9-12.9C70.7,66,72,66.5,71.1,67.9z M55.1,75.2
		c6.1-3.6,8.9-9.4,7.5-9.4C61.1,65.8,55.1,75.2,55.1,75.2z"/>
	<path id="XMLID_17_" class="st0" d="M88.2,67.6c-0.8,1.2-3.1,5.3-10,6.6c0,0.1,0,0.2,0,0.3c-0.1,6.6-4.4,8-6.7,8
		c-1,0-4.4-1-4.4-3.9c0-3.8,7-5.1,7-5.1s0.9-5.3,0.1-9.7c0,0,0-0.2,0-0.6c-0.9,1.5-2.1,3.3-3.3,5c-0.8,1.2-1.9,0.2-1.2-0.8
		c1.5-2.2,4.2-6.2,5-8.9c0.3-1.1,0.9-3.3,1.7-2.7c1,0.8,4,2.8,4,5.4c0,2.4-1.9,2.4-2.1,11.6c3.8-0.8,6.6-2.7,8.9-6
		C87.8,65.7,89.2,66.2,88.2,67.6z M74.1,75.2c0,0-5.4,1.3-5.4,3.8C68.7,80.9,72.6,81,74.1,75.2z"/>
	<path id="XMLID_20_" class="st0" d="M111,58.3c0-1.3-2.8-3.9-7.8-3.9c-0.9,0-1.9,0-2.8,0c-5.5,9.9-16.1,25.9-12.8,25.9
		c1.3,0,8.7-7.4,12.7-13.3c0.6-1,2-0.5,1,0.9c-0.9,1.4-10.9,14.7-15,14.7c-3.3,0-3.9-3-3.9-5.2c0-3.1,6.4-13.7,11.3-22.6
		c-1.6,0.1-3.2,0.1-5,0.1c-5,0-6.8-2-7.5-3.7c-0.5-1.6,0.2-1.9,0.9-1.2c1.3,1.1,3.5,2.1,6.6,2.1c2.7,0,5-0.2,6.6-0.4
		c2.2-4.2,3.8-7.6,3.8-9.1c0-1.3,4.3,0.3,4.3,4.8c0,0.8-0.6,2.2-1.6,4.1c0.4,0,0.8,0,1.3,0c5.6,0,8.1,3,8.8,5.4
		C112.6,58.4,111,58.3,111,58.3z"/>
	<path id="XMLID_22_" class="st0" d="M118.5,67.6c-0.8,1.2-3.1,5.3-10,6.6c0,0.1,0,0.2,0,0.3c-0.1,6.6-4.4,8-6.7,8
		c-1,0-4.4-1-4.4-3.9c0-3.8,7-5.1,7-5.1s0.9-5.3,0.1-9.7c0,0,0-0.2,0-0.6c-0.9,1.5-2.1,3.3-3.3,5c-0.8,1.2-1.9,0.2-1.2-0.8
		c1.5-2.2,4.2-6.2,5-8.9c0.3-1.1,0.9-3.3,1.7-2.7c1,0.8,4,2.8,4,5.4c0,2.4-1.9,2.4-2.1,11.6c3.8-0.8,6.6-2.7,8.9-6
		C118,65.7,119.4,66.2,118.5,67.6z M104.3,75.2c0,0-5.4,1.3-5.4,3.8C98.9,80.9,102.8,81,104.3,75.2z"/>
</g>
</svg>
