<?xml version="1.0" encoding="utf-8"?>
<!-- Generator: Adobe Illustrator 19.0.0, SVG Export Plug-In . SVG Version: 6.00 Build 0)  -->
<svg version="1.1" id="Layer_1" xmlns="http://www.w3.org/2000/svg" xmlns:xlink="http://www.w3.org/1999/xlink" x="0px" y="0px"
	 viewBox="-10 38.2 127.9 75.8" style="enable-background:new -10 38.2 127.9 75.8;" xml:space="preserve">
<style type="text/css">
	.st0{fill:#FFFFFF;}
</style>
<g id="XMLID_1_">
	<path id="XMLID_2_" class="st0" d="M88.7,114c-2.2,1,1.4-12.2-70.8-1c-4.1,0.6-3.1-3.6,10.6-6.1C96.9,95.3,104.6,105.5,88.7,114z"
		/>
</g>
<g id="XMLID_47_">
	<path id="XMLID_48_" class="st0" d="M52.2,50.6c0,5.5-6.4,8-11.8,8c-3,0-6.2-0.6-8.7-1.7c-0.5-0.2-1.1-0.5-1.6-0.7l-0.2-0.1
		c0,0-16.5,29.1-16.5,35.3c0,2.3-3.8-2.1-3.8-6.5c0-6.4,15-31.4,15-31.4l-0.2-0.1c-0.6-0.5-13.1-10.8-21.2-10.8
		C-2.9,42.6-7,46.5-7.5,52c-0.3,2.9,1,5.5,2.3,6.9c1.6,1.8,4.5,2.8,6.6,2.8c3.2,0,6.8-2.7,6.8-5.8c0-1.3-0.5-3.4-1.5-3.4
		c-1.5,0-2.6,1.2-2.6-0.1c0-1.5,1.3-2.1,2.6-2.1c3.7,0,4,3.7,4,5.1c0,4.1-2.5,9.9-10.2,9.9c-2.6,0-5.3-1.3-7.3-3.5
		c-2.4-2.6-3.5-6-3.2-9.5c0.6-7.1,5.9-14.1,14.6-14.1c9.7,0,28,15.5,37.5,15.5c3.3,0,7.7-2.5,7.7-5.3c0-2.4-4.4-4.1-1.6-4.1
		C51.2,44.3,52.2,47.9,52.2,50.6z"/>
	<path id="XMLID_50_" class="st0" d="M34.7,79.2c0-2.6,6.4-11.9,6.4-11.9S26.4,80.6,26.4,84.8c0,1.7-3.8-0.1-3.8-3
		c0-4.5,17.2-27.3,17.2-32.3c0-0.9,3.5,0.9,3.5,4.6c0,3.7-11.4,19.5-11.4,19.5s10.6-10.2,12.4-10.2s2.5,2.5,2.5,4.7
		s-10.7,15.2-6.5,15.2c1.3,0,8.3-7.4,12.3-13.3c0.7-1,2-0.5,1,0.9C52.7,72.3,43,85.6,38.9,85.6C36,85.6,34.7,81.8,34.7,79.2z"/>
	<path id="XMLID_52_" class="st0" d="M69.7,70.9c-1,1.5-11.7,14.7-17.4,14.7c0,0-4.3,0-4.3-5.5c0-8.1,10.7-16.7,13.6-16.7
		c1.2,0,3.1,0.8,3.1,5c0,4.2-9.5,11.6-11.8,11.6c0,0-1.7,3,0.7,3c3,0,11-7,14.9-12.9C69.2,69,70.6,69.5,69.7,70.9z M53.7,78.2
		c6.1-3.6,8.9-9.4,7.5-9.4C59.7,68.9,53.7,78.2,53.7,78.2z"/>
	<path id="XMLID_55_" class="st0" d="M83.8,80.2c0-3.7,7.4-13.1,7.4-13.1c-0.7,0-7.8,5.7-10.6,9.4c-1.9,2.9-4.6,7.9-4.6,8.7
		c0,1.2-2.6-1.5-2.6-4.9c0-3.7,7.5-13.3,7.5-13.3c-1.5,0-15.3,16-15.3,18.2c0,1.2-3-0.8-3-4.3c0-3.7,9-13.3,9-17.8
		c0-1.6,3.2,0.1,3.2,4.6c0,2.1-1.9,4.9-1.9,4.9s9-9.4,10.5-9.4c1.6,0,2.9,2.3,2.9,4.5c0,0.6-0.5,1.6-1.2,2.8
		c2.2-2.2,7.5-7.3,8.7-7.3c1.5,0,2.5,2.3,2.5,4.5s-10.8,16-8.8,16s9.4-8,13.3-14c0.6-1,2-0.5,1,0.9c-0.9,1.4-10.1,14.9-15,14.9
		C85,85.6,83.8,83.6,83.8,80.2z"/>
	<path id="XMLID_57_" class="st0" d="M117.6,70.9c-0.9,1.5-11.7,14.6-17.4,14.6c0,0-4.3,0-4.3-5.5c0-8.1,10.7-16.7,13.6-16.7
		c1.2,0,3.1,0.8,3.1,5c0,4.2-9.5,11.6-11.8,11.6c0,0-1.7,3,0.7,3c3,0,11-7,14.9-12.9C117.2,69,118.5,69.5,117.6,70.9z M101.6,78.2
		c6.1-3.6,8.9-9.4,7.5-9.4C107.6,68.9,101.6,78.2,101.6,78.2z"/>
</g>
</svg>
