<?xml version="1.0" encoding="utf-8"?>
<!-- Generator: Adobe Illustrator 19.0.0, SVG Export Plug-In . SVG Version: 6.00 Build 0)  -->
<svg version="1.1" id="Layer_1" xmlns="http://www.w3.org/2000/svg" xmlns:xlink="http://www.w3.org/1999/xlink" x="0px" y="0px"
	 viewBox="-39 57.1 69.4 37.9" enable-background="new -39 57.1 69.4 37.9" xml:space="preserve">
<g id="XMLID_1_">
	<path id="XMLID_2_" fill="#FFAE20" d="M-5.7,63.9c-7.2-0.4-11.3,2.6-13.4,6.6c3.7,1,7.1,2.7,9.3,5.2c1.9-0.6,3.1-1.2,3.1-1.2
		c9-29.1,40.7-10.6,36.8,2.8C26.2,90.9,9.9,83.8,16.9,83c6.7-1,8.3-17-4.5,0.8c-12.9,17.9-19.8-3.1-15.8-4.6
		c10.1-4.5,12.7-13,26.4-7.6c1,0.4-7.2-10.9-25,3.9c-1.9,1.7-4,3-5.8,4.2c0.2,1,0.3,2.2,0.2,3.4c-1.5,17.3-12.4,13.5-16.2,2.6
		C-33.3,87-39.3,83-39,78.4c0.5-6.5,7.8-9.1,15.2-8.7c0.8-2.4,2.1-5,3.9-7.4C-11.1,49.6-2.2,64.1-5.7,63.9z M-11.8,90.1
		c1.8-3.7,2.1-6.7,1.5-9.1c-3.5,2-6.8,3.3-9.8,4.1C-18.4,91.5-14.4,95.8-11.8,90.1z M-21,79.3c3-0.8,5.8-1.6,8.3-2.4
		c-1.9-1.9-4.6-3-7.6-3.7C-20.8,75.1-21,77.1-21,79.3z M-35.2,75.6c-0.7,4.8,4.3,5.4,10.2,4.5c-0.2-2.3-0.1-4.8,0.4-7.4
		C-29.9,72.4-34.9,73.7-35.2,75.6z"/>
</g>
</svg>
