<?xml version="1.0" encoding="utf-8"?>
<!-- Generator: Adobe Illustrator 19.0.0, SVG Export Plug-In . SVG Version: 6.00 Build 0)  -->
<svg version="1.1" id="Layer_1" xmlns="http://www.w3.org/2000/svg" xmlns:xlink="http://www.w3.org/1999/xlink" x="0px" y="0px"
	 viewBox="0 0 47 47" enable-background="new 0 0 47 47" xml:space="preserve">
<path fill="#FFFFFF" d="M36,9.5c-3.3,0-6,2.7-6,6H7c-1.1,0-2,0.9-2,2v18c0,1.1,0.9,2,2,2h28c1.1,0,2-0.9,2-2V21.4
	c2.8-0.5,5-2.9,5-5.9C42,12.2,39.3,9.5,36,9.5z M7,17.5h23.3c0.3,0.9,0.9,1.7,1.6,2.4l-10.9,8L7,17.6V17.5z M7,18.9l9.2,6.7L7,34.8
	V18.9z M7.7,35.5l9.3-9.3l3.7,2.7C20.8,29,20.9,29,21,29c0.1,0,0.2,0,0.3-0.1l3.7-2.7l9.3,9.3H7.7z M35,34.8l-9.2-9.2l6.9-5.1
	c0.7,0.4,1.4,0.7,2.3,0.9V34.8z M37,19.5h-2v-2h2V19.5z M37,16.5h-2v-5h2V16.5z"/>
</svg>
