<?xml version="1.0" encoding="utf-8"?>
<!-- Generator: Adobe Illustrator 19.0.0, SVG Export Plug-In . SVG Version: 6.00 Build 0)  -->
<svg version="1.1" id="Layer_1" xmlns="http://www.w3.org/2000/svg" xmlns:xlink="http://www.w3.org/1999/xlink" x="0px" y="0px"
	 viewBox="-39 57.1 69.4 37.9" enable-background="new -39 57.1 69.4 37.9" xml:space="preserve">
<g id="XMLID_1_">
	<path id="XMLID_2_" fill="#FFAE20" d="M11.3,62.3c1.8,2.4,3,5,3.9,7.4c7.4-0.4,14.7,2.2,15.2,8.7c0.3,4.6-5.6,8.7-15.2,7.4
		C11.4,96.6,0.5,100.4-1,83.1c-0.1-1.2,0-2.4,0.2-3.4c-1.9-1.2-3.9-2.5-5.8-4.2c-17.8-14.8-26.1-3.4-25-3.9
		c13.8-5.4,16.3,3.2,26.5,7.7c4,1.5-3,22.5-15.8,4.6c-12.8-17.8-11.2-1.8-4.6-0.8c7,0.8-9.3,7.9-13.2-5.7
		c-3.9-13.5,27.7-32,36.8-2.8c0,0,1.2,0.6,3.1,1.2c2.2-2.5,5.6-4.3,9.3-5.2c-2.1-4.1-6.2-7-13.4-6.6C-6.4,64.1,2.5,49.6,11.3,62.3z
		 M11.5,85c-3-0.8-6.3-2.1-9.8-4.1c-0.6,2.4-0.3,5.4,1.5,9.1C5.8,95.8,9.7,91.5,11.5,85z M11.6,73.2c-3,0.7-5.6,1.9-7.6,3.7
		c2.5,0.8,5.4,1.6,8.3,2.4C12.4,77.1,12.2,75.1,11.6,73.2z M15.9,72.7c0.5,2.5,0.6,5,0.4,7.4c6,0.9,10.9,0.3,10.2-4.5
		C26.3,73.7,21.3,72.4,15.9,72.7z"/>
</g>
</svg>
