<?xml version="1.0" encoding="utf-8"?>
<!-- Generator: Adobe Illustrator 19.0.0, SVG Export Plug-In . SVG Version: 6.00 Build 0)  -->
<svg version="1.1" id="Layer_1" xmlns="http://www.w3.org/2000/svg" xmlns:xlink="http://www.w3.org/1999/xlink" x="0px" y="0px"
	 viewBox="-48 26 52.7 100" style="enable-background:new -48 26 52.7 100;" xml:space="preserve">
<style type="text/css">
	.st0{fill:#FFAE20;}
</style>
<path class="st0" d="M-23.6,58.6c0,3.2-3,6.7-6.8,6.7v54.8c0,7.8-10.6,7.8-10.6,0V65.4c-3.7,0-7-2.9-7-7.2V28c0-2.6,3.8-2.7,3.8,0.1
	v22.3h3.2V27.9c0-2.4,3.7-2.6,3.7,0.1v22.4h3.3V27.9c0-2.5,3.6-2.6,3.6,0.1v22.4h3.3V27.9c0-2.5,3.7-2.6,3.7,0.1L-23.6,58.6
	L-23.6,58.6z"/>
<path class="st0" d="M4.7,35v85.1c0,7.6-10.6,7.5-10.6,0V86.3h-5.6V35C-11.6,23.1,4.7,23.1,4.7,35L4.7,35z"/>
</svg>
