<?xml version="1.0" encoding="utf-8"?>
<!-- Generator: Adobe Illustrator 19.0.0, SVG Export Plug-In . SVG Version: 6.00 Build 0)  -->
<svg version="1.1" id="Layer_1" xmlns="http://www.w3.org/2000/svg" xmlns:xlink="http://www.w3.org/1999/xlink" x="0px" y="0px"
	 viewBox="0 0 400 300.1" enable-background="new 0 0 400 300.1" xml:space="preserve">
<g id="XMLID_334_">
	<path id="XMLID_471_" fill="#FFFFFF" d="M250.4,262c-1.5,1.5,0.8,3.7,2.2,3.7c0.7,0,1.5-0.7,2.2-0.7c9.5,0,24.2,4.3,29.3,8
		c0.7,0.7,3.7-2.9,2.9-4.4c0-2.2-8-3.6-16.1-5.2c11.7,0,23.5,1.5,29.3,4.5c1.5,0.7,3.7-5.2,3-6.6C301,255.5,260,257.7,250.4,262z"/>
	<path id="XMLID_472_" fill="#FFFFFF" d="M99.4,82.1c6.1-1.4,11-5.4,12.1-10.6c0.7-3.5-0.2-5.9-1.3-7.2c-1.1-1.5-2.4-2.1-2.4-2.1
		c-0.1-0.1-1.6-0.8-2.8-0.2c-0.5,0.2-0.9,0.7-0.9,1.4c-0.1,0.4,6.2,3.4,5.2,8.4c-0.6,3.2-3.5,4.9-7.2,5.7c-6.3,1.5-11.5-0.5-12.7-6
		c-4.7-19.9,23.8-46.2,36.9-49.3c6.4-1.5,10.8,1.2,11.8,5.2c2.9,12.3-32.4,64.8-26.2,91.3c2.2,9.4,11.5,8.7,10.8,5.8
		c-2.5-10.8,29.3-67.9,37.4-69.8c0,0-23.6,45.7-20.6,58.7c2.2,9.3,9.7,6,9.7,6c7.5-16,26.7-46.9,33.5-54.7
		c-1.5,2.5-3.9,6.6-5.9,11.6c-3.3,7.3-7.5,18.8-4.7,30.8c4.9,20.8,24.8,28.7,39,25.3c6.9-1.6,10.6-5.3,12.5-8
		c2.1-3.1,2.5-5.7,2.5-5.8c0-0.1,0.3-3.2-1.3-4.7c-0.8-0.7-1.9-0.9-3.2-0.6c-0.9,0.2-0.1,12.8-12.2,15.7
		c-10.4,2.4-23.6-6.5-27.2-21.8c-3-12.6,3.9-25.4,8.2-34.9c2.8-6.3,4.8-10.9,4.3-13c-0.6-2.7-5.4-6.9-9.6-5.9
		c-0.7,0.2-2.7,0.6-19.8,28.4c-7,11.2-13.7,22.6-15.9,26.2c2.2-8.5,7.1-19.9,12.4-31.1c0,0,10.9-21.6,9.8-26
		c-0.7-3-6.3-7.7-10.9-6.6c-4.6,1.1-32.7,49.4-32.7,49.4c-1-4.2,22.9-45.3,19.4-60.3c-1.3-5.6-6.3-18.2-21.1-14.7
		c-28,6.6-52.9,35.3-48.7,53.1C79.7,79.8,88.1,84.8,99.4,82.1z"/>
	<path id="XMLID_586_" fill="#FFFFFF" d="M193.1,96.8c1.6,7,8.4,10.2,12,9.4c3.7-0.9,12.7-18.4,12.7-18.4s-0.8,4-0.3,6.4
		c0.6,2.5,6,7.7,10,6.7c5.3-1.2,12.3-13.7,17.4-24.5c-0.9,4.1-1.3,7.5-0.6,9.4c2.4,7.2,8.6,9,12.5,8.1c0.9-0.2,1.7-0.8,2.5-1.6
		c-1.1,3.1-2.1,5.8-3,7.4c0,0-32.2,24.4-30.1,30.7c2,6.4,7.7,8.5,11.6,7.6c7.8-1.8,12.8-7.7,18.3-16.1c6-8.5,11.3-19.2,15.4-30.1
		l0.7-2.2l0.2-0.5c9.2-5.9,23.7-36.2,25-39.6c1.3-3.7-1.9-4-2.8-1.5c-4.6,12.2-14.5,27.9-19.7,33.8c5.2-16.1,7.5-29.4,5.8-34.6
		c-2.5-7.4-10.5-10.5-9.8-8.6c3.6,11.1-8.3,49.6-15.1,51.2c-6.1,1.4,7.4-30.3,4.8-38c-2.6-7.8-11.6-9.8-10.8-7.5
		c1.1,3.3,0.3,8.6-0.9,14.5c-0.1,0.2-0.2,0.4-0.3,0.6c-5.6,15.2-16.6,34.9-19.7,35.6c-3.2,0.7,3.7-11.8,2-19
		c-1.7-7.2-10.1-6.8-8.6-5.3c1.4,1.5-13.7,28.9-16.1,29.5c-7.1,1.7,11.3-38.1,22.8-40.8c2.2-0.5-4.1-10.1-10-8.7
		C208.3,53.5,190.4,85.4,193.1,96.8z M233.1,132.4c-1.8,0.4-3.5-0.3-4.1-2.1c-1.1-3.4,25-25.3,25-25.3S242.8,130.2,233.1,132.4z"/>
	<path id="XMLID_595_" fill="#FFFFFF" d="M134.8,181.5c-0.7,0.2-1.5,0.7-1.5,0.7c-0.3,0.3-1.1,0.6-2.2,0.9
		c-6.6,1.6-12.8,0.8-13.6,0.8l-2.8,0l0.2-0.6c1.8-5.5,4.4-14.8,5.8-19.9c1,0.2,2.1,0.5,3.2,0.7c5.1,0.8,11.5,0.8,17.3,0.1
		c10.5-1.5,22.6-7.3,22.3-15.1c-0.4-3.7-3.3-7.2-7.7-9.7c-4.6-2.7-10.7-3.7-16.5-2.8c-15.5,2-24.8,12.2-25.4,13.4
		c-10.5-2-47.1-7.6-64.6-3.2c-21.4,5.4-30.1,21.9-27.4,35.6c1.3,6.8,6.3,12.6,13.4,16c6.4,3,13.7,3.8,20.1,2.2
		c16.1-4,25.2-16.9,23.3-26.4c-0.5-2.6-2.2-4.6-4.9-5.9c-3.4-1.5-8.2-2-12.4-1c-3.2,0.8-6.5,2.8-6.4,5.6l0.1,0
		c1.2-0.3,4.4-0.9,7.2,0.4c2,1,3.2,2.7,3.5,5.3c1.4,6-2.9,11.2-10.6,13.1c-5.1,1.3-12.5,0.3-17.7-2.2c-3.6-1.7-8.1-4.9-9.3-10.7
		c-2.1-10.8,5.3-19.1,20-22.8c19.6-4.9,60.5,4.1,62.1,4.6c-1.2,4.4-3.3,13.4-5.9,19.8c-0.7,1.6-1.2,2.4-1.8,4l-0.1,0.2l-0.1,0.1
		c-0.8,0.3-1.4,0.7-1.8,1c-3.8,2.7-6.6,7.4-4.6,10.4c0.8,1.3,1.2,1.3,1.2,1.3l0.9-0.1l-0.2,0.6c-0.6,1.4-1.1,2.8-1.5,4.2l-4.7,15.4
		c-2.7,10.2-3.1,13.7-1.8,18.4c2.7,8.7,10.7,10.6,9.7,7.6c-1.7-5.4,5-29.3,11.7-49.3l0.2-0.4l1.6-0.1c8.5,0,6.5,0.5,12.9-1.1
		c2.3-0.6,3.9-1.3,5.1-2c7.3-5.3,5.6-7.8,5.2-8.6C135.8,181.3,135.5,181.3,134.8,181.5z M124.9,151.4c0.1,0,7.1-9.4,17.3-10.7
		c2.2-0.4,5.6-0.5,8,0c5,0.8,8,2.8,7.6,5.3c-0.2,2.7-6,5.3-12.1,6.8c-7.5,1.9-14,0.1-20.5-0.8l-0.4-0.1L124.9,151.4z"/>
	<path id="XMLID_596_" fill="#FFFFFF" d="M320.9,109.2c-2.3,0.6-6.2,4.1-5,11.4c1.1,7.4,6.1,10.5,8.3,9.9c1.5-0.4,1.3-0.4,3-6.4
		c1.7-6.1,4.6-7.3,4.1-10.7C330.8,110,323.2,108.7,320.9,109.2z"/>
	<path id="XMLID_599_" fill="#FFFFFF" d="M375.8,135.3c-3.1,8.6-8.3,14.2-16.3,18.2c-4.6-20.3-0.3-21.3-1.7-26.7
		c-1.4-5.6-9-8.4-11.7-9.6c-2.1-0.9-2.3,4.3-2.3,6.8c-0.2,5.6-3.2,14.5-5.3,20.4c-0.1,0.1-0.1,0.3-0.2,0.4
		c-5.4,15.5-16.9,35.6-19.9,36.3c-10.3,2.6,5.4-27.2,4.2-35c-1.2-7.8-6.6-10.6-9-10c-2.4,0.6-1.3,2.9-1.5,5c-0.4,3.2-1.1,6.5-2,9.7
		c-0.2,0.3-0.4,0.6-0.6,1c-5.5,15.3-18.8,36.5-21.8,37.2c-2.6,0.6-5.7-0.2-6.9-4.9c-3.2-12.6,5.5-27.1,5.5-27.1s3.5,10.8,10.6,9
		c-2.5-9.9,4.9-8.9,2.1-19.9c-1.9-7.8-6.9-9.5-6.4-7.7c0.5,2-3.1,5.9-2.9,6.8c0,0-1.7-3.4-4.7-2.7c-5.5,1.4-12.4,15.7-15.2,27.2
		c-5.6,13.3-13.2,27-18,28.2c-4.5,1.1,11.1-34,9.9-38.9c-1.2-4.8-4.5-9.3-8-8.5c-3.2,0.8-15.9,22.1-16.7,23.4
		c0.3-0.5,2.4-4.4,1.3-8.8c-2.5-9.8-10.6-11.8-9.7-8.3c1.3,5.1-1.9,14.2-5,22.9c-5.7,13.8-13.9,28.5-16.5,29.2
		c-3.1,0.8,3.5-11.9,1.7-19c-1.8-7.2-10.2-6.6-8.7-5.1c1.4,1.5-13.3,29.1-15.7,29.7c-7.1,1.8,10.7-38.2,22.2-41.1
		c2.2-0.5-4.3-10-10.1-8.6c-8,2-19.4,19.6-23.9,33.4c-1.6,1.2-2.7,1.3-3,0.3c-3.3-12.7,12.9-21.3,8.5-24.5
		c-9.3-6.6-15.7,1.5-17.3,11c-2.7,3.6-6.6,8.6-10,12.1c2.3-10.3,6.8-15.8,8.5-19c2-3.6-7.6-6.6-13.9-1.4c-5.7,4.7-10,49.5-7.9,51.8
		c4.2,4.7,13.2-5.3,12.9-5c-1-6.8-1.2-12.8-0.8-17.8l10.7-15.3c0,2.5,0.4,5,1.2,7.2c1.2,3.7,4.2,6.6,7.2,6.7c0.8,0,1.6-0.1,2.4-0.4
		c-0.5,2.9-0.6,5.4-0.2,7.3c1.7,7,8.6,10.1,12.1,9.2c3.6-0.9,12.4-18.6,12.4-18.6s-0.8,4.1-0.2,6.4c0.6,2.5,6.1,7.6,10.1,6.6
		c4-1,8.8-8.3,13-16.5c0,0.6,0.1,1.2,0.2,1.7c1.9,7.8,10.5,13.4,8.6,6.1c-1.2-4.6,18.8-44.4,22-45.2c0,0-9.6,23.3-7.6,31.6
		c1.8,7.4,6,11.8,9.8,10.8c5.4-1.4,11.9-12.7,16.9-23.2c0.1,0.5,0.1,1,0.2,1.5c2.3,9,7.5,15.6,17.3,13.1
		c5.3-1.3,13.2-14.6,18.9-25.9c-0.5,2.7-0.8,5-0.5,6.8c0.8,5.4,4.6,13.1,12.1,11.2c8.5-2.1,21.2-32.5,24-39.5c0,0,0,0,0-0.1
		c1.7-4.3,3.3-9,4.5-12.7c0.2,0.9,0.4,1.4,0.4,1.4c4.2,9.4,5.1,21.5,5.1,21.5s-14.6,6.8-12.5,15.2c1.6,6.4,9.5,6.7,11.8,6.1
		c5.2-1.3,13.9-6.8,10.4-21.4c-0.1-0.3-0.1-0.5-0.2-0.7c14.3-6.6,17.3-17.1,18.3-20C380,133,376.8,132.8,375.8,135.3z M341.8,172.6
		c-1.4-5.5,9.9-11.4,9.9-11.4C351.7,174.9,342.9,176.9,341.8,172.6z"/>
	<path id="XMLID_602_" fill="#FFFFFF" d="M300.1,88.3c0.5,0.5,1.1,0.8,1.9,1.1c0.7,0.3,1.6,0.4,2.5,0.4c0.6,0,1.2-0.1,1.8-0.2
		c0.6-0.1,1.2-0.3,1.9-0.5c0.6-0.2,1.3-0.5,1.9-0.9c0.6-0.4,1.3-0.8,1.9-1.3c0.9,1.3,1.8,2.3,2.5,3.2c0.7,0.9,1.4,1.7,2,2.3
		c0.6,0.6,1.2,1.1,1.7,1.5c0.5,0.4,1.1,0.7,1.6,0.9c0.5,0.2,1.1,0.3,1.6,0.4c0.5,0.1,1.1,0.1,1.8,0.1c0.5,0,1,0,1.5-0.2
		c0.5-0.1,1-0.2,1.4-0.4c0.5-0.2,0.9-0.4,1.3-0.7c0.4-0.3,0.8-0.6,1.1-0.9c0.3-0.3,0.6-0.7,0.7-1.1c0.2-0.4,0.3-0.8,0.3-1.3
		c0-0.2-0.1-0.5-0.2-0.7c-0.1-0.2-0.3-0.4-0.5-0.5c-0.4,0.1-0.9,0.3-1.3,0.4c-0.4,0.1-0.8,0.1-1.2,0.1c-0.5,0-0.9,0-1.3-0.1
		c-0.4-0.1-0.9-0.2-1.3-0.4c-0.4-0.2-0.9-0.5-1.4-0.8c-0.5-0.4-1-0.8-1.5-1.4c-0.6-0.6-1.2-1.3-1.9-2.1c-0.7-0.8-1.5-1.8-2.3-2.9
		c0.6-0.7,1.2-1.4,1.8-2.2c0.6-0.8,1.2-1.6,1.7-2.5c0.5-0.9,1.1-1.8,1.5-2.7c0.5-0.9,0.9-1.9,1.3-2.8c0.2,0,0.5,0,0.8,0
		c0.3,0,0.6,0,0.9,0.1c0.3,0,0.6,0.1,0.9,0.1c0.3,0,0.5,0.1,0.7,0.2c0.1,0.3,0.2,0.5,0.3,0.7c0.1,0.2,0.2,0.3,0.3,0.5
		c0.1,0.1,0.2,0.2,0.4,0.2c0.1,0,0.3,0.1,0.4,0.1c0.2,0,0.5-0.1,0.7-0.3c0.3-0.2,0.5-0.4,0.8-0.7c0.3-0.3,0.5-0.6,0.7-1
		c0.2-0.4,0.4-0.8,0.6-1.2c0.2-0.4,0.3-0.8,0.4-1.2c0.1-0.4,0.2-0.7,0.2-1.1c0-0.4-0.1-0.8-0.2-1c-0.1-0.3-0.3-0.5-0.6-0.7
		c-0.3-0.2-0.6-0.3-1-0.4c-0.4-0.1-0.9-0.1-1.5-0.1c-0.5,0-1.1,0-1.7,0.1s-1.2,0.1-1.8,0.2c-0.6,0.1-1.2,0.2-1.8,0.3
		c-0.6,0.1-1.2,0.2-1.7,0.3c-0.5,0.1-1,0.2-1.5,0.4c-0.4,0.1-0.8,0.3-1.1,0.4c-0.4,0.1-0.7,0.3-1,0.5c-0.3,0.2-0.6,0.4-0.8,0.7
		c-0.2,0.3-0.4,0.5-0.5,0.9c-0.1,0.3-0.2,0.7-0.2,1c0,0.1,0,0.3,0.1,0.4c0,0.1,0.1,0.3,0.2,0.4c0.1,0.1,0.2,0.2,0.4,0.3
		c0.1,0.1,0.3,0.1,0.5,0.1c0.1,0,0.2,0,0.3,0c0.1,0,0.3,0,0.4,0c0.1,0,0.3,0,0.4,0c0.1,0,0.2,0,0.3,0c-0.2,0.5-0.4,1.1-0.7,1.6
		c-0.3,0.6-0.6,1.2-0.9,1.8c-0.3,0.6-0.7,1.2-1.1,1.8c-0.4,0.6-0.9,1.2-1.3,1.7c-0.3-0.4-0.6-0.8-0.9-1.2c-0.3-0.4-0.7-0.9-1-1.3
		c-0.3-0.5-0.6-0.9-0.9-1.4c-0.3-0.5-0.6-0.9-0.9-1.4c0.7-0.9,1.4-1.8,2-2.5c0.6-0.8,1.1-1.5,1.5-2.1c0.4-0.7,0.8-1.3,1.1-1.8
		c0.3-0.6,0.5-1.1,0.7-1.6c0.2-0.5,0.3-1,0.4-1.5c0.1-0.5,0.1-1,0.1-1.5c0-0.5-0.1-1.1-0.3-1.6c-0.2-0.5-0.5-1-0.8-1.3
		c-0.4-0.4-0.8-0.7-1.3-0.9c-0.5-0.2-1.1-0.4-1.7-0.4c-0.7,0-1.4,0.2-1.9,0.5c-0.5,0.3-0.9,0.7-1.2,1.2c-0.1-0.2-0.2-0.4-0.4-0.5
		c-0.2-0.1-0.4-0.2-0.6-0.2c-0.6,0-1.1,0.1-1.6,0.4c-0.5,0.3-0.9,0.6-1.3,1.1c-0.4,0.5-0.7,1-1,1.5c-0.3,0.6-0.5,1.2-0.7,1.8
		c-0.2,0.6-0.3,1.2-0.4,1.8c-0.1,0.6-0.1,1.1-0.1,1.6c0,0.5,0,1.1,0.1,1.7c0.1,0.6,0.2,1.2,0.3,1.7c0.1,0.6,0.3,1.1,0.5,1.7
		c0.2,0.6,0.4,1.1,0.7,1.6c-1.1,1-2,2-2.7,2.9c-0.7,0.9-1.4,1.7-1.8,2.5c-0.5,0.8-0.8,1.5-1,2.3c-0.2,0.7-0.3,1.5-0.3,2.2
		c0,0.8,0.1,1.6,0.4,2.3C299.2,87.3,299.6,87.9,300.1,88.3z M307.6,64.8c0-0.3,0.1-0.6,0.2-1c0.1-0.3,0.2-0.6,0.3-0.9
		c0.1-0.3,0.2-0.6,0.4-0.8c0,0.3,0.1,0.6,0.2,0.8c0.2,0.2,0.4,0.3,0.8,0.5c0.4,0.1,0.7,0.2,0.9,0.3c0.2,0.1,0.4,0.2,0.6,0.3
		c0.2,0.1,0.3,0.3,0.3,0.4c0.1,0.2,0.1,0.3,0.1,0.5c0,0.5-0.2,1.3-0.7,2.2c-0.5,0.9-1.1,2-2.1,3.3c-0.2-0.4-0.4-0.7-0.5-1.1
		c-0.2-0.4-0.3-0.8-0.4-1.2c-0.1-0.4-0.2-0.8-0.2-1.2s-0.1-0.8-0.1-1.1C307.5,65.4,307.5,65.1,307.6,64.8z M305.3,80.5
		c0.3-0.7,0.7-1.4,1.2-2.1c0.2,0.4,0.5,0.8,0.7,1.2c0.2,0.4,0.5,0.8,0.7,1.1c0.3,0.4,0.5,0.7,0.8,1.1c0.3,0.4,0.6,0.7,0.8,1.1
		c-0.2,0.1-0.4,0.3-0.7,0.4c-0.2,0.1-0.5,0.2-0.8,0.3c-0.3,0.1-0.5,0.2-0.8,0.2c-0.3,0.1-0.5,0.1-0.7,0.1c-0.4,0-0.6,0-0.9-0.1
		c-0.2-0.1-0.4-0.2-0.6-0.4c-0.1-0.2-0.2-0.3-0.3-0.5c-0.1-0.2-0.1-0.4-0.1-0.6C304.9,81.8,305,81.1,305.3,80.5z"/>
	<path id="XMLID_606_" fill="#FFFFFF" d="M321.9,213.4c-66.2-5.4-177.3,32.1-177.3,32.1c-1.1,4.9,2,40.4,19.6,33.3
		c18.7-7.6,111.2-34.1,159.3-30.1C323.5,248.6,340.7,214.9,321.9,213.4z M165.4,262.7c0,2,0.1,3.9,0.5,5.2c0.1,0.5,0.3,0.8,0.6,1.1
		c0,0,0,0,0,0c0,0.1,0,0.6-0.3,0.7c-0.1,0-0.1,0-0.2,0c-1-0.2-1.7-1.3-2.3-2.9c-1.4-4.3-1-12.1,0-15c0.1-0.3,0.4-0.5,0.9-0.6
		c0.8-0.3,1.8-0.3,1.9,0c0,0,0,0.1,0,0.1c-0.1,0.6-1,5.6-1.2,10.3c2.3-1.8,4.4-7.3,3.5-10.1c-0.4-1.3-1.6-2.1-3.7-1.3
		c-9.5,3.9-5.9,11.4-2.6,11.8c-0.3,2.1-3.6,1.5-4.6,0.2c-6.5-8.9,10.9-17.9,13.4-11.2C172.7,254.7,168.8,261.5,165.4,262.7z
		 M203.4,255.3c-1-1.4-1.4-2.6-1.6-3.8c-0.5,1.2-1.1,2-1.6,2.3c-0.5,2.7-2,5.2-4.3,4.6c-0.8-0.2-1.4-2.1-1.6-4.5
		c-0.4,1.4-1.1,3.4-1.6,4.5c-0.8,1.8-2.1,2.5-3.3,1c-1-1.3-1.5-2.6-1.7-3.7c-0.5,1.2-1.1,2-1.6,2.3c-0.5,2.7-1.9,5.2-4.3,4.7
		c-0.8-0.2-1.4-2.1-1.7-4.5c-0.4,1.6-0.9,3.2-1.5,5.1c-0.1,0.4-1.1,1.3-1.6,0.9c-0.2-0.2-0.5-1.4-0.8-2.8c-0.4,1.3-0.7,2.5-0.9,3
		c-0.4,1.2-1.9,1.6-2.5,0.3c-0.9-1.8-1.1-5.2-0.9-6.3c0.3-1.5,0.6-2.8,1.6-3c2.4-0.6,2.8,0.1,2.7,0.9c0.6-0.5,1.6-0.6,2-0.4
		c0.3,0.1,0.5,0.4-0.3,2c-0.1,1-0.2,2.3-0.1,3.4c0.7-1.1,1.5-3.5,1.9-4.7c-0.2-3.2,0.1-6.7,1-8.5c0.7-0.5,3-1.1,2.8-0.7
		c-0.7,1.5-1.3,4.7-1.6,6.9c-0.4,2.6-0.1,4.9,0.5,7.2c0.4-0.1,1-1.8,1.3-3.6c-1.2-1.2-1.8-4-0.6-4.9c2.2-1.8,3.2,1.2,2.9,4.3
		c0.8-0.6,1.3-2.2,1.3-2.2h0c0-3,1.2-4.1,1.2-4.1c1-1.4,2.7-1.1,3.2-0.8c0.9,0.1,2.6,0.8-2.1,6.4c0.3,1.7,1.1,2.6,2.2,0.3l2-4.4
		c-0.2-3.2,0.2-6.9,1.1-8.7c0.8-0.4,3-1.1,2.9-0.7c-0.7,1.5-1.4,4.6-1.8,6.9c-0.4,2.6-0.2,4.9,0.4,7.2c0.4-0.1,1-1.8,1.3-3.6
		c-1.2-1.2-1.7-4-0.5-4.9c2.3-1.7,3.2,1.4,2.8,4.4c0.8-0.5,1.4-2.1,1.4-2.1s0,0,0,0c0.1-3,1.2-4.1,1.2-4.1c1-1.4,2.7-1.1,3.3-0.8
		c0.9,0.1,2.5,0.9-2.2,6.4c0.5,4.4,3.1,0.8,2.5-1.6c0,0,0.8-0.7,1.4,0.6C208.8,253.2,205.6,258.4,203.4,255.3z M228.3,241.2
		l-2.5,0.6c-0.2,1.7-0.3,3.4-0.4,5c-0.5,7.8-7.2,5.7-8.5,2.8c-0.3-0.5,2.1-1.8,2.6-0.7c1.6,3.3,3.9,2.9,4-0.3c0-1.8-0.1-4-0.1-6.2
		c-3.9,0.9-6.8,1.9-7.7,3.1c-2,0.9-4-2.6,7.7-4.6c0-2.4,0-4.7,0.3-6.4c-4.1,1.3-8.1,3.2-9.9,4.9c-0.5,0.5-2.2-1.5-2.1-2.3
		c0.1-2.5,16.8-6.4,21.1-5.9c0.6,0.3,0.1,1.6-0.5,1.6c-1.6,0-3.5,0.3-5.5,0.8c-0.2,1.5-0.5,4.1-0.8,6.9l2.6-0.3
		C229,240.1,228.8,241,228.3,241.2z M252.3,245.2c-1.9-0.3-2.4-2.7-2.3-5.1c-0.6,1.3-1.3,3.2-1.9,4.2c-0.9,1.7-2.4,2.3-3.4,0.7
		c-0.8-1.3-1.2-2.5-1.3-3.6c-0.8,1.8-1.6,3.7-2.7,5.3c-0.2,0.3-1.2,1.2-1.7,0.7c-0.4-0.4-0.7-6.4,0.1-7.9c-0.2,0.1-0.4,0.1-0.6,0.2
		c-0.1,0.2-0.5,1-0.8,1.8c-0.9,2.1-1.9,3.8-3,4.7c-0.7,2.1-1.7,3.7-3.4,3.1c-0.2,0.1-0.4,0.1-0.5,0c-1.9-0.8-2.3-7.8,0.1-9.5
		c1.7-1.2,5-1.3,4.3,1.1c0.4,0.6,0.4,1.8,0.2,3c0.6-0.7,1.3-1.5,1.8-2.4c0.4-0.8,0.7-1.6,0.8-1.6l0,0c-1,0.1-1.6-0.2-0.5-1.6
		c0.7-0.8,0.8-0.9,1-0.9c1.1,0.3,3.9-1.2,3.6,0.1c-0.6,2-1.6,4.9-1.6,7.5c0.9-1,2.3-3.7,3-5.1c0.3-2.2,1.5-3.6,1.5-3.6
		c1.1-1.3,2.7-0.7,3.3-0.4c0.9,0.2,2.5,1.1-2.7,6.3c0.1,1.7,0.9,2.7,2.2,0.5l2.5-4.2c0,0,0.1,0,0.1-0.1c0.2-1.1,0.2-2,0.5-2.7
		c0-0.4,2.3-1,2.3-0.5v0c0,0.1,0.5,0.7-0.5,2.6c-0.8,2.7-0.6,5.8-0.1,5.8c1.4,0.1,2.6-9.1,2.2-10.7c-0.1-0.5,1.7-0.8,1.9-0.4
		C258.5,234.1,254.4,245.6,252.3,245.2z M266.2,234.5c-0.2,0-0.4,0.1-0.6,0.1c-0.1,0.2-0.5,0.9-0.9,1.7c-0.4,0.9-1.8,4-2.6,5.4
		c-1,1.6-2.4,2.2-3.4,0.6c-3-5.1,0.5-8.7,0.5-8.7c1.2-1.3,2.7-0.6,3.3-0.3c0.9,0.2,2.4,1.2-2.9,6.2c0.1,1.8,0.8,2.7,2.1,0.6l2.5-4
		c0.4-0.7,0.7-1.3,0.8-1.3l0,0c-1,0.1-1.6-0.3-0.4-1.6c0.7-0.8,0.9-0.9,1.1-0.8c1.1,0.3,4.1-0.9,3.5,0.3c-4.9,9.6,2.9,13.8,6.3,9.9
		C278.2,249.7,263.4,247.9,266.2,234.5z M295.8,241.5c0.9,0,2.1-0.4,3.5-1.5c-0.5,9.6-14,2.2-7.1-16.1c-1.1,1.4-2.4,3.7-3.7,6.1
		c0.8,0,1.3,0,1.3,0c0.5,0.1,0.2,1-0.4,1c-0.5,0-1,0-1.4,0c-2.2,3.9-4.3,8-5.5,9.2c-2.2,2.2-4.4-2.6-4.4-2.6
		c-2.9-5.6,4.1-7.1,8.5-7.4c2.5-4.3,4.8-8.6,6.4-9c0.5-0.7,3.4-0.3,3,0.2c-3.2,6.1-4.7,16.7-1.8,19.5c-0.1-2.7,0.6-6.9,1.6-10.3
		c-0.5-0.1-0.7-0.2-0.7-0.2c0.1-0.7,0.4-0.8,1-0.9c0.4-1.2,0.8-2.3,1.2-3.2c1.1-4,3.8-3.5,5.5-2.6c0.8,0.4,0.2,2.5-1.5,4.3
		c0,0-1.2,0.2-0.8-0.6c0.2-0.3,0.6-1.2,0.5-2c-0.1-0.2-0.4-0.5-1.1,1c-0.3,0.8-0.8,1.7-1.1,2.8c0.5-0.1,1.1-0.2,1.9-0.4
		c0.7-0.2,0.3,1-0.6,1.3c-0.6,0.1-1.2,0.3-1.7,0.3C297,234.4,295.6,239.3,295.8,241.5z M315,239.2c-0.3,0.2-1.5,0.7-1.8,0.2
		c-0.2-0.5,1.4-6.3,2.5-7.5c-0.2,0-0.4,0-0.6,0c-0.1,0.2-0.8,0.8-1.4,1.5c-0.7,0.9-2.6,3.5-3.6,4.6c-1.3,1.4-2.8,1.6-3.4-0.2
		c-0.4-1.4-0.5-2.6-0.4-3.6c-1.2,1.9-3,4.6-3.8,4.9c-3.5,1.1-2.6-3.2,0.4-10.3c-0.6-0.1-1.1-0.1-1-0.2c0.4-0.7,0.3-1.5,1.2-1.5
		l0.5,0c0.3-0.8,0.7-1.5,1-2.3c0.1-0.3,3.4-0.6,3,0.3l-1.3,2c1,0,1.2-0.1,1.3-0.1c0.6,0-0.2,1.2-0.4,1.5c-0.2,0.3-1,0.4-1.9,0.4
		c-1.8,3.4-3.1,6.8-3.4,8.6c0,1.3,3-2.9,4.8-5c0.8-2.1,2.3-3.1,2.3-3.1c1.4-1,2.8,0,3.3,0.5c0.9,0.4,2.1,1.7-4.1,5.4
		c-0.3,1.7,0.2,2.8,2,1l3.4-3.5c0,0,0,0,0,0c0.5-0.5,0.9-0.9,1-1l0,0c-1-0.2-1.5-0.7,0-1.6c0.9-0.6,1.1-0.6,1.2-0.5
		c1,0.6,4.1,0.1,3.3,1.2c-1.2,1.7-3,4.1-3.9,6.6c1.6-0.9,5-4.4,5.2-4.6c0.3-0.2,0.4,0.2,0.4,0.2C319,235.1,317.3,237.5,315,239.2z"
		/>
	<path id="XMLID_631_" fill="#FFFFFF" d="M246.6,237.5c-0.6,1-0.9,2.5-1,3.7C248.1,237.7,247.1,236.9,246.6,237.5z"/>
	<path id="XMLID_632_" fill="#FFFFFF" d="M260.7,234.8c-0.7,1-1,2.4-1.1,3.7C262.2,235.1,261.3,234.3,260.7,234.8z"/>
	<path id="XMLID_633_" fill="#FFFFFF" d="M231.7,248c0.3,0.2,0.8-0.4,1.1-1.4c-0.5-0.1-1.3-0.4-1.7-0.8
		C231.1,246.7,231.1,247.7,231.7,248z"/>
	<path id="XMLID_634_" fill="#FFFFFF" d="M231.7,242.1c-0.7,2.6,0.3,3.6,1.3,3.4c0.1-1,0.2-2.3,0.1-3.8
		C232.9,240.1,232.1,240.7,231.7,242.1z"/>
	<path id="XMLID_635_" fill="#FFFFFF" d="M281.3,237.9c2-0.8,3.2-4.1,4.8-6.8C277.5,232.1,278.7,238.9,281.3,237.9z"/>
	<path id="XMLID_636_" fill="#FFFFFF" d="M310.2,230.9c-0.9,0.8-1.5,2.2-1.9,3.4C311.6,231.6,310.9,230.6,310.2,230.9z"/>
	<path id="XMLID_637_" fill="#FFFFFF" d="M175.9,257.4c-0.7-4.3-2.7,4-1.4,5.8c0.4,0.6,1-2.2,1.5-3.7
		C175.9,258.7,175.8,258,175.9,257.4z"/>
	<path id="XMLID_638_" fill="#FFFFFF" d="M190.5,251.7c-0.5,1.1-0.7,2.5-0.7,3.8C192.1,251.8,191,251.1,190.5,251.7z"/>
	<path id="XMLID_639_" fill="#FFFFFF" d="M204.7,247.6c-0.6,1.1-0.8,2.5-0.8,3.8C206.3,247.8,205.3,247.1,204.7,247.6z"/>
</g>
</svg>
